<svg version="1.2" xmlns="http://www.w3.org/2000/svg" viewBox="0 0 500 500" width="500" height="500">
	<title>5683383_2958635-svg</title>
	<defs>
		<clipPath clipPathUnits="userSpaceOnUse" id="cp1">
			<path d="m464.44 317.39c1.46 0.3 3.21 16.44 3.34 24.67 0.14 8.87-2.12 42.35-2.12 42.35l10.01 59.66h-12.24c0 0-15.36-44.59-18.17-59.85-1.65-8.97-4.09-44.33-4.09-44.33l-10.53 39.59-1.69 64.59h-11.42c0 0-6.01-49.27-6.01-67.77 0-12.91 7.64-45.81 8.92-49.31 5.11-13.91 10.95-16.13 15.18-21.07"/>
		</clipPath>
		<clipPath clipPathUnits="userSpaceOnUse" id="cp2">
			<path d="m447.35 232.36c-0.7 4.23 2.17 8.1 6.39 8.8l4.42 0.73c4.21 0.69 8.17-2.05 8.87-6.28l2.46-14.93c0.7-4.23-2.15-8.24-6.36-8.93l-4.42-0.73c-4.21-0.7-8.2 2.18-8.9 6.42z"/>
		</clipPath>
		<clipPath clipPathUnits="userSpaceOnUse" id="cp3">
			<path d="m95.72 232.65c0.37 4.27-2.79 7.91-7.05 8.28l-4.46 0.38c-4.25 0.37-7.99-2.66-8.36-6.93l-1.31-15.08c-0.37-4.27 2.78-8.05 7.03-8.42l4.46-0.39c4.26-0.36 8.01 2.82 8.38 7.09z"/>
		</clipPath>
	</defs>
	<style>
		.s0 { fill: #ffffff } 
		.s1 { fill: #f6a03e } 
		.s2 { fill: #002e5c } 
		.s3 { fill: #f6b63e } 
		.s4 { fill: #b7b8d9 } 
		.s5 { fill: #e2e0f4 } 
		.s6 { fill: none;stroke: #b7b8d9;stroke-miterlimit:10 } 
		.s7 { fill: #6471c0 } 
		.s8 { fill: #d9ab8f } 
		.s9 { fill: none } 
		.s10 { fill: #7a8aeb } 
		.s11 { fill: #d3d1e8 } 
		.s12 { fill: #c0bed3 } 
		.s13 { fill: none;stroke: #002e5c;stroke-linecap: round;stroke-linejoin: round;stroke-width: .4 } 
		.s14 { fill: #4452ad } 
		.s15 { fill: #e29ea0 } 
		.s16 { fill: #e1b89f } 
		.s17 { fill: #76768a } 
		.s18 { fill: #b2b2d3 } 
		.s19 { fill: #f9a826 } 
		.s20 { fill: #e19d9f } 
		.s21 { fill: #e7e6f2 } 
	</style>
	<g id="BACKGROUND">
		<g>
			<path class="s0" d="m0 0h500v500h-500z"/>
			<g>
			</g>
			<g>
				<path class="s1" d="m336.4 384.2c-1.4-3.2-1.7-6.7-1.3-9.9q0.2-1.6 0.1-3.3c-0.2-2-0.7-3.9-1.5-5.5-1.2-2.6-1.6-5.4-1-7.9q0.3-1.7 0.2-3.4c-0.5-4.6-4.1-8.2-8.3-8.4-4.8-0.3-9 3.6-9.4 8.8q0 1.4 0.2 2.7c0.6 2.6 0.2 5.5-1 8.2-0.8 1.6-1.3 3.5-1.5 5.5q-0.1 1.8 0.2 3.5c0.4 3.2-0.1 6.6-1.4 9.9-1 2.4-1.7 5.1-1.9 8.1-0.6 10.6 5.3 14.3 13.2 15.1 9.1 0.9 16.3-3.7 15.3-15.7-0.3-2.8-0.9-5.4-1.9-7.7z"/>
			</g>
			<g>
				<path class="s2" d="m324.1 380.3c0-0.1 0 2.3 0 5.8 0.1 3.4 0.1 8.1 0.1 12.7 0 4.7 0 9.3-0.1 12.8 0 3.5 0 5.8 0 5.8 0 0-0.1-2.3-0.1-5.8 0-3.5-0.1-8.1-0.1-12.8 0-4.6 0.1-9.3 0.1-12.7 0-3.5 0.1-5.9 0.1-5.9z"/>
			</g>
			<g>
				<path class="s3" d="m323.7 372.9c-1.8-4.4-2.3-9.1-1.7-13.3q0.3-2.2 0.1-4.5c-0.2-2.7-0.9-5.2-1.9-7.4-1.7-3.4-2.3-7.2-1.5-10.6q0.5-2.2 0.3-4.5c-0.7-6.2-5.5-11-11.1-11.3-6.4-0.4-12.1 4.8-12.6 11.8q-0.1 1.9 0.3 3.7c0.7 3.4 0.3 7.4-1.4 10.9-1.1 2.2-1.7 4.7-1.9 7.4q-0.2 2.4 0.1 4.7c0.6 4.3-0.1 8.9-1.9 13.3-1.3 3.2-2.2 6.9-2.5 10.9-0.8 14.2 7.2 19.2 17.7 20.3 12.2 1.2 21.9-5 20.5-21.1-0.3-3.8-1.2-7.3-2.5-10.3z"/>
			</g>
			<g>
				<path class="s2" d="m307.2 332.3c0 0 0 5.3 0.1 13.3 0 7.9 0 18.6 0 29.2 0 10.7 0 21.3 0 29.3-0.1 8-0.1 13.3-0.1 13.3 0 0-0.1-5.3-0.1-13.3 0-8 0-18.6-0.1-29.3 0.1-10.6 0.1-21.3 0.1-29.2 0-8 0.1-13.3 0.1-13.3z"/>
			</g>
			<g>
				<path class="s2" d="m295.9 383.1c0 0 0.7 0.4 1.8 1 1 0.7 2.5 1.6 3.9 2.5 1.4 0.9 2.8 1.8 3.9 2.5 1 0.7 1.7 1.2 1.7 1.2 0 0-0.7-0.4-1.8-1-1.1-0.7-2.5-1.6-4-2.5-1.4-0.9-2.8-1.8-3.8-2.5-1.1-0.8-1.7-1.2-1.7-1.2z"/>
			</g>
			<g>
				<path class="s2" d="m307.2 371c0 0 0.5-0.5 1.4-1.2 0.8-0.7 1.9-1.6 3-2.5 1.2-0.9 2.3-1.8 3.2-2.5 0.9-0.6 1.5-1 1.5-1 0 0-0.6 0.4-1.4 1.1-0.8 0.8-2 1.7-3.1 2.6-1.1 0.9-2.3 1.8-3.2 2.4-0.8 0.6-1.4 1.1-1.4 1.1z"/>
			</g>
			<g>
				<path class="s2" d="m299.9 347.6c0 0 0.5 0.4 1.2 1 0.7 0.6 1.6 1.5 2.5 2.4 0.9 0.9 1.8 1.7 2.5 2.4 0.7 0.7 1.1 1.2 1.1 1.2 0 0-0.5-0.4-1.2-1.1-0.7-0.6-1.6-1.5-2.6-2.3-0.9-0.9-1.8-1.8-2.4-2.5-0.7-0.7-1.1-1.1-1.1-1.1z"/>
			</g>
			<g>
				<path class="s2" d="m307.2 342.2c0 0 0.3-0.4 0.9-1 0.6-0.6 1.4-1.4 2.2-2.2 0.8-0.8 1.6-1.5 2.2-2.1 0.7-0.5 1.1-0.9 1.1-0.9 0 0-0.4 0.4-1 1-0.5 0.7-1.3 1.4-2.1 2.2-0.8 0.8-1.6 1.5-2.3 2.1-0.6 0.5-1 0.9-1 0.9z"/>
			</g>
			<path class="s4" d="m306.2 455.2h26.3l11.2-42.5h-42.6z"/>
			<path class="s5" d="m306.2 455.2h-10.1l-11.2-42.5h16.2z"/>
			<g>
				<path class="s2" d="m286 416.7c0 0 3.5-0.1 8.8-0.1 5.3 0 12.3 0 19.4-0.1 7 0.1 14.1 0.1 19.4 0.1 5.3 0 8.8 0.1 8.8 0.1 0 0-3.5 0-8.8 0-5.3 0.1-12.4 0.1-19.4 0.1-7.1 0-14.1 0-19.4-0.1-5.3 0-8.8 0-8.8 0z"/>
			</g>
			<g>
				<g>
					<path class="s6" d="m50.9 65.6v-65.6"/>
					<g>
						<path class="s2" d="m41.7 76.8c0 0 1.1 0 2.9-0.1 1.7 0 4 0 6.3 0 2.3 0 4.7 0 6.4 0 1.7 0.1 2.9 0.1 2.9 0.1 0 0-1.2 0.1-2.9 0.1-1.7 0-4.1 0.1-6.4 0.1-2.3 0-4.6-0.1-6.3-0.1-1.8 0-2.9-0.1-2.9-0.1z"/>
					</g>
				</g>
				<g>
					<path class="s6" d="m110.4 42.5v-42.5"/>
					<g>
						<path class="s2" d="m101.1 53.7c0 0 1.2-0.1 2.9-0.1 1.8-0.1 4.1-0.1 6.4-0.1 2.3 0 4.6 0 6.4 0.1 1.7 0 2.8 0.1 2.8 0.1 0 0-1.1 0-2.8 0-1.8 0.1-4.1 0.1-6.4 0.1-2.3 0-4.6 0-6.4-0.1-1.7 0-2.9 0-2.9 0z"/>
					</g>
				</g>
				<g>
					<path class="s6" d="m80.7 100.4v-100.4"/>
					<g>
						<path class="s2" d="m71.4 111.6c0 0 1.2-0.1 2.9-0.1 1.7 0 4-0.1 6.4-0.1 2.3 0 4.6 0.1 6.3 0.1 1.8 0 2.9 0.1 2.9 0.1 0 0-1.1 0-2.9 0.1-1.7 0-4 0-6.3 0-2.4 0-4.7 0-6.4 0-1.7-0.1-2.9-0.1-2.9-0.1z"/>
					</g>
				</g>
			</g>
		</g>
	</g>
	<g id="OBJECTS">
		<g>
			<g>
				<g>
					<path class="s4" d="m475.1 224.7c3.2 7.1 5 9.3 2.4 11.9-2.6 2.6 8.4 10.3 3.5 15.2-4.9 4.9 6.1 12.8-2.3 20.3-8.5 7.4-40.5 2-40.5-17.2-0.3-8.5 9.6-11.3 6.2-14.8-3.5-3.4 4.8-9.4 1.9-12.3-2.9-2.9-0.9-14.7 8.8-14.7"/>
					<path class="s4" d="m464.9 238.9c-7.2 1.6-14.5-3.4-16.4-11.3-1.8-7.9 2.5-15.7 9.8-17.4 7.2-1.6 14.5 3.4 16.4 11.3 1.8 7.9-2.5 15.7-9.8 17.4z"/>
					<g>
						<g>
							<path class="s7" d="m435.1 252.5l-6.6 4.2c1.6 1.7 6.6 7.7 8.5 14.8l14.4-6.8c0 0-4.7-7.7-16.3-12.2z"/>
						</g>
						<g>
							<g>
								<path class="s8" d="m378.3 252.4l29.2 16.7 18.9-11c3.2 4.4 6.6 9 9.1 14.1l-19.8 9.4c-4.6 2.1-10 1.9-14.4-0.6l-27-19.2z"/>
								<g>
									<path class="s2" d="m449.6 265.3c0 0-0.9 0.5-2.2 1.2-1.3 0.7-3 1.5-4.8 2.4-1.8 0.8-3.5 1.7-4.8 2.3-1.4 0.6-2.3 1-2.3 1 0 0 0.9-0.5 2.2-1.2 1.3-0.6 3-1.5 4.8-2.4 1.7-0.8 3.5-1.7 4.8-2.3 1.4-0.6 2.3-1 2.3-1z"/>
								</g>
								<g>
									<path class="s9" d=""/>
								</g>
								<g>
									<path class="s9" d=""/>
								</g>
								<path class="s8" d="m372.8 261.4c-2.3-1.4-7.4-5.4-7-6.1 0.3-0.7 3.7 0.8 3.7 0.8 0 0-3.5-2.5-3-3.4 0.5-1 4.4 1 4.4 1 0 0-3.6-2.7-2.9-3.5 0.7-0.8 4.6 1.7 4.6 1.7 0 0-3.1-2.5-2.5-3.1 0.5-0.6 4.8 1.2 9.4 3.8"/>
								<path class="s8" d="m379.3 264.5c0 0-10.2-3.6-9.4-7 0.8-3.4 4.3-9.8 14.3-2.1 10.1 7.8-4.9 9.1-4.9 9.1z"/>
								<g>
									<path class="s2" d="m375.1 253.4c0 0-0.2-0.1-0.6-0.3-0.4-0.2-0.8-0.4-1.3-0.7-0.4-0.3-0.9-0.7-1.2-1-0.3-0.2-0.4-0.5-0.4-0.5 0 0 0.2 0.2 0.5 0.4 0.4 0.2 0.8 0.5 1.3 0.8 0.4 0.3 0.8 0.6 1.2 0.9 0.3 0.2 0.5 0.4 0.5 0.4z"/>
								</g>
								<g>
									<path class="s2" d="m373.2 255.2c0 0-0.3-0.1-0.7-0.3-0.4-0.2-0.9-0.6-1.4-0.9-0.4-0.4-0.9-0.7-1.2-1.1-0.3-0.3-0.5-0.5-0.5-0.5 0 0 0.9 0.7 1.9 1.4 0.5 0.3 1 0.7 1.3 0.9 0.4 0.3 0.6 0.5 0.6 0.5z"/>
								</g>
								<g>
									<path class="s2" d="m371.2 257.1c0 0-0.3-0.1-0.6-0.3-0.4-0.2-0.9-0.5-1.3-0.8-0.5-0.3-0.9-0.7-1.2-1-0.3-0.3-0.5-0.5-0.5-0.5 0 0 0.2 0.2 0.6 0.4 0.3 0.3 0.8 0.6 1.2 0.9 0.5 0.3 0.9 0.6 1.2 0.9 0.4 0.2 0.6 0.4 0.6 0.4z"/>
								</g>
							</g>
							<path class="s8" d="m379.1 252.7c0 0-3.4-2.3-2.9-3.2 0.5-1 6.8 0.5 6.6 6.2"/>
						</g>
						<g>
							<path class="s3" d="m426.4 258.1c3.2 4.4 6.6 9 9.1 14.1l1.5-0.7c-1.9-7.1-6.9-13.1-8.5-14.8z"/>
						</g>
					</g>
					<g>
						<path class="s10" d="m403.1 217.4h-62.6c-1.4 0-2.6 1.1-2.6 2.6v49.7h67.8v-49.7c0-1.4-1.2-2.6-2.6-2.6z"/>
						<path class="s7" d="m402.4 217.4h-62.6c-1.4 0-2.6 1.1-2.6 2.6v49.7h67.8v-49.7c0-1.4-1.2-2.6-2.6-2.6z"/>
						<path class="s0" d="m403.6 221.3v44.8h-65v-44.8z"/>
						<g style="opacity: .5">
							<g>
								<g>
									<path class="s11" d="m340.9 224h4.7v5.8h-4.7z"/>
									<path class="s11" d="m340.9 230.5h4.7v0.4h-4.7z"/>
								</g>
								<g>
									<path class="s11" d="m349 224h4.7v5.8h-4.7z"/>
									<path class="s11" d="m349 230.5h4.7v0.4h-4.7z"/>
								</g>
								<g>
									<path class="s11" d="m357.2 224h4.6v5.8h-4.6z"/>
									<path class="s11" d="m357.2 230.5h4.6v0.4h-4.6z"/>
								</g>
								<g>
									<path class="s11" d="m365.3 224h4.6v5.8h-4.6z"/>
									<path class="s11" d="m365.3 230.5h4.6v0.4h-4.6z"/>
								</g>
							</g>
							<g>
								<g>
									<path class="s11" d="m340.9 233.8h4.7v5.8h-4.7z"/>
									<path class="s11" d="m340.9 240.3h4.7v0.4h-4.7z"/>
								</g>
								<g>
									<path class="s11" d="m349 233.8h4.7v5.8h-4.7z"/>
									<path class="s11" d="m349 240.3h4.7v0.4h-4.7z"/>
								</g>
								<g>
									<path class="s11" d="m357.2 233.8h4.6v5.8h-4.6z"/>
									<path class="s11" d="m357.2 240.3h4.6v0.4h-4.6z"/>
								</g>
								<g>
									<path class="s11" d="m365.3 233.8h4.6v5.8h-4.6z"/>
									<path class="s11" d="m365.3 240.3h4.6v0.4h-4.6z"/>
								</g>
							</g>
							<g>
								<g>
									<path class="s11" d="m340.9 243.6h4.7v5.8h-4.7z"/>
									<path class="s11" d="m340.9 250.1h4.7v0.4h-4.7z"/>
								</g>
								<g>
									<path class="s11" d="m349 243.6h4.7v5.8h-4.7z"/>
									<path class="s11" d="m349 250.1h4.7v0.4h-4.7z"/>
								</g>
								<g>
									<path class="s11" d="m357.2 243.6h4.6v5.8h-4.6z"/>
									<path class="s11" d="m357.2 250.1h4.6v0.4h-4.6z"/>
								</g>
								<g>
									<path class="s11" d="m365.3 243.6h4.6v5.8h-4.6z"/>
									<path class="s11" d="m365.3 250.1h4.6v0.4h-4.6z"/>
								</g>
							</g>
						</g>
						<path class="s11" d="m403.6 263.8v2.3h-65v-2.3z"/>
						<path class="s12" d="m403.6 263.8v2.3h-5.9v-2.3z"/>
						<path class="s7" d="m405.7 274.8h-102.2c-1.8 0-3.2-1.4-3.2-3.2v-1.9h105.4c0 0 0 5.1 0 5.1z"/>
						<path class="s10" d="m405.7 274.8h-34.2c-1.8 0-3.2-1.4-3.2-3.2v-1.9h37.4z"/>
						<g>
							<path class="s2" d="m300.5 270.7c0 0 6.6 0 16.4 0 9.9-0.1 23-0.1 36.2-0.1 13.1 0 26.3 0 36.2 0.1 9.8 0 16.4 0 16.4 0 0 0-6.6 0.1-16.4 0.1-9.9 0-23.1 0.1-36.2 0.1-13.2 0-26.3-0.1-36.2-0.1-9.8 0-16.4-0.1-16.4-0.1z"/>
						</g>
						<path class="s2" d="m376.3 273.2h-4.1c-0.4 0-0.6-0.3-0.6-0.6v-0.1c0-0.3 0.2-0.6 0.6-0.6h4.1c0.4 0 0.6 0.3 0.6 0.6v0.1c0 0.3-0.2 0.6-0.6 0.6z"/>
						<path class="s2" d="m383.1 273.2h-4.2c-0.3 0-0.6-0.3-0.6-0.6v-0.1c0-0.3 0.3-0.6 0.6-0.6h4.2c0.3 0 0.6 0.3 0.6 0.6v0.1c0 0.3-0.3 0.6-0.6 0.6z"/>
						<path class="s2" d="m389.8 273.2h-4.1c-0.4 0-0.6-0.3-0.6-0.6v-0.1c0-0.3 0.2-0.6 0.6-0.6h4.1c0.4 0 0.6 0.3 0.6 0.6v0.1c0 0.3-0.2 0.6-0.6 0.6z"/>
						<path class="s10" d="m365.5 272.6h-23.8c0.5 1.3 1.6 2.2 2.9 2.2h23.7c-1.3 0-2.4-0.9-2.8-2.2z"/>
						<path class="s10" d="m325.7 272.6h-23.7c0.4 1.3 1.5 2.2 2.9 2.2h23.7c-1.3 0-2.5-0.9-2.9-2.2z"/>
						<g>
							<path class="s2" d="m330.2 270.7q0.3 0.9 0.7 1.8h-0.1q3.7-0.1 7.5 0h-0.1q0.4-0.9 0.9-1.8-0.4 1-0.7 1.9-0.1 0-0.1 0-3.8 0.1-7.5 0 0 0-0.1 0-0.3-0.9-0.5-1.9z"/>
						</g>
						<g>
							<path class="s2" d="m337.2 269.7c0 0 4.3 0 10.7 0 6.4 0 15-0.1 23.6-0.1 8.5 0 17.1 0.1 23.5 0.1 6.4 0 10.7 0 10.7 0 0 0-4.3 0.1-10.7 0.1-6.4 0-15 0.1-23.5 0.1-8.6 0-17.2-0.1-23.6-0.1-6.4 0-10.7-0.1-10.7-0.1z"/>
						</g>
						<path fill-rule="evenodd" class="s13" d="m371.8 219.1c0 0.4-0.3 0.7-0.7 0.7-0.4 0-0.7-0.3-0.7-0.7 0-0.5 0.3-0.8 0.7-0.8 0.4 0 0.7 0.3 0.7 0.8z"/>
					</g>
					<g>
						<path class="s3" d="m464.4 317.4c1.5 0.3 3.2 16.4 3.4 24.7 0.1 8.8-2.1 42.3-2.1 42.3l10 59.7h-12.3c0 0-15.3-44.6-18.1-59.9-1.7-8.9-4.1-44.3-4.1-44.3l-10.6 39.6-1.6 64.6h-11.5c0 0-6-49.3-6-67.8 0-12.9 7.7-45.8 8.9-49.3 5.2-13.9 11-16.1 15.2-21.1"/>
					</g>
					<g>
						<g id="Clip-Path" clip-path="url(#cp1)">
							<g>
								<g>
									<path class="s1" d="m411.5 436.4c6.2-6.3 14.5-6.8 8.6-14.4-5.9-7.7 5.6-10.9-1.3-17.8-6.9-6.9-13.1-2.5-13.1-2.5z"/>
								</g>
								<g>
									<path class="s1" d="m431.7 413.2c-3.6-2.7-3-7.5-7.7-12.2-4.8-4.7 6.3-8.9 0.6-14.6-5.7-5.7 8.3-12.6 10.9-7.6 2.6 4.9 5.1 40.9-3.8 34.4z"/>
								</g>
								<g>
									<path class="s1" d="m411.5 391.6c2.9-2.9 8.7-2.7 5.3-8.3-3.4-5.7 7.8-13.1 2.2-18.5-5.6-5.3-9.9-7-9.9-7 0 0-12.3 34.8 2.4 33.8z"/>
								</g>
								<g>
									<path class="s1" d="m443.6 388c2.5 0 8.1-2.3 8.1 5.6 0 7.9 8.8 7.2 7.7 13.3-1 6.1 6.7 15.1-4.1 19.3"/>
								</g>
								<g>
									<path class="s1" d="m477.7 440.6c-7.6-2.9-8.7-0.6-7.6-6.9 1.1-6.3-7.2-14.1 1-16.9"/>
								</g>
								<g>
									<path class="s1" d="m456.3 428.7c0 0 5.8-5.8 5.8 0 0 5.9 10.1 6.1-0.9 11.9"/>
								</g>
								<g>
									<path class="s1" d="m431.7 440.6c-6.6-1.8-13.9-2.5-8.1-5.4 5.7-2.9-7.1-18.6 8.1-14.8"/>
								</g>
								<g>
									<path class="s1" d="m411.5 354c2.9 0 12.1 5.2 12.1-3.4 0-8.5 16.6-21-3.9-21"/>
								</g>
								<g>
									<path class="s1" d="m468.7 377.1c-10.8-0.5-10.9-1.9-9.3-8.7 1.7-6.7-11.5-31.5 9.4-23.3"/>
								</g>
								<g>
									<path class="s1" d="m419.9 317.9c0 0 1.2 11.9 10 7.1 8.9-4.8 10.9 13.6 22.2 4 11.4-9.6 11.4-9.6 11.4-9.6 0 0-21.8-28.1-43.6-1.5z"/>
								</g>
								<g>
									<path class="s1" d="m473.6 324.3c-5.9 2.8-8.2-1.4-14.9 5.3-6.6 6.6-3.7 12.7 0 8.9 3.8-3.8 8 4.5 13.9-1.3"/>
								</g>
								<g>
									<path class="s1" d="m468.8 387.7c-5.9-3.3-16.2-4.3-10.1 1.9 6.2 6.1-1.1 21.8 12.1 15.7"/>
								</g>
							</g>
						</g>
					</g>
					<path class="s7" d="m429 444.1l1.5 8.8h-27.4c0 0 2.8-4.4 11.7-5.4 2.2-2.2 2.7-3.4 2.7-3.4z"/>
					<path class="s14" d="m403.1 455.4h27.5l-0.1-2.5h-27.4z"/>
					<g>
						<path class="s2" d="m429.7 449.5c0 0-0.3 0.1-0.7 0.3-0.4 0.1-1 0.3-1.4 0.8q-0.3 0.2-0.5 0.6c-0.1 0.1-0.1 0.2-0.2 0.3q0 0.2-0.1 0.4-0.1 0.3-0.1 0.5 0 0.2 0 0.2 0 0 0-0.2c0-0.1-0.1-0.3 0-0.6q0-0.1 0.1-0.3c0-0.1 0-0.3 0.1-0.4 0.1-0.3 0.3-0.5 0.5-0.8 0.5-0.4 1.1-0.6 1.5-0.7 0.5-0.1 0.8-0.1 0.8-0.1z"/>
					</g>
					<g>
						<path class="s2" d="m420.1 444.1q-2 2.9-4.1 5.8 0 0-0.1 0-1.9 0-3.8 0.2c-1.2 0.2-2.5 0.4-3.7 0.8 1.2-0.5 2.5-0.8 3.7-1q1.9-0.3 3.8-0.2h-0.1q2.1-2.8 4.3-5.6z"/>
					</g>
					<g>
						<path class="s2" d="m407.6 449.5c0 0 0.2 0.2 0.4 0.4 0.3 0.3 0.6 0.7 0.8 1.1 0.2 0.5 0.3 0.9 0.3 1.3 0.1 0.4 0 0.6 0 0.6 0 0 0-0.2-0.1-0.6-0.1-0.3-0.3-0.7-0.5-1.2-0.2-0.4-0.4-0.8-0.6-1.1-0.2-0.3-0.3-0.5-0.3-0.5z"/>
					</g>
					<path class="s7" d="m475.7 444.1l3.3 8.8h-27.3c0 0 2-3.4 10.1-4.8 0.7-2.2 1.6-4 1.6-4 0 0 12.3 0 12.3 0z"/>
					<path class="s14" d="m451.7 455.4h27.4l-0.1-2.5h-27.3z"/>
					<g>
						<path class="s2" d="m477.7 449.3c0 0-0.3 0.1-0.7 0.4-0.3 0.2-0.8 0.6-1.2 1q-0.2 0.4-0.4 0.8-0.1 0.1-0.1 0.3-0.1 0.2-0.2 0.4 0 0.3-0.1 0.5 0 0.2 0 0.2 0 0 0-0.2c0-0.1-0.1-0.3 0-0.6q0-0.1 0.1-0.3c0-0.2 0-0.3 0.1-0.4q0.1-0.5 0.4-0.8c0.4-0.5 0.9-0.9 1.4-1.1 0.4-0.2 0.7-0.2 0.7-0.2z"/>
					</g>
					<g>
						<path class="s2" d="m465.5 444.1q-0.4 2.8-0.9 5.7 0 0.1-0.1 0.1-1.9 0-3.8 0.2c-1.3 0.2-2.5 0.4-3.7 0.8 1.2-0.5 2.4-0.8 3.7-1q1.9-0.3 3.8-0.2l-0.2 0.1q0.6-2.9 1.2-5.7z"/>
					</g>
					<g>
						<path class="s2" d="m456.3 449.8c0 0 0.2 0.1 0.4 0.4 0.2 0.2 0.5 0.6 0.6 1q0.2 0.3 0.3 0.6 0 0.3 0.1 0.6c0 0.3 0 0.5 0 0.5 0 0-0.1-0.2-0.2-0.5-0.1-0.3-0.2-0.7-0.4-1.1-0.2-0.4-0.4-0.7-0.5-1-0.2-0.3-0.3-0.5-0.3-0.5z"/>
					</g>
					<path class="s7" d="m422.8 317.8l10-24.8c1.9-5.2 2-9.1 1.6-11.8-0.1-1.5-0.6-3.5-0.6-6.7-0.1-3.2 0.2-5 0.7-6.5 0.5-1.8 1.2-2.7 1.6-3.5 1.1-2.1 1.6-5.6-1-12 9.3-5.6 16.6-6.1 20.4-5.7q1.8 0.1 3.3 0.4c10.4 1.9 16.9 12.1 14.1 22l-8.5 30.4 2.5 11.3q1.6 7.4 2.1 14.9c-15.6 2.7-33.3 1.2-46.2-8z"/>
					<path class="s2" d="m467 276.6l-23.5 15c0 0 3.5 4.4 23.5-15z"/>
					<g>
						<path class="s3" d="m451.4 246.5c-2.3 1-2.8 4.1 2.9 6.2 5.7 2 13.3-1.3 9.1-4.2"/>
					</g>
					<g>
						<path class="s7" d="m442.6 251.4c0 0-4.4 9.4-6.5 13.1-3.8 6.6-2.3 11-2.3 11"/>
						<path class="s2" d="m442.6 251.4c0 0-0.6 1.5-1.7 3.7-1 2.2-2.4 5.2-3.9 8.1q-0.6 1.1-1.2 2.1-0.6 1.1-1 2.2-0.2 0.5-0.4 1-0.2 0.5-0.3 1-0.3 1-0.4 2c-0.2 1.2-0.2 2.2-0.1 2.9 0.1 0.7 0.2 1.1 0.2 1.1 0 0-0.2-0.4-0.3-1.1-0.1-0.7-0.1-1.7 0-3q0.2-0.9 0.4-1.9 0.1-0.5 0.3-1.1 0.2-0.5 0.4-1 0.4-1.1 1-2.2c0.3-0.7 0.8-1.4 1.2-2.1 1.5-2.9 2.9-5.8 4-8 1.1-2.2 1.8-3.7 1.8-3.7z"/>
					</g>
					<path class="s8" d="m450.9 248.7c0.6 0.8 1.1 1.4 2.8 2.2 4.5 2.1 9.7-0.2 10.1-0.5q1.6-11.7 3.2-23.5l-13-1.7z"/>
					<path class="s2" d="m455.8 240.6l-3.7-0.5-0.4 3z"/>
					<path class="s8" d="m447.4 232.4c-0.7 4.2 2.1 8.1 6.3 8.8l4.5 0.7c4.2 0.7 8.1-2.1 8.8-6.3l2.5-14.9c0.7-4.2-2.2-8.3-6.4-9l-4.4-0.7c-4.2-0.7-8.2 2.2-8.9 6.4z"/>
					<g>
						<path class="s2" d="m455.1 233.8q0 0 0 0.2c-0.1 0.1-0.1 0.2-0.3 0.4-0.1 0.1-0.2 0.3-0.4 0.4-0.3 0.1-0.5 0.1-0.8 0.1-0.5-0.2-0.9-0.6-1.1-0.8-0.1-0.4-0.2-0.6-0.2-0.6 0 0 0.1 0.2 0.4 0.5 0.2 0.2 0.6 0.5 1 0.6 0.4 0.1 0.8-0.1 1-0.3 0.3-0.3 0.4-0.5 0.4-0.5z"/>
					</g>
					<path class="s8" d="m466 232c-0.3 1.8 0.9 3.5 2.8 3.8 1.9 0.3 3.6-0.9 3.9-2.7 0.3-1.8-1-3.5-2.8-3.8-1.9-0.3-3.6 0.9-3.9 2.7z"/>
					<path class="s2" d="m458.4 226.3c-0.1 0.6 0.1 1.1 0.4 1.1 0.3 0.1 0.7-0.3 0.8-0.9 0.1-0.6-0.1-1.2-0.4-1.2-0.4-0.1-0.7 0.4-0.8 1z"/>
					<path class="s2" d="m448.9 224.7c-0.1 0.6 0.1 1.1 0.4 1.2 0.3 0 0.7-0.4 0.8-1 0.1-0.6-0.1-1.1-0.4-1.2-0.4 0-0.7 0.4-0.8 1z"/>
					<g>
						<path class="s2" d="m451.3 229.5c0.1 0-0.2-0.1-0.4 0-0.3 0.1-0.4 0.4-0.3 0.8 0 0.4 0.2 0.8 0.4 1 0.1 0.3 0.3 0.5 0.3 0.5q0 0-0.2-0.1c0-0.1-0.1-0.2-0.2-0.3-0.3-0.2-0.5-0.6-0.6-1 0-0.3 0-0.5 0.1-0.7 0.1-0.2 0.3-0.4 0.4-0.4 0.2 0 0.4 0.1 0.4 0.1q0.1 0.1 0.1 0.1z"/>
					</g>
					<g>
						<path class="s2" d="m461.2 224.7c0 0-0.5-0.4-1-0.6-0.2-0.1-0.5-0.1-0.7-0.1-0.2 0-0.4 0-0.4 0 0 0 0.1-0.1 0.4-0.2 0.2-0.1 0.5-0.1 0.8 0 0.3 0.1 0.6 0.3 0.7 0.5 0.2 0.2 0.2 0.4 0.2 0.4z"/>
					</g>
					<g>
						<path class="s2" d="m451.4 223c0 0-0.5-0.4-1-0.5-0.3-0.1-0.5-0.2-0.8-0.2-0.2 0-0.3 0.1-0.3 0.1 0 0 0.1-0.1 0.3-0.2 0.2-0.1 0.6-0.1 0.9 0 0.3 0.1 0.5 0.3 0.7 0.5 0.1 0.2 0.2 0.3 0.2 0.3z"/>
					</g>
					<g>
						<path class="s2" d="m469.3 234.7q0.4-0.3 0.5-0.7 0.1-0.4-0.1-0.8c-0.1-0.5-0.6-1-1.1-1.1-0.1 0-0.1 0-0.1-0.1 0.2-0.6 0.7-1.1 1.3-1.3 0.6-0.2 1.3-0.1 1.7 0.4-0.5-0.4-1.1-0.4-1.7-0.2q-0.4 0.1-0.6 0.4-0.3 0.4-0.4 0.8l-0.1-0.2c0.6 0.1 1.1 0.6 1.3 1.2 0 0.3 0 0.6-0.1 0.9-0.1 0.3-0.3 0.5-0.6 0.7z"/>
					</g>
					<path class="s15" d="m457.5 231.6c-0.1 0.6 0.6 1.2 1.6 1.4 0.9 0.1 1.8-0.2 1.9-0.9 0.1-0.6-0.6-1.2-1.6-1.4-0.9-0.1-1.8 0.2-1.9 0.9z"/>
					<g>
						<g id="Clip-Path" clip-path="url(#cp2)">
							<path class="s15" d="m446.3 229.7c-0.1 0.6 0.6 1.3 1.5 1.4 1 0.2 1.9-0.2 2-0.8 0.1-0.6-0.6-1.3-1.6-1.4-0.9-0.2-1.8 0.2-1.9 0.8z"/>
						</g>
					</g>
					<g>
						<path class="s2" d="m468.8 323.3c0 0-2.9 0.5-7.3 0.8-1.1 0.1-2.3 0.2-3.5 0.2q-1 0-2 0.1-0.9-0.1-2-0.1c-1.3 0-2.8-0.1-4.2-0.1-1.5-0.1-2.9-0.3-4.4-0.4-1.4-0.3-2.9-0.4-4.3-0.7q-1-0.3-2.1-0.5-1-0.2-2-0.5-1-0.3-2-0.6-0.4-0.1-0.9-0.2-0.5-0.2-0.9-0.4c-1.2-0.5-2.3-0.8-3.3-1.3q-1.5-0.7-2.7-1.3c-0.8-0.4-1.4-0.9-2-1.2-1-0.7-1.6-1.1-1.6-1.1 0 0 0.6 0.4 1.7 1 0.5 0.3 1.2 0.8 2 1.2q1.2 0.6 2.7 1.3c1 0.4 2.1 0.8 3.3 1.2q0.4 0.2 0.9 0.4 0.4 0.1 0.9 0.3 0.9 0.2 1.9 0.5 1 0.3 2.1 0.5 1 0.2 2.1 0.4c1.4 0.3 2.8 0.5 4.3 0.7 1.4 0.1 2.9 0.3 4.3 0.4 1.4 0.1 2.9 0.2 4.2 0.2q1.1 0 2 0.1 1-0.1 2-0.1c1.2 0 2.4-0.1 3.5-0.1 2.2-0.1 4-0.3 5.3-0.4 1.3-0.2 2-0.3 2-0.3z"/>
					</g>
					<g>
						<g>
							<path class="s8" d="m396.3 271.6l31.2 12.8 17.2-13.4c3.8 4.1 7.8 8.2 10.9 12.8l-18.5 11.9c-4.2 2.8-9.6 3.2-14.3 1.3l-29.2-15.5z"/>
							<g>
								<path class="s2" d="m468.7 275.3c0 0-0.8 0.5-2 1.4-1.2 0.8-2.9 1.9-4.5 3-1.6 1-3.3 2.1-4.5 2.9-1.2 0.7-2.1 1.2-2.1 1.2 0 0 0.8-0.5 2-1.4 1.2-0.8 2.8-1.9 4.5-3 1.6-1 3.2-2.1 4.5-2.8 1.2-0.8 2.1-1.3 2.1-1.3z"/>
							</g>
							<g>
								<path class="s7" d="m461.6 257.9l-15 11.6c2.2 1.5 7.2 5.7 10.4 13.5l13.4-8.6c0 0 3.4-13.6-8.8-16.5z"/>
							</g>
							<path class="s8" d="m392 281.2c-2.4-1-8-4.4-7.7-5.1 0.3-0.8 3.8 0.3 3.8 0.3 0 0-3.8-2-3.4-3 0.3-1.1 4.5 0.4 4.5 0.4 0 0-4-2.2-3.4-3.1 0.6-0.8 4.9 1.1 4.9 1.1 0 0-3.5-2.1-3-2.7 0.5-0.7 4.9 0.6 9.9 2.5"/>
							<path class="s8" d="m398.9 283.4c0 0-10.6-2.2-10.2-5.6 0.3-3.5 2.9-10.4 13.9-4 11 6.4-3.7 9.6-3.7 9.6z"/>
							<g>
								<path class="s2" d="m393.3 273c0 0-0.3-0.1-0.7-0.2-0.4-0.1-0.8-0.4-1.3-0.6-0.5-0.2-1-0.5-1.3-0.8-0.3-0.2-0.5-0.4-0.5-0.4 0 0 0.2 0.1 0.6 0.3 0.3 0.2 0.8 0.4 1.3 0.7 0.5 0.2 0.9 0.4 1.3 0.6 0.4 0.2 0.6 0.4 0.6 0.4z"/>
							</g>
							<g>
								<path class="s2" d="m391.6 275c0 0-0.3-0.1-0.7-0.2-0.4-0.2-0.9-0.4-1.5-0.7-0.5-0.3-1-0.6-1.4-0.9-0.3-0.3-0.5-0.5-0.5-0.5 0 0 1 0.6 2.1 1.1 0.5 0.3 1 0.6 1.4 0.8 0.4 0.2 0.6 0.4 0.6 0.4z"/>
							</g>
							<g>
								<path class="s2" d="m389.9 277.2c0 0-0.3-0.1-0.7-0.2-0.4-0.2-0.9-0.4-1.4-0.7-0.5-0.2-0.9-0.5-1.3-0.8-0.3-0.2-0.5-0.4-0.5-0.4 0 0 0.2 0.1 0.6 0.3 0.4 0.2 0.9 0.4 1.4 0.7 0.4 0.3 0.9 0.5 1.3 0.7 0.3 0.2 0.6 0.4 0.6 0.4z"/>
							</g>
						</g>
						<path class="s8" d="m397.1 271.8c0 0-3.6-1.8-3.2-2.8 0.3-1.1 6.7-0.4 7.4 5.3"/>
					</g>
					<path class="s4" d="m447.9 219.5l7.9 1.6 2.6-3.3 1 4 4.8 1c0 0-0.2 7.7 3.8 6.7 6.6-5.5 4.9-14.2 0.9-15.7-2.3-12.1-22.9-9-21 5.7z"/>
					<g>
						<path class="s4" d="m460.4 206.4c0 0-0.5-0.1-1.4-0.1-0.8 0-1.9 0-3.1 0.2q-0.8 0.1-1.6 0.3c-0.5 0.2-0.9 0.3-1.3 0.5q-0.6 0.2-1 0.3-0.3 0.2-0.3 0.2 0 0 0.3-0.2c0.2-0.1 0.5-0.3 0.9-0.5q0.3-0.1 0.6-0.2c0.3-0.1 0.5-0.2 0.8-0.3q0.8-0.2 1.6-0.4c1.1-0.2 2.3-0.2 3.1-0.1 0.9 0.1 1.4 0.3 1.4 0.3z"/>
					</g>
					<g>
						<path class="s4" d="m468.8 213.1c0 0 0.6 0.2 1.4 0.6 0.4 0.3 0.9 0.6 1.3 0.9q0.7 0.6 1.4 1.3 0.6 0.7 1.1 1.4 0.5 0.8 0.8 1.4c0.2 0.5 0.3 0.8 0.4 1.1q0.1 0.4 0.1 0.4 0 0-0.1-0.4-0.2-0.4-0.6-1c-0.2-0.4-0.5-0.8-0.8-1.3q-0.5-0.7-1.2-1.4c-0.8-0.9-1.7-1.7-2.5-2.2-0.8-0.6-1.3-0.8-1.3-0.8z"/>
					</g>
					<g>
						<path class="s4" d="m477.5 240.6c0 0 0.6 0.2 1.4 0.7 0.4 0.2 0.9 0.5 1.3 0.9q0.7 0.5 1.4 1.2 0.6 0.7 1.1 1.5 0.5 0.7 0.8 1.4c0.2 0.4 0.3 0.8 0.4 1q0.2 0.4 0.2 0.4 0 0-0.2-0.4-0.2-0.3-0.6-1c-0.2-0.4-0.5-0.8-0.8-1.3q-0.5-0.7-1.1-1.4c-0.9-0.9-1.8-1.7-2.6-2.2-0.7-0.5-1.3-0.8-1.3-0.8z"/>
					</g>
					<g>
						<path class="s4" d="m480.1 263.6c0 0 0.4 0.5 0.8 1.3 0.2 0.4 0.5 0.9 0.6 1.5q0.3 0.8 0.5 1.8 0.1 0.9 0.1 1.8 0 0.9-0.1 1.6c-0.1 0.5-0.2 0.8-0.3 1.1q-0.1 0.4-0.1 0.4 0 0 0.1-0.4 0.1-0.4 0.1-1.1c0-0.5 0-1 0-1.6q0-0.9-0.1-1.8c-0.2-1.2-0.6-2.4-0.9-3.2-0.4-0.9-0.7-1.4-0.7-1.4z"/>
					</g>
					<g>
						<path class="s2" d="m451 218c0 0 0.1-0.7 0.2-1.8 0.1-0.5 0.3-1.1 0.5-1.7 0.2-0.6 0.4-1.3 0.7-1.9 0.2-0.3 0.4-0.6 0.6-0.9 0.2-0.3 0.4-0.5 0.6-0.8q0.3-0.3 0.7-0.6 0.4-0.3 0.7-0.5 0.4-0.2 0.6-0.3c0.2-0.1 0.4-0.1 0.6-0.1q0.4-0.1 0.4-0.1 0 0-0.4 0.1c-0.2 0.1-0.3 0.1-0.5 0.2q-0.3 0.1-0.6 0.3-0.3 0.2-0.7 0.5-0.3 0.3-0.6 0.7c-0.2 0.2-0.4 0.5-0.6 0.8-0.2 0.3-0.4 0.5-0.5 0.8-0.3 0.6-0.6 1.3-0.8 1.9q-0.3 0.9-0.5 1.7c-0.3 1-0.4 1.7-0.4 1.7z"/>
					</g>
					<g>
						<path class="s2" d="m455.3 218.8c0 0 0.3-0.8 0.7-1.9 0.5-1.1 1.3-2.5 2.2-3.8 0.5-0.6 1-1.3 1.6-1.8 0.5-0.5 1.2-0.9 1.7-1.1 0.6-0.2 1.1-0.2 1.5-0.2 0.2 0 0.3 0.1 0.4 0.1q0.1 0 0.1 0 0 0-0.1 0c-0.1 0-0.2 0-0.4 0q-0.3 0-0.6 0-0.4 0.1-0.8 0.3c-1.1 0.4-2.2 1.6-3.2 2.9-0.9 1.2-1.7 2.6-2.2 3.7-0.6 1.1-0.9 1.8-0.9 1.8z"/>
					</g>
					<g>
						<path class="s2" d="m461.7 219.1c0 0 0-0.5 0.1-1.1 0.1-0.7 0.3-1.6 0.7-2.4q0.2-0.6 0.6-1.1c0.2-0.4 0.5-0.7 0.7-0.9 0.2-0.1 0.3-0.2 0.4-0.3q0.2-0.1 0.3-0.1 0.3-0.1 0.3-0.2 0 0.1-0.3 0.2-0.1 0.1-0.2 0.2-0.2 0.2-0.3 0.3-0.4 0.4-0.7 0.9-0.3 0.5-0.6 1.1c-0.3 0.8-0.6 1.7-0.7 2.3-0.2 0.6-0.3 1.1-0.3 1.1z"/>
					</g>
					<g>
						<path class="s2" d="m466.5 216.2c0 0 0.4 0.4 0.9 1.2 0.3 0.4 0.6 0.8 0.8 1.3q0.4 0.8 0.7 1.7 0.2 0.9 0.4 1.7 0.1 0.9 0.1 1.6c0.1 0.4 0.1 0.8 0 1.1q0 0.4 0 0.4 0 0 0-0.4 0-0.4-0.1-1.1c-0.1-0.4-0.2-1-0.3-1.5q-0.1-0.8-0.4-1.7c-0.4-1.2-0.9-2.2-1.3-3-0.4-0.8-0.8-1.3-0.8-1.3z"/>
					</g>
					<g>
						<path class="s2" d="m469.8 217.6c0 0 0.5 0.4 1 1.1 0.3 0.4 0.7 0.9 1 1.4q0.4 0.8 0.8 1.6 0.3 0.9 0.5 1.8c0.1 0.3 0.1 0.6 0.1 0.9 0 0.3 0 0.5 0 0.8q-0.1 0.7-0.2 1.1-0.1 0.4-0.1 0.4 0 0 0-0.4c0.1-0.1 0.1-0.3 0.1-0.5q0-0.3 0-0.6c0.1-0.3 0-0.5 0-0.8 0-0.3-0.1-0.5-0.1-0.8q-0.2-0.9-0.6-1.7c-0.4-1.2-1.1-2.3-1.6-3.1-0.5-0.7-0.9-1.2-0.9-1.2z"/>
					</g>
					<g>
						<path class="s3" d="m446.6 269.5l-1.9 1.5c3.8 4.1 7.8 8.2 10.9 12.8l1.4-0.8c-3.2-7.8-8.2-12-10.4-13.5z"/>
					</g>
					<g>
						<path class="s2" d="m456.7 260.5c0 0-0.7 0.7-1.8 1.7-1.1 1-2.6 2.3-4.1 3.7-1.5 1.3-3 2.6-4.1 3.5-1.2 1-2 1.6-2 1.6 0 0 0.8-0.7 1.8-1.7 1.1-1 2.6-2.3 4.1-3.7 1.5-1.3 3-2.6 4.2-3.5 1.1-1 1.9-1.6 1.9-1.6z"/>
					</g>
					<g>
						<path class="s2" d="m474.4 234.1c0 0-0.6 0.3-1.3 1-0.4 0.3-0.8 0.8-1.1 1.4-0.4 0.6-0.6 1.4-0.4 2.2 0.1 0.8 0.5 1.7 1.2 2.4 0.6 0.7 1.4 1.4 2 2.3 0.7 0.9 1.3 1.9 1.6 3 0.4 1 0.5 2.3 0.2 3.4q-0.3 0.9-0.9 1.5c-0.2 0.3-0.4 0.5-0.5 0.7 0 0.2 0 0.5 0.1 0.7 0.5 1.1 1.1 2 1.7 2.9 1.1 1.8 1.9 3.8 2 5.5 0.1 1.8-0.4 3.2-0.8 4.1q-0.3 0.7-0.5 1.1-0.2 0.3-0.2 0.3 0 0 0.2-0.4 0.2-0.3 0.5-1c0.1-0.5 0.3-1.1 0.5-1.7 0.1-0.7 0.2-1.5 0.1-2.4-0.1-1.7-0.9-3.6-2-5.4-0.5-0.9-1.2-1.8-1.7-2.9-0.1-0.2-0.2-0.5-0.1-0.9 0.1-0.3 0.3-0.5 0.5-0.7q0.5-0.7 0.8-1.5c0.3-1 0.2-2.2-0.1-3.3-0.3-1-0.9-2-1.5-2.8-0.6-0.9-1.4-1.6-2-2.4-0.7-0.7-1.2-1.6-1.3-2.5-0.1-0.9 0.1-1.7 0.5-2.3 0.4-0.6 0.8-1 1.2-1.4 0.7-0.6 1.3-0.9 1.3-0.9z"/>
					</g>
					<g>
						<path class="s2" d="m441.2 339.9c0 0-0.5-0.3-1.3-0.8-0.7-0.5-1.7-1.1-2.6-1.8-1-0.7-2-1.4-2.7-1.9-0.6-0.6-1.1-1-1.1-1 0 0 0.5 0.3 1.2 0.8 0.8 0.5 1.8 1.2 2.7 1.9 1 0.6 1.9 1.3 2.6 1.9 0.7 0.5 1.2 0.9 1.2 0.9z"/>
					</g>
				</g>
				<g>
					<path class="s2" d="m403.6 274.6c0 0 0.9 0.4 2.3 0.9 1.3 0.5 3.1 1.2 4.9 1.9 1.8 0.8 3.6 1.5 4.9 2.1 1.3 0.6 2.2 1 2.2 1 0 0-0.9-0.3-2.3-0.8-1.3-0.6-3.1-1.3-4.9-2-1.8-0.7-3.6-1.5-4.9-2.1-1.3-0.6-2.2-1-2.2-1z"/>
				</g>
				<g>
					<path class="s2" d="m394.4 270.4c0 0 0.2 0.1 0.5 0.1 0.4 0.1 0.8 0.2 1.1 0.4 0.4 0.1 0.8 0.3 1.1 0.4 0.3 0.2 0.5 0.3 0.5 0.3 0 0-0.2 0-0.5-0.1-0.4-0.1-0.8-0.2-1.1-0.4-0.4-0.1-0.8-0.3-1.1-0.4-0.3-0.2-0.5-0.3-0.5-0.3z"/>
				</g>
				<g>
					<path class="s2" d="m427.5 284.4c0 0 0.2 0.1 0.4 0.1 0.3 0.1 0.7 0.2 1 0.3 0.4 0.2 0.7 0.3 1 0.5 0.2 0.1 0.4 0.2 0.4 0.2 0 0-0.2 0-0.5-0.1-0.3-0.1-0.6-0.2-1-0.3-0.3-0.1-0.7-0.3-0.9-0.4-0.3-0.2-0.4-0.3-0.4-0.3z"/>
				</g>
			</g>
			<g>
				<path class="s2" d="m33 455.7c0 0 28.4-0.1 70.9-0.2 42.6-0.1 99.4-0.2 156.1-0.2 56.8 0 113.5 0.1 156.1 0.2 42.5 0.1 70.9 0.2 70.9 0.2 0 0-28.4 0.1-70.9 0.2-42.6 0.1-99.3 0.1-156.1 0.2-56.7-0.1-113.5-0.1-156.1-0.2-42.5-0.1-70.9-0.2-70.9-0.2z"/>
			</g>
			<g>
				<g>
					<path class="s3" d="m70.5 223.1c-3.7 3.3-4.1 9-1.3 10.3 2.7 1.3 2.2 8.3 8.5 5.4 6.4-3 19.5-9.6 18.1-17.1-1.5-7.4 4.8-9.3-5.1-10.5-10-1.3-17.2 9.1-20.2 11.9z"/>
				</g>
				<g>
					<g>
						<path class="s16" d="m174.5 275.2l-56.9-5.3c1.3-5.7 1.3-12.2 2.5-18l61.3 12.5"/>
					</g>
					<g>
						<path class="s2" d="m112 269c-8.6-2-19.7-12.8-16.7-20.9 1-2.5 4.6-0.9 7.3-0.2l17.7 4.1c-1.2 5.7-1.2 12.3-2.5 17.9 0 0-3-0.2-5.8-0.9z"/>
					</g>
					<g>
						<path class="s7" d="m117.6 251.3c0 0-0.2 1.1-0.4 2.9-0.2 1.7-0.5 3.9-0.8 6.2-0.3 2.3-0.6 4.5-0.9 6.2-0.3 1.7-0.4 2.9-0.4 2.9 0 0 0.1-1.2 0.3-2.9 0.2-1.7 0.5-4 0.8-6.2 0.3-2.3 0.6-4.6 0.9-6.3 0.3-1.7 0.5-2.8 0.5-2.8z"/>
					</g>
					<g>
						<path class="s16" d=""/>
						<path class="s16" d="m172 273.3c-0.8 3.1 1.5 4.4 2.2 4.7 1.1 0.5 1.7-0.1 1.7-0.1 0 0 0.4 1.4 1.5 1.2 1.1-0.1 1.2-1.7 1.2-1.7 0 0 0.3 1 1.4 0.9 1.6-0.2 0.9-2 0.9-2 0 0 0.4 1.2 1.2 1.1 1.6-0.3 2.3-2.1 1.4-7.3 0 0 0.6 6.1 2.7 5.9 2.1-0.2 1.2-9.9-5.1-11.6"/>
						<path class="s16" d="m171.6 268.6c0 0-0.4 8.1 3 8.4 3.5 0.4 9.9-0.1 7.9-7.4-1.8-6.5-10.9-1-10.9-1z"/>
					</g>
					<g>
						<path class="s2" d="m183.5 270.1c0 0 0.1 0.2 0.2 0.6 0.1 0.3 0.2 0.8 0.3 1.3 0 0.5 0.1 1 0.1 1.4 0 0.3 0 0.6 0 0.6 0 0-0.1-0.3-0.2-0.6 0-0.4-0.1-0.9-0.2-1.3-0.1-0.5-0.2-1-0.2-1.4 0-0.4 0-0.6 0-0.6z"/>
					</g>
				</g>
				<g>
					<path class="s10" d="m131.9 217.4h62.7c1.4 0 2.5 1.1 2.5 2.6v49.7h-67.7v-49.7c0-1.4 1.1-2.6 2.5-2.6z"/>
					<path class="s7" d="m132.7 217.4h62.6c1.4 0 2.6 1.1 2.6 2.6v49.7h-67.8v-49.7c0-1.4 1.1-2.6 2.6-2.6z"/>
					<path class="s0" d="m196.5 221.3v44.8h-65v-44.8z"/>
					<g style="opacity: .5">
						<g>
							<g>
								<path class="s11" d="m163.6 229.8h-4.7v-5.8h4.7z"/>
								<path class="s11" d="m163.6 230.9h-4.7v-0.4h4.7z"/>
							</g>
							<g>
								<path class="s11" d="m155.5 229.8h-4.7v-5.8h4.7z"/>
								<path class="s11" d="m155.5 230.9h-4.7v-0.4h4.7z"/>
							</g>
							<g>
								<path class="s11" d="m147.4 229.8h-4.7v-5.8h4.7z"/>
								<path class="s11" d="m147.4 230.9h-4.7v-0.4h4.7z"/>
							</g>
							<g>
								<path class="s11" d="m139.2 229.8h-4.6v-5.8h4.6z"/>
								<path class="s11" d="m139.2 230.9h-4.6v-0.4h4.6z"/>
							</g>
						</g>
						<g>
							<g>
								<path class="s11" d="m163.6 239.6h-4.7v-5.8h4.7z"/>
								<path class="s11" d="m163.6 240.7h-4.7v-0.4h4.7z"/>
							</g>
							<g>
								<path class="s11" d="m155.5 239.6h-4.7v-5.8h4.7z"/>
								<path class="s11" d="m155.5 240.7h-4.7v-0.4h4.7z"/>
							</g>
							<g>
								<path class="s11" d="m147.4 239.6h-4.7v-5.8h4.7z"/>
								<path class="s11" d="m147.4 240.7h-4.7v-0.4h4.7z"/>
							</g>
							<g>
								<path class="s11" d="m139.2 239.6h-4.6v-5.8h4.6z"/>
								<path class="s11" d="m139.2 240.7h-4.6v-0.4h4.6z"/>
							</g>
						</g>
						<g>
							<g>
								<path class="s11" d="m163.6 249.4h-4.7v-5.8h4.7z"/>
								<path class="s11" d="m163.6 250.5h-4.7v-0.4h4.7z"/>
							</g>
							<g>
								<path class="s11" d="m155.5 249.4h-4.7v-5.8h4.7z"/>
								<path class="s11" d="m155.5 250.5h-4.7v-0.4h4.7z"/>
							</g>
							<g>
								<path class="s11" d="m147.4 249.4h-4.7v-5.8h4.7z"/>
								<path class="s11" d="m147.4 250.5h-4.7v-0.4h4.7z"/>
							</g>
							<g>
								<path class="s11" d="m139.2 249.4h-4.6v-5.8h4.6z"/>
								<path class="s11" d="m139.2 250.5h-4.6v-0.4h4.6z"/>
							</g>
						</g>
					</g>
					<path class="s11" d="m196.5 263.8v2.3h-65v-2.3z"/>
					<path class="s12" d="m137.4 263.8v2.3h-5.9v-2.3z"/>
					<path class="s7" d="m129.4 274.8h102.2c1.8 0 3.2-1.4 3.2-3.2v-1.9h-105.4z"/>
					<path class="s10" d="m129.4 274.8h34.2c1.8 0 3.2-1.4 3.2-3.2v-1.9h-37.4z"/>
					<g>
						<path class="s2" d="m234.6 270.7c0 0-6.6 0.1-16.5 0.1-9.8 0-23 0.1-36.1 0.1-13.2 0-26.3-0.1-36.2-0.1-9.8 0-16.4-0.1-16.4-0.1 0 0 6.6 0 16.4 0 9.9-0.1 23-0.1 36.2-0.1 13.1 0 26.3 0 36.1 0.1 9.9 0 16.5 0 16.5 0z"/>
					</g>
					<path class="s2" d="m158.7 273.2h4.2c0.3 0 0.6-0.3 0.6-0.6v-0.1c0-0.3-0.3-0.6-0.6-0.6h-4.2c-0.3 0-0.6 0.3-0.6 0.6v0.1c0 0.3 0.3 0.6 0.6 0.6z"/>
					<path class="s2" d="m152 273.2h4.2c0.3 0 0.6-0.3 0.6-0.6v-0.1c0-0.3-0.3-0.6-0.6-0.6h-4.2c-0.3 0-0.6 0.3-0.6 0.6v0.1c0 0.3 0.3 0.6 0.6 0.6z"/>
					<path class="s2" d="m145.3 273.2h4.1c0.3 0 0.6-0.3 0.6-0.6v-0.1c0-0.3-0.3-0.6-0.6-0.6h-4.2c-0.3 0-0.5 0.3-0.5 0.6v0.1c0 0.3 0.2 0.6 0.5 0.6z"/>
					<path class="s10" d="m169.6 272.6h23.7c-0.4 1.3-1.5 2.2-2.8 2.2h-23.8c1.4 0 2.5-0.9 2.9-2.2z"/>
					<path class="s10" d="m209.3 272.6h23.8c-0.4 1.3-1.6 2.2-2.9 2.2h-23.7c1.3 0 2.4-0.9 2.8-2.2z"/>
					<g>
						<path class="s2" d="m204.9 270.7q-0.3 1-0.6 1.9 0 0 0 0-3.8 0.1-7.5 0-0.1 0-0.1 0-0.3-0.9-0.7-1.9 0.5 0.9 0.9 1.8h-0.1q3.7-0.1 7.5 0h-0.1q0.3-0.9 0.7-1.8z"/>
					</g>
					<g>
						<path class="s2" d="m197.9 269.7c0 0-4.3 0.1-10.7 0.1-6.5 0-15 0.1-23.6 0.1-8.5 0-17.1-0.1-23.5-0.1-6.4 0-10.7-0.1-10.7-0.1 0 0 4.3 0 10.7 0 6.4 0 15-0.1 23.5-0.1 8.6 0 17.1 0.1 23.6 0.1 6.4 0 10.7 0 10.7 0z"/>
					</g>
					<path fill-rule="evenodd" class="s13" d="m163.3 219.1c0 0.4 0.3 0.7 0.7 0.7 0.4 0 0.7-0.3 0.7-0.7 0-0.5-0.3-0.8-0.7-0.8-0.4 0-0.7 0.3-0.7 0.8z"/>
				</g>
				<g>
					<path class="s17" d="m39 434.1l-4.3 6.6 26.2 12.7c0 0-0.3-3.9-6.9-8.8 0.9-2.6 0.9-2.6 0.9-2.6z"/>
					<path class="s18" d="m34.5 440.6l26.4 12.8-1.1 2.2-26.3-12.7z"/>
					<g>
						<path class="s2" d="m36.7 437.5c0 0 0.3 0.2 0.6 0.5 0.4 0.3 0.9 0.8 1.1 1.5 0.1 0.3 0.2 0.6 0.2 0.9q0 0.3 0 0.5 0 0.2-0.1 0.4c-0.1 0.5-0.3 0.7-0.3 0.7 0 0 0.1-0.3 0.2-0.8 0-0.4 0-1.1-0.2-1.6-0.3-0.6-0.7-1.1-1-1.5-0.3-0.3-0.5-0.6-0.5-0.6z"/>
					</g>
					<g>
						<path class="s2" d="m52.9 440.5q-0.9 2.3-2 4.5l-0.1-0.1q1.8 0.8 3.4 1.8c1 0.8 2 1.6 2.8 2.6-0.9-0.9-1.9-1.7-3-2.4q-1.6-1-3.3-1.8c0 0-0.1-0.1 0-0.2q1.1-2.2 2.2-4.4z"/>
					</g>
					<g>
						<path class="s2" d="m58.4 448.4c0 0-0.2 0.1-0.4 0.3-0.3 0.2-0.7 0.4-1 0.7-0.3 0.2-0.6 0.5-0.8 0.8-0.3 0.2-0.4 0.3-0.4 0.3q0 0 0.1-0.1 0-0.1 0.2-0.3 0.1-0.3 0.3-0.5 0.2-0.2 0.5-0.4c0.3-0.3 0.7-0.5 1-0.6 0.3-0.2 0.5-0.2 0.5-0.2z"/>
					</g>
				</g>
				<g>
					<path class="s17" d="m118.9 445.2l-0.4 7.8 29.1-2.3c0 0-2.3-3.2-10.4-4-0.5-2.7-0.5-2.7-0.5-2.7z"/>
					<path class="s18" d="m118.4 453l29.2-2.3 0.2 2.5-29.2 2.3z"/>
					<g>
						<path class="s2" d="m118.7 449.3c0 0 0.3 0 0.8 0.1 0.5 0 1.1 0.3 1.6 0.7 0.3 0.2 0.5 0.4 0.7 0.7q0.1 0.2 0.2 0.4 0.1 0.2 0.2 0.4c0.1 0.5 0 0.8 0 0.8 0 0 0-0.3-0.2-0.8-0.2-0.4-0.5-0.9-1-1.3-0.5-0.4-1.1-0.6-1.6-0.8-0.4-0.1-0.7-0.2-0.7-0.2z"/>
					</g>
					<g>
						<path class="s2" d="m134.2 443.6q0.3 2.5 0.5 5l-0.1-0.1q1.9-0.2 3.8-0.1c1.3 0.1 2.6 0.3 3.7 0.7-1.2-0.3-2.4-0.4-3.7-0.5q-1.9 0-3.8 0.1c-0.1 0-0.1 0-0.1-0.1q-0.2-2.5-0.3-5z"/>
					</g>
					<g>
						<path class="s2" d="m142.9 447.7c0 0-0.1 0.2-0.2 0.5-0.2 0.3-0.3 0.6-0.5 1-0.1 0.4-0.2 0.8-0.3 1.1-0.1 0.3-0.2 0.5-0.2 0.5q0 0 0-0.1 0-0.2 0-0.4 0-0.3 0.1-0.6 0.1-0.3 0.2-0.6c0.1-0.4 0.3-0.8 0.5-1 0.2-0.3 0.4-0.4 0.4-0.4z"/>
					</g>
				</g>
				<path class="s19" d="m77.2 308l-6.6 65.9-35.5 60.8 24.2 11.6 31.2-60.7c4-6.6 6.5-13.9 7.4-21.6l3.3-24.2 15.1 106.9 23.9-2.3-20.8-136.4z"/>
				<g>
					<path class="s2" d="m40.3 425.4c0 0 1.5 0.7 3.7 1.7 2.2 1 5.2 2.5 8.2 3.9 2.9 1.4 5.8 2.8 8 3.9 2.2 1.1 3.7 1.9 3.7 1.9 0 0-1.5-0.7-3.7-1.7-2.3-1.1-5.2-2.5-8.2-3.9-2.9-1.4-5.8-2.9-8-4-2.2-1.1-3.7-1.8-3.7-1.8z"/>
				</g>
				<g>
					<path class="s2" d="m115.1 436.6c0 0 1.5-0.1 3.7-0.3 2.2-0.2 5.2-0.5 8.1-0.7 3-0.3 5.9-0.5 8.1-0.6 2.3-0.2 3.7-0.2 3.7-0.2 0 0-1.4 0.1-3.6 0.3-2.3 0.2-5.2 0.5-8.2 0.7-2.9 0.3-5.9 0.5-8.1 0.6-2.2 0.2-3.7 0.2-3.7 0.2z"/>
				</g>
				<g>
					<path class="s2" d="m81.7 313.5l-3 29.3-3 29.3q0 0 0 0l-30.8 55.5 30.5-55.6 3.1-29.2z"/>
				</g>
				<g>
					<path class="s2" d="m80.3 326c0 0 1.2 0.2 3 0 0.4 0 0.9-0.1 1.4-0.2 0.5-0.1 1.1-0.3 1.6-0.5 0.5-0.2 1.1-0.4 1.5-0.7q0.4-0.3 0.8-0.5l0.7-0.6q0.3-0.3 0.6-0.7l0.5-0.7q0.5-0.7 0.9-1.5 0.3-0.8 0.5-1.5c0.2-0.5 0.2-1 0.3-1.4q0.1-0.4 0.2-0.7 0-0.3 0-0.5 0.1-0.6 0.1-1c0.1-0.5 0.1-0.8 0.1-0.8 0 0 0 0.3 0 0.8q-0.1 0.4-0.1 1 0 0.2 0 0.6 0 0.3-0.1 0.6c-0.1 0.5-0.2 0.9-0.3 1.5q-0.2 0.7-0.5 1.5-0.4 0.8-0.9 1.6l-0.5 0.7q-0.3 0.4-0.7 0.7l-0.7 0.6q-0.3 0.2-0.7 0.5c-0.5 0.3-1.1 0.5-1.6 0.8-0.6 0.1-1.1 0.3-1.6 0.4-0.5 0.1-1 0.2-1.5 0.2-0.9 0.1-1.7 0-2.2 0-0.5-0.1-0.8-0.2-0.8-0.2z"/>
				</g>
				<g>
					<path class="s2" d="m101.1 315.4c0.7 5.5 1.4 11 2.1 16.6l-0.1-0.2h3.1l-0.2 0.2c-0.6-5.5-1.3-11-1.8-16.6 0.8 5.5 1.4 11 2.1 16.5 0 0.1 0 0.2-0.1 0.2h-3.1q-0.2 0-0.2-0.1c-0.6-5.5-1.3-11-1.8-16.6z"/>
				</g>
				<g>
					<path class="s2" d="m113.5 316q0 0 0.1 0.5 0.1 0.4 0.4 1.2c0.1 0.2 0.2 0.5 0.3 0.8q0.2 0.4 0.5 0.8c0.1 0.3 0.4 0.6 0.6 0.8 0.2 0.3 0.4 0.6 0.7 0.8l0.4 0.3q0.2 0.1 0.5 0.2c0.2 0.2 0.6 0.3 0.9 0.4 0.3 0.1 0.6 0.1 0.9 0.2 0.3 0 0.6 0 0.8 0 0.3 0 0.6 0 0.8 0q0.3-0.1 0.5-0.1 0.5-0.1 0.5-0.1 0 0-0.5 0.1-0.2 0.1-0.5 0.2c-0.2 0-0.5 0-0.7 0.1-0.3 0-0.6 0-0.9 0-0.3-0.1-0.7 0-1-0.2-0.3-0.1-0.7-0.1-1-0.3q-0.2-0.2-0.4-0.3l-0.5-0.3c-0.3-0.2-0.5-0.5-0.7-0.8-0.2-0.3-0.5-0.6-0.6-0.9q-0.3-0.4-0.5-0.8c-0.1-0.3-0.2-0.6-0.3-0.8-0.3-1.1-0.3-1.8-0.3-1.8z"/>
				</g>
				<g>
					<path class="s2" d="m101.1 339.8c0 0 0.5-0.3 1.4-0.6 0.8-0.3 2-0.7 3.1-1.1 1.2-0.4 2.3-0.8 3.2-1 0.8-0.3 1.4-0.5 1.4-0.5 0 0-0.5 0.3-1.4 0.6-0.8 0.3-2 0.7-3.1 1.1-1.1 0.4-2.3 0.8-3.2 1-0.8 0.3-1.4 0.5-1.4 0.5z"/>
				</g>
				<path class="s16" d="m90.4 250.2l-3.9 10.1-9.2-9-2-23.6 13-1.1z"/>
				<path class="s2" d="m87.1 241.1l2.4-0.3 0.2 2z"/>
				<path class="s16" d="m95.7 232.7c0.4 4.2-2.8 7.9-7 8.2l-4.5 0.4c-4.2 0.4-8-2.7-8.4-6.9l-1.3-15.1c-0.3-4.3 2.8-8 7.1-8.4l4.4-0.4c4.3-0.4 8 2.8 8.4 7.1z"/>
				<path class="s2" d="m85.2 225.7c0 0.6-0.2 1.1-0.5 1.2-0.4 0-0.7-0.5-0.7-1.1-0.1-0.6 0.2-1.1 0.5-1.1 0.3 0 0.6 0.4 0.7 1z"/>
				<path class="s2" d="m94.8 224.9c0 0.6-0.2 1.1-0.5 1.1-0.4 0.1-0.7-0.4-0.7-1-0.1-0.6 0.1-1.1 0.5-1.2 0.3 0 0.6 0.5 0.7 1.1z"/>
				<g>
					<path class="s2" d="m90.7 224.5c0 0 0 0.5 0.2 1.2 0 0.4 0.1 0.8 0.2 1.3 0.1 0.2 0.2 0.4 0.4 0.5q0.1 0.2 0.2 0.2c0 0 0.2-0.1 0.4 0 0.3 0 0.5 0.2 0.6 0.5q0.2 0.4 0.2 0.7c0 0.5-0.2 1-0.4 1.3-0.6 0.6-1.2 0.6-1.1 0.6-0.1 0 0.5-0.1 0.9-0.7 0.2-0.3 0.4-0.7 0.4-1.2 0-0.4-0.2-0.9-0.7-1-0.1 0-0.1 0-0.3 0-0.2 0-0.4-0.1-0.4-0.2-0.2-0.2-0.3-0.4-0.4-0.7-0.1-0.4-0.2-0.9-0.2-1.3-0.1-0.7 0-1.2 0-1.2z"/>
				</g>
				<g>
					<path class="s2" d="m82.7 224.7c0 0 0.1-0.2 0.3-0.4 0.1-0.2 0.4-0.3 0.7-0.4 0.3-0.1 0.6-0.1 0.9 0 0.2 0.1 0.3 0.2 0.3 0.2 0 0-0.2 0-0.4 0-0.2 0-0.5 0-0.7 0-0.6 0.2-1.1 0.6-1.1 0.6z"/>
				</g>
				<g>
					<path class="s2" d="m92.7 223.8c0 0 0-0.2 0.2-0.3 0.1-0.2 0.4-0.4 0.7-0.5 0.3-0.1 0.7 0 0.9 0.1 0.2 0.1 0.3 0.2 0.3 0.2 0 0-0.1-0.1-0.3-0.1-0.3 0-0.5 0-0.8 0.1-0.5 0.1-1 0.5-1 0.5z"/>
				</g>
				<g>
					<path fill-rule="evenodd" class="s2" d="m90.5 233.8c-0.1 0.2-0.1 0.3-0.2 0.4q-0.2 0.2-0.5 0.3-0.2 0.1-0.5 0.1-0.2 0-0.5 0-0.5-0.2-0.8-0.5-0.4-0.3-0.8-0.7c0-0.1 0-0.2 0.1-0.2q0-0.1 0.1-0.1c1 0.2 2.1 0.4 3.1 0.7zm0 0q-1.4-0.1-2.8-0.3c0.4 0.3 0.8 0.7 1.2 0.8q0.2 0.1 0.5 0.1 0.2 0.1 0.4 0 0.2-0.1 0.4-0.2c0.1-0.1 0.2-0.3 0.3-0.4zm-2.8-0.3q-0.1-0.2-0.2-0.3l-0.2 0.2q0.2 0 0.4 0.1z"/>
				</g>
				<g>
					<path class="s2" d="m72.7 249.8c1.7-0.8 3.4-1.4 4.5-1.8 4.4 0.9 12.2 0 13.1-1.9 7.9 0.1 15.7 2.6 15.7 2.6l15.6 66.5-46.8 4.6-10.2-55.4c-1.1-6.2 2.3-12.3 8.1-14.7z"/>
				</g>
				<g>
					<path class="s2" d="m107.5 257.4c0 0 0.3 1 0.7 2.5 0.4 1.5 0.9 3.4 1.4 5.4 0.5 2 0.9 4 1.3 5.5 0.3 1.5 0.5 2.6 0.5 2.6 0 0-0.3-1-0.7-2.5-0.4-1.5-0.9-3.5-1.4-5.5-0.5-2-1-4-1.3-5.5-0.3-1.5-0.5-2.5-0.5-2.5z"/>
				</g>
				<path class="s20" d="m85.6 231.1c0.1 0.6-0.6 1.2-1.6 1.3-1 0-1.8-0.4-1.8-1-0.1-0.7 0.6-1.2 1.6-1.3 1-0.1 1.8 0.3 1.8 1z"/>
				<g>
					<g id="Clip-Path" clip-path="url(#cp3)">
						<path class="s20" d="m97 230.1c0 0.6-0.7 1.2-1.7 1.3-0.9 0.1-1.8-0.4-1.8-1-0.1-0.6 0.7-1.2 1.6-1.3 1-0.1 1.8 0.4 1.9 1z"/>
					</g>
				</g>
				<g>
					<path class="s7" d="m76.4 248.6c0 0 0.2 0.2 0.7 0.4 0.4 0.2 1.1 0.5 1.9 0.6 1.6 0.4 3.9 0.6 6.1 0.5 1.1-0.1 2.2-0.2 3.2-0.4 1-0.3 2-0.6 2.6-1.1q0.5-0.4 0.7-0.9 0.2-0.4 0.2-0.8c0-0.5-0.1-0.8-0.1-0.8 0 0 0.2 0.3 0.2 0.8q0 0.4-0.2 0.9c-0.1 0.3-0.3 0.6-0.7 0.9-0.6 0.6-1.6 1-2.6 1.2-1 0.3-2.2 0.4-3.3 0.5-1.1 0-2.2 0-3.3-0.1-1-0.1-2-0.3-2.8-0.5-0.9-0.2-1.5-0.5-2-0.7-0.4-0.3-0.6-0.5-0.6-0.5z"/>
				</g>
				<path class="s16" d="m77.2 230.8c0.1 1.9-1.3 3.5-3.1 3.6-1.9 0.2-3.6-1.2-3.7-3-0.2-1.8 1.2-3.4 3.1-3.6 1.9-0.1 3.5 1.2 3.7 3z"/>
				<g>
					<path class="s2" d="m73.7 233.3c-0.3-0.2-0.5-0.4-0.6-0.7-0.1-0.3-0.1-0.6 0-0.9 0.2-0.6 0.8-1.1 1.4-1.2l-0.1 0.2q-0.1-0.4-0.4-0.7-0.2-0.4-0.6-0.5c-0.5-0.3-1.1-0.3-1.6 0 0.4-0.4 1.1-0.5 1.7-0.3 0.6 0.3 1 0.8 1.2 1.4 0 0.1 0 0.2-0.1 0.2-0.6 0.1-1.1 0.4-1.3 0.9q-0.1 0.4-0.1 0.8c0.1 0.3 0.2 0.6 0.5 0.8z"/>
				</g>
				<g>
					<g>
						<path class="s16" d="m150 273.1l-57.1 1.1c0.6-5.7-0.1-12.2 0.4-18.1l62.3 5.5"/>
					</g>
					<g>
						<path class="s2" d="m87.2 274c-8.8-0.9-21-10.5-18.9-18.8 0.6-2.7 4.4-1.4 7.1-1l18.1 2c-0.5 5.8 0.2 12.4-0.4 18.1 0 0-3 0.1-5.9-0.3z"/>
					</g>
					<g>
						<path class="s7" d="m90.7 255.8c0 0 0 1.2 0 2.9 0 1.7 0 4-0.1 6.3 0 2.3-0.1 4.5-0.2 6.3 0 1.7-0.1 2.8-0.1 2.8 0 0 0-1.1 0-2.8 0-1.8 0-4 0.1-6.3 0-2.3 0.1-4.6 0.2-6.3 0-1.7 0.1-2.9 0.1-2.9z"/>
					</g>
					<g>
						<path class="s16" d=""/>
						<path class="s16" d="m147.3 271.5c-0.4 3.1 2.8 6.7 3.5 7 1.2 0.4 1.7-0.3 1.7-0.3 0 0 0.6 1.3 1.6 1.1 1.1-0.3 1-1.9 1-1.9 0 0 0.5 1 1.5 0.7 1.6-0.4 0.7-2 0.7-2 0 0 2.2 4.2 3 4 1.5-0.4-0.4-8-1.9-13.2 0 0 1.1 5.2 3.2 4.8 2.1-0.5-2.5-10.2-6.3-10.1"/>
						<path class="s16" d="m146.4 266.8c0 0 1.3 10.7 4.7 10.7 3.5 0 11.9 0.4 6.2-10.9-3-6.1-10.9 0.2-10.9 0.2z"/>
						<g>
							<path class="s2" d="m156.5 274.5c0 0 0.1 0.2 0.2 0.4 0.2 0.2 0.3 0.5 0.5 0.8 0.1 0.4 0.3 0.7 0.4 0.9 0.1 0.2 0.2 0.4 0.2 0.4 0 0-0.1-0.1-0.3-0.3-0.2-0.2-0.4-0.5-0.6-0.8-0.1-0.4-0.3-0.7-0.3-1-0.1-0.2-0.1-0.4-0.1-0.4z"/>
						</g>
						<g>
							<path class="s2" d="m153.8 275c0 0 0.1 0.1 0.2 0.4 0.2 0.2 0.4 0.6 0.5 0.9 0.2 0.4 0.4 0.7 0.6 0.9 0.1 0.3 0.2 0.5 0.2 0.5 0 0-0.1-0.1-0.4-0.4-0.2-0.2-0.4-0.5-0.6-0.8-0.2-0.4-0.4-0.8-0.4-1-0.1-0.3-0.1-0.5-0.1-0.5z"/>
						</g>
						<g>
							<path class="s2" d="m151.2 276c0 0 0.2 0.1 0.3 0.4 0.2 0.2 0.3 0.5 0.5 0.8 0.2 0.4 0.4 0.7 0.5 0.9 0.1 0.3 0.2 0.4 0.2 0.4 0 0-0.1-0.1-0.3-0.3-0.2-0.2-0.4-0.5-0.6-0.8-0.2-0.4-0.4-0.7-0.4-1-0.1-0.2-0.2-0.4-0.2-0.4z"/>
						</g>
					</g>
					<g>
						<path class="s2" d="m158.4 266.9c0 0 0.1 0.3 0.2 0.6 0.2 0.4 0.3 0.8 0.4 1.3 0.2 0.5 0.3 1 0.3 1.3 0.1 0.4 0.1 0.7 0.1 0.7 0 0-0.1-0.3-0.2-0.6-0.2-0.4-0.3-0.8-0.4-1.3-0.2-0.5-0.3-1-0.3-1.3-0.1-0.4-0.1-0.7-0.1-0.7z"/>
					</g>
				</g>
				<path class="s16" d="m174.5 274.5c0.4 1.1 0.2 2.2-0.6 2.4-0.7 0.3-1.6-0.4-1.9-1.4-0.4-1.1-0.2-2.2 0.6-2.4 0.7-0.3 1.6 0.4 1.9 1.4z"/>
				<path class="s16" d="m177.4 274.4c0.3 1.1 0.1 2.1-0.6 2.4-0.8 0.2-1.6-0.4-2-1.5-0.4-1.1-0.1-2.1 0.6-2.4 0.7-0.2 1.6 0.4 2 1.5z"/>
				<path class="s16" d="m180.4 274.6c0.4 1.1 0.1 2.2-0.6 2.4-0.7 0.3-1.6-0.4-2-1.4-0.4-1.1-0.1-2.2 0.6-2.4 0.7-0.3 1.6 0.4 2 1.4z"/>
				<path class="s16" d="m183.3 274.2c0.4 1.1 0.1 2.2-0.6 2.4-0.7 0.3-1.6-0.4-2-1.5-0.4-1-0.1-2.1 0.6-2.4 0.7-0.2 1.6 0.4 2 1.5z"/>
				<g>
					<path class="s2" d="m180.5 274.7c0 0 0.1 0.1 0.2 0.4 0.1 0.2 0.2 0.5 0.4 0.9 0.1 0.3 0.2 0.6 0.3 0.8 0.1 0.3 0.2 0.5 0.2 0.5 0 0-0.2-0.2-0.3-0.4-0.2-0.2-0.3-0.5-0.5-0.8-0.1-0.4-0.2-0.7-0.3-1 0-0.2 0-0.4 0-0.4z"/>
				</g>
				<g>
					<path class="s2" d="m177.5 274.8c0 0 0.1 0.2 0.2 0.5 0.1 0.2 0.3 0.6 0.4 1 0.2 0.3 0.3 0.7 0.5 0.9 0.1 0.3 0.1 0.5 0.1 0.5 0 0-0.1-0.1-0.3-0.4-0.2-0.2-0.4-0.6-0.5-0.9-0.2-0.4-0.3-0.8-0.3-1.1-0.1-0.3-0.1-0.5-0.1-0.5z"/>
				</g>
				<g>
					<path class="s2" d="m174.9 275.5c0 0 0.1 0.2 0.2 0.5 0.1 0.2 0.3 0.5 0.4 0.9 0.2 0.3 0.3 0.7 0.4 0.9 0.1 0.3 0.2 0.4 0.2 0.4 0 0-0.2-0.1-0.4-0.3-0.1-0.2-0.3-0.6-0.4-0.9-0.2-0.4-0.3-0.7-0.3-1-0.1-0.3-0.1-0.5-0.1-0.5z"/>
				</g>
				<g>
					<path class="s7" d="m80 254.7c0 0 0.9 0 2.1 0.1 1.3 0.1 3 0.3 4.7 0.5 1.6 0.2 3.3 0.4 4.6 0.6 1.2 0.1 2.1 0.3 2.1 0.3 0 0-0.9-0.1-2.1-0.2-1.3-0.1-3-0.3-4.7-0.4-1.7-0.2-3.3-0.4-4.6-0.6-1.3-0.2-2.1-0.3-2.1-0.3z"/>
				</g>
				<g>
					<path class="s7" d="m77.5 274.3c0 0 1 0 2.4-0.1 1.5 0 3.4 0 5.4-0.1 1.9 0.1 3.9 0.1 5.3 0.1 1.5 0.1 2.5 0.1 2.5 0.1 0 0-1 0-2.5 0.1-1.4 0-3.4 0-5.3 0-2 0-3.9 0-5.4 0-1.4-0.1-2.4-0.1-2.4-0.1z"/>
				</g>
				<g>
					<path class="s7" d="m105 251.9c0 0 0.2 0.3 0.5 0.8 0.2 0.5 0.6 1.2 0.9 1.9 0.3 0.7 0.6 1.4 0.8 1.9 0.2 0.5 0.3 0.9 0.3 0.9 0 0-0.2-0.3-0.5-0.8-0.2-0.5-0.6-1.2-0.9-1.9-0.3-0.7-0.6-1.4-0.8-1.9-0.2-0.5-0.3-0.9-0.3-0.9z"/>
				</g>
				<g>
					<path class="s3" d="m74.5 227.7c2.4 6.5 3.8 4.8 3.3-1.1-0.4-4.4 4.6-3.4 2.2-8.2-2.4-4.9 9.5 1.2 9.7-3 0.3-4.2 7.1 2.4 8.7-4.4 0.9-3.7-4.4-10.2-11.3-7.2-7 3-8.8-3.6-14.7 2.2-5.9 5.8 2.3 5.4-3.6 9.4-5.8 4 3 6.8 0.6 9.2-2.4 2.5 2 4 5.1 3.1z"/>
				</g>
				<g>
					<path class="s2" d="m86.1 233.9q0 0 0.1 0 0.1 0 0.3-0.1c0.3-0.1 0.6-0.3 0.7-0.6 0.2-0.3 0.3-0.6 0.2-0.9 0-0.3-0.1-0.5-0.1-0.5 0 0.1 0.2 0.2 0.3 0.5 0 0.1 0.1 0.3 0.1 0.5q-0.1 0.3-0.2 0.5c-0.3 0.4-0.6 0.6-0.9 0.6q-0.3 0.1-0.4 0-0.1 0-0.1 0z"/>
				</g>
				<g>
					<path class="s2" d="m78.2 213.5c0 0 0.9 0.4 2.4 0.8q0.6 0.1 1.2 0.2c0.5 0 0.9 0 1.4-0.1 0.4 0 0.9-0.3 1.2-0.5 0.4-0.4 0.5-0.8 0.8-1.3 0.2-0.5 0.6-0.9 1-1.2q0.6-0.4 1.3-0.7c1-0.3 1.9-0.5 2.6-0.5 0.8-0.1 1.4-0.1 1.9-0.1 0.4 0.1 0.7 0.1 0.7 0.1 0 0-1-0.1-2.6 0.1-0.7 0.1-1.6 0.3-2.5 0.6q-0.6 0.3-1.2 0.7c-0.4 0.3-0.8 0.7-1 1.1-0.2 0.5-0.4 1-0.8 1.3-0.4 0.4-0.9 0.6-1.4 0.7-0.5 0.1-1 0-1.4 0q-0.7-0.1-1.2-0.3c-0.8-0.2-1.4-0.4-1.8-0.6-0.4-0.2-0.6-0.3-0.6-0.3z"/>
				</g>
				<g>
					<path class="s2" d="m83.1 207.8q0 0 0.4 0.1c0.2 0.1 0.4 0.1 0.6 0.2q0.3 0 0.7 0.1 0.4 0 0.8 0c0.3-0.1 0.7-0.1 1-0.2q0.4-0.1 0.9-0.3c0.4-0.1 0.7-0.3 1-0.4 0.6-0.4 1.3-0.7 1.9-1 0.3-0.1 0.6-0.3 0.9-0.3 0.3-0.1 0.6-0.1 0.9-0.1 0.3 0 0.5 0.1 0.7 0.2 0.2 0.1 0.4 0.2 0.5 0.3q0.3 0.3 0.4 0.3-0.1 0-0.4-0.3c-0.1-0.1-0.3-0.1-0.5-0.2-0.2-0.1-0.5-0.1-0.7-0.2-0.3 0.1-0.5 0.1-0.8 0.2-0.3 0.1-0.6 0.2-0.9 0.3-0.6 0.3-1.2 0.7-1.9 1-0.3 0.2-0.6 0.3-1 0.4q-0.5 0.2-1 0.4c-0.3 0.1-0.6 0.1-1 0.1q-0.4 0-0.8 0-0.4-0.1-0.8-0.2c-0.2-0.1-0.3-0.2-0.5-0.2q-0.4-0.2-0.4-0.3z"/>
				</g>
				<g>
					<path class="s2" d="m75.6 215.2q0 0-0.3 0.4c-0.1 0.3-0.3 0.7-0.6 1.1q-0.2 0.3-0.5 0.7c-0.1 0.1-0.1 0.2-0.1 0.3q0 0.2 0.2 0.3c0.5 0.5 1 0.9 1.5 1.4 0.5 0.5 0.9 1.1 1.1 1.8 0.3 0.6 0.3 1.3 0.1 1.8-0.1 0.5-0.5 0.8-0.7 1-0.2 0.2-0.4 0.3-0.4 0.3 0 0 0.7-0.4 1-1.4 0.1-0.5 0.1-1.1-0.2-1.7-0.2-0.5-0.6-1.1-1.1-1.6-0.5-0.5-1-0.9-1.4-1.4-0.2-0.1-0.3-0.2-0.3-0.4-0.1-0.3 0.1-0.4 0.1-0.6q0.3-0.3 0.6-0.6c0.6-0.8 1-1.4 1-1.4z"/>
				</g>
				<g>
					<path class="s2" d="m71.8 215.2q0 0-0.3 0.4-0.3 0.4-0.7 1.1-0.2 0.4-0.3 0.9c-0.1 0.2-0.1 0.6-0.1 0.9 0.1 0.6 0.6 1.2 1.1 1.7 0.3 0.3 0.5 0.5 0.7 0.9 0.2 0.3 0.3 0.7 0.3 1 0.1 0.7 0 1.4-0.1 1.9-0.3 1.1-0.6 1.8-0.6 1.8 0 0 0.2-0.7 0.4-1.8 0.1-0.5 0.1-1.2 0.1-1.8-0.1-0.4-0.1-0.7-0.3-1-0.1-0.1-0.2-0.3-0.3-0.4l-0.4-0.4c-0.5-0.5-1-1.1-1.1-1.9-0.1-0.7 0.2-1.4 0.5-1.8 0.3-0.5 0.6-0.9 0.8-1.1q0.3-0.4 0.3-0.4z"/>
				</g>
				<g>
					<path class="s3" d="m84.1 205c0 0 0.5-0.5 1.3-1 0.8-0.5 2-1.1 3.3-1.4 0.6-0.1 1.2-0.2 1.8-0.2q0.5 0 0.9 0 0.4 0 0.8 0.1c0.5 0.1 0.9 0.2 1.1 0.3q0.4 0.1 0.5 0.1-0.1 0-0.5-0.1-0.4-0.1-1.1-0.1-0.4-0.1-0.8-0.1-0.4 0-0.8 0-0.9 0.1-1.9 0.3c-0.6 0.1-1.2 0.3-1.7 0.6-0.6 0.2-1.1 0.4-1.5 0.7-0.9 0.4-1.4 0.8-1.4 0.8z"/>
				</g>
				<g>
					<path class="s3" d="m71.2 209.6c0 0 0-0.5 0.1-1.3 0.1-0.3 0.1-0.8 0.3-1.2q0.2-0.7 0.6-1.4c0.3-0.4 0.6-0.8 1-1.1q0.2-0.3 0.5-0.5 0.3-0.2 0.5-0.3c0.4-0.2 0.7-0.3 0.9-0.3q0.3-0.1 0.3-0.1 0 0-0.3 0.1-0.3 0.1-0.8 0.5-0.2 0.1-0.5 0.3-0.2 0.2-0.5 0.5c-0.3 0.3-0.6 0.7-0.8 1.1q-0.4 0.6-0.7 1.3-0.2 0.6-0.4 1.2c-0.1 0.7-0.2 1.2-0.2 1.2z"/>
				</g>
				<g>
					<path class="s3" d="m67.1 228.5c0 0 0-0.5 0.2-1.2 0.1-0.7 0.5-1.6 1-2.4 0.2-0.2 0.3-0.4 0.5-0.5q0.3-0.3 0.5-0.5 0.3-0.2 0.6-0.4 0.3-0.1 0.5-0.2c0.3-0.2 0.6-0.2 0.8-0.3q0.4 0 0.4 0 0 0-0.3 0.1-0.3 0.1-0.8 0.3-0.3 0.1-0.5 0.3-0.3 0.2-0.5 0.4-0.3 0.2-0.5 0.4c-0.2 0.2-0.3 0.4-0.4 0.6-0.6 0.7-0.9 1.6-1.2 2.3-0.2 0.6-0.3 1.1-0.3 1.1z"/>
				</g>
				<g>
					<path class="s2" d="m69.6 382.9c0 0 0.8 1 2.1 2.4 0.7 0.7 1.5 1.5 2.4 2.3q0.6 0.6 1.4 1.2c0.5 0.4 1 0.7 1.5 1.1q0.8 0.5 1.6 1c0.6 0.3 1.1 0.7 1.6 0.9 0.6 0.3 1.1 0.6 1.6 0.7 0.5 0.2 1 0.4 1.4 0.6q0.7 0.1 1.3 0.3c0.4 0.1 0.7 0.1 1 0.2 0.6 0 0.9 0.1 0.9 0.1 0 0-0.3-0.1-0.9-0.1-0.3 0-0.6 0-1-0.1q-0.6-0.1-1.3-0.3c-0.5-0.1-1-0.3-1.5-0.5-0.5-0.1-1-0.4-1.6-0.6-0.5-0.3-1.1-0.6-1.6-0.9q-0.9-0.5-1.7-1.1c-0.5-0.4-1-0.7-1.5-1.1q-0.7-0.6-1.4-1.2c-0.9-0.8-1.7-1.7-2.3-2.4-1.3-1.4-2-2.5-2-2.5z"/>
				</g>
				<g>
					<path class="s2" d="m76 368.1c0 0 1.3-0.2 3.3-0.4 1-0.1 2.1-0.2 3.4-0.2 1.2-0.1 2.5-0.1 3.9 0 0.6 0 1.3 0 2 0.1 0.6 0 1.3 0.1 1.9 0.2 0.6 0.1 1.2 0.2 1.8 0.3q0.8 0.2 1.5 0.4c0.5 0.1 0.9 0.3 1.3 0.4 0.4 0.1 0.7 0.3 1 0.4 0.5 0.2 0.8 0.4 0.8 0.4 0 0-0.3-0.2-0.8-0.4-0.3-0.1-0.6-0.2-1-0.3-0.4-0.1-0.8-0.3-1.3-0.4q-0.7-0.1-1.6-0.3-0.8-0.1-1.8-0.3c-0.6 0-1.2-0.1-1.9-0.1-0.6-0.1-1.3-0.1-1.9-0.1-2.7-0.1-5.3 0-7.3 0.1-2 0.1-3.3 0.2-3.3 0.2z"/>
				</g>
				<g>
					<path class="s2" d="m110.3 374.7c0 0 1.2-0.5 3-1 0.9-0.3 1.9-0.6 3.1-0.9 1.1-0.2 2.4-0.5 3.6-0.6 1.3-0.2 2.5-0.3 3.7-0.4 0.6 0 1.2 0.1 1.7 0.1 0.5 0 1 0.1 1.5 0.1 0.5 0.1 0.9 0.2 1.3 0.3q0.3 0.1 0.5 0.1 0.2 0.1 0.4 0.2c0.5 0.2 0.8 0.3 0.8 0.3 0 0-0.3-0.1-0.8-0.3q-0.2 0-0.4-0.1-0.3-0.1-0.5-0.1c-0.4-0.1-0.8-0.2-1.3-0.2-0.5-0.1-1-0.1-1.5-0.1-0.5 0-1.1-0.1-1.7 0-1.2 0-2.4 0.2-3.6 0.3-1.3 0.2-2.5 0.4-3.7 0.7-1.1 0.2-2.2 0.5-3.1 0.7-1.8 0.5-3 0.9-3 0.9z"/>
				</g>
				<g>
					<path class="s2" d="m112.6 392.2c0 0 0.3 0.1 0.8 0.3 0.6 0.1 1.4 0.3 2.3 0.4 1 0.2 2.1 0.4 3.3 0.5q0.9 0 1.9 0c0.6 0.1 1.3 0 1.9 0q1 0 1.9-0.2c0.7-0.1 1.3-0.2 1.9-0.3 0.5-0.2 1.1-0.3 1.6-0.5 0.5-0.3 1-0.4 1.5-0.6q0.6-0.4 1.1-0.7c0.3-0.2 0.6-0.4 0.8-0.6 0.5-0.3 0.8-0.5 0.8-0.5 0 0-0.3 0.2-0.7 0.6-0.3 0.1-0.5 0.4-0.8 0.6q-0.5 0.3-1.2 0.7c-0.4 0.2-0.9 0.4-1.4 0.7-0.5 0.2-1.1 0.3-1.7 0.5-0.6 0.2-1.2 0.3-1.8 0.4q-1 0.1-2 0.2c-0.6 0-1.3 0.1-1.9 0q-1 0-1.9-0.1c-1.2-0.1-2.3-0.3-3.3-0.5-1.9-0.4-3.1-0.9-3.1-0.9z"/>
				</g>
				<g>
					<path class="s2" d="m106.7 338.2c0 0 0.7 6.1 1.9 15.3 1.1 9.2 2.6 21.5 4 33.8 1.5 12.3 2.9 24.6 4 33.8 1 9.2 1.7 15.3 1.7 15.3 0 0-0.7-6.1-1.9-15.3-1.1-9.2-2.6-21.5-4-33.8-1.5-12.2-2.9-24.5-4-33.7-1-9.3-1.7-15.4-1.7-15.4z"/>
				</g>
			</g>
			<g>
				<path class="s3" d="m163.2 174.7h-10.9c-2.8 0-5 2.2-5 5v5.1h20.9v-5.1c0-2.8-2.2-5-5-5z"/>
			</g>
			<g>
				<path class="s3" d="m206.2 232.9h-58.9v-48.1h50.8c4.4 0 8.1 3.6 8.1 8.1 0 0 0 40 0 40z"/>
			</g>
			<g>
				<path class="s3" d="m388.3 232.9h-58.9v-48.1h50.8c4.5 0 8.1 3.6 8.1 8.1z"/>
			</g>
			<g>
				<path class="s3" d="m345.3 174.7h-10.8c-2.8 0-5.1 2.2-5.1 5v5.1h21v-5.1c0-2.8-2.3-5-5.1-5z"/>
			</g>
			<g>
				<path class="s11" d="m197.1 210.4h-38.7v-45.4c2.7-2.8 4.3-4.3 7.1-7.1h31.6c0 0 0 52.5 0 52.5z"/>
				<path class="s4" d="m158.4 165h7.1v-7.1z"/>
				<path class="s4" d="m163.7 170.7h28v1.5h-28z"/>
				<path class="s4" d="m163.7 173.5h28v1.5h-28z"/>
				<path class="s4" d="m163.7 176.4h28v1.5h-28z"/>
				<path class="s4" d="m163.7 179.2h28v1.5h-28z"/>
				<path class="s4" d="m163.7 182h28v1.5h-28z"/>
				<path class="s4" d="m163.7 184.9h28v1.5h-28z"/>
				<path class="s4" d="m163.7 187.7h28v1.5h-28z"/>
				<path class="s4" d="m163.7 190.5h28v1.5h-28z"/>
				<path class="s4" d="m163.7 193.4h28v1.5h-28z"/>
				<path class="s4" d="m163.7 196.2h28v1.5h-28z"/>
				<path class="s4" d="m163.7 199h28v1.5h-28z"/>
				<path class="s4" d="m163.7 201.9h28v1.5h-28z"/>
			</g>
			<g>
				<path class="s11" d="m338.5 157.9h38.7v45.4c-2.7 2.7-4.3 4.3-7.1 7.1h-31.6c0 0 0-52.5 0-52.5z"/>
				<path class="s4" d="m377.2 203.3h-7.1v7.1z"/>
				<path class="s4" d="m371.9 197.5h-28v-1.5h28z"/>
				<path class="s4" d="m371.9 194.7h-28v-1.5h28z"/>
				<path class="s4" d="m371.9 191.9h-28v-1.5h28z"/>
				<path class="s4" d="m371.9 189h-28v-1.5h28z"/>
				<path class="s4" d="m371.9 186.2h-28v-1.5h28z"/>
				<path class="s4" d="m371.9 183.4h-28v-1.5h28z"/>
				<path class="s4" d="m371.9 180.5h-28v-1.5h28z"/>
				<path class="s4" d="m371.9 177.7h-28v-1.5h28z"/>
				<path class="s4" d="m371.9 174.9h-28v-1.5h28z"/>
				<path class="s4" d="m371.9 172h-28v-1.5h28z"/>
				<path class="s4" d="m371.9 169.2h-28v-1.5h28z"/>
				<path class="s4" d="m371.9 166.4h-28v-1.5h28z"/>
			</g>
			<g>
				<path class="s1" d="m329.4 232.9h58.9l-21.7-35.1h-58.9z"/>
			</g>
			<g>
				<path class="s1" d="m206.2 232.9h-58.9l21.7-35.1h58.9z"/>
			</g>
			<g>
				<path class="s21" d="m203.1 190l-36.4-13.3 15.5-42.6c3.6-1.7 5.6-2.6 9.1-4.2l29.8 10.8z"/>
				<path class="s4" d="m182.2 134.1l6.7 2.4 2.4-6.6z"/>
				<path class="s4" d="m185.3 141.3l26.3 9.6-0.5 1.4-26.3-9.6z"/>
				<path class="s4" d="m184.3 144l26.3 9.5-0.5 1.5-26.3-9.6z"/>
				<path class="s4" d="m183.4 146.6l26.3 9.6-0.5 1.4-26.3-9.6z"/>
				<path class="s4" d="m182.4 149.3l26.3 9.6-0.5 1.4-26.3-9.6z"/>
				<path class="s4" d="m181.4 152l26.3 9.5-0.5 1.4-26.3-9.5z"/>
				<path class="s4" d="m180.5 154.6l26.3 9.6-0.5 1.4-26.4-9.6z"/>
				<path class="s4" d="m179.5 157.3l26.3 9.6-0.5 1.4-26.3-9.6z"/>
				<path class="s4" d="m178.5 159.9l26.3 9.6-0.5 1.4-26.3-9.5z"/>
				<path class="s4" d="m177.6 162.6l26.3 9.6-0.5 1.4-26.4-9.6z"/>
				<path class="s4" d="m176.6 165.3l26.3 9.6-0.5 1.4-26.3-9.6z"/>
				<path class="s4" d="m175.6 167.9l26.3 9.6-0.5 1.4-26.3-9.6z"/>
				<path class="s4" d="m174.6 170.6l26.4 9.6-0.6 1.4-26.3-9.6z"/>
			</g>
			<g>
				<path class="s11" d="m222.8 158.8l-27.4-27.4 32.1-32.1c3.9 0 6.1 0 10.1 0l22.3 22.4z"/>
				<path class="s4" d="m227.5 99.3l5 5.1 5.1-5.1z"/>
				<path class="s4" d="m227.2 107.2l19.8 19.8-1 1-19.8-19.8z"/>
				<path class="s4" d="m225.2 109.2l19.8 19.8-1 1-19.8-19.8z"/>
				<path class="s4" d="m223.2 111.2l19.8 19.8-1 1-19.8-19.8z"/>
				<path class="s4" d="m221.2 113.2l19.8 19.8-1 1-19.8-19.8z"/>
				<path class="s4" d="m219.2 115.2l19.8 19.8-1 1-19.8-19.8z"/>
				<path class="s4" d="m217.2 117.2l19.8 19.8-1 1-19.8-19.8z"/>
				<path class="s4" d="m215.2 119.2l19.8 19.8-1 1-19.8-19.8z"/>
				<path class="s4" d="m213.2 121.2l19.8 19.8-1 1.1-19.8-19.8z"/>
				<path class="s4" d="m211.2 123.2l19.8 19.8-1.1 1.1-19.7-19.8z"/>
				<path class="s4" d="m209.2 125.2l19.8 19.8-1.1 1.1-19.8-19.8z"/>
				<path class="s4" d="m207.2 127.2l19.8 19.8-1.1 1.1-19.8-19.8z"/>
				<path class="s4" d="m205.2 129.2l19.8 19.8-1.1 1.1-19.8-19.8z"/>
			</g>
			<g>
				<path class="s21" d="m241.5 128.7v-38.7h45.4c2.8 2.7 4.4 4.3 7.1 7.1v31.6z"/>
				<path class="s4" d="m286.9 90v7.1h7.1z"/>
				<path class="s4" d="m281.2 95.3v28h-1.5v-28z"/>
				<path class="s4" d="m278.4 95.3v28h-1.5v-28z"/>
				<path class="s4" d="m275.5 95.3v28h-1.5v-28z"/>
				<path class="s4" d="m272.7 95.3v28h-1.5v-28z"/>
				<path class="s4" d="m269.9 95.3v28h-1.5v-28z"/>
				<path class="s4" d="m267 95.3v28h-1.5v-28z"/>
				<path class="s4" d="m264.2 95.3v28h-1.5v-28z"/>
				<path class="s4" d="m261.4 95.3v28h-1.5v-28z"/>
				<path class="s4" d="m258.5 95.3v28h-1.5v-28z"/>
				<path class="s4" d="m255.7 95.3v28h-1.5v-28z"/>
				<path class="s4" d="m252.9 95.3v28h-1.5v-28z"/>
				<path class="s4" d="m250 95.3v28h-1.5v-28z"/>
			</g>
			<g>
				<path class="s11" d="m280.7 121.7l27.4-27.4 32.1 32.1c0 3.9 0 6.1 0 10.1l-22.4 22.3z"/>
				<path class="s4" d="m340.2 126.4l-5 5 5 5.1z"/>
				<path class="s4" d="m332.4 126.1l-19.8 19.8-1.1-1 19.8-19.8z"/>
				<path class="s4" d="m330.4 124.1l-19.8 19.8-1.1-1 19.8-19.8z"/>
				<path class="s4" d="m328.4 122.1l-19.8 19.8-1.1-1 19.8-19.8z"/>
				<path class="s4" d="m326.4 120.1l-19.8 19.8-1.1-1 19.8-19.8z"/>
				<path class="s4" d="m324.3 118.1l-19.8 19.8-1-1 19.8-19.8z"/>
				<path class="s4" d="m322.3 116.1l-19.8 19.8-1-1 19.8-19.8z"/>
				<path class="s4" d="m320.3 114.1l-19.8 19.8-1-1 19.8-19.8z"/>
				<path class="s4" d="m318.3 112.1l-19.8 19.8-1-1 19.8-19.8z"/>
				<path class="s4" d="m316.3 110.1l-19.8 19.8-1-1 19.8-19.8z"/>
				<path class="s4" d="m314.3 108.1l-19.8 19.8-1-1.1 19.8-19.7z"/>
				<path class="s4" d="m312.3 106.1l-19.8 19.8-1-1.1 19.8-19.8z"/>
				<path class="s4" d="m310.3 104.1l-19.8 19.8-1-1.1 19.8-19.8z"/>
			</g>
			<g>
				<path class="s21" d="m317 140.4l36.4-13.3 15.5 42.7c-1.7 3.5-2.6 5.5-4.3 9.1l-29.7 10.8z"/>
				<path class="s4" d="m368.9 169.8l-6.7 2.4 2.4 6.7z"/>
				<path class="s4" d="m361.9 166.2l-26.3 9.6-0.5-1.4 26.3-9.6z"/>
				<path class="s4" d="m360.9 163.6l-26.3 9.5-0.5-1.4 26.3-9.5z"/>
				<path class="s4" d="m360 160.9l-26.4 9.6-0.5-1.4 26.3-9.6z"/>
				<path class="s4" d="m359 158.2l-26.3 9.6-0.5-1.4 26.3-9.6z"/>
				<path class="s4" d="m358 155.6l-26.3 9.6-0.5-1.4 26.3-9.6z"/>
				<path class="s4" d="m357.1 152.9l-26.4 9.6-0.5-1.4 26.3-9.6z"/>
				<path class="s4" d="m356.1 150.3l-26.3 9.5-0.5-1.4 26.3-9.5z"/>
				<path class="s4" d="m355.1 147.6l-26.3 9.6-0.5-1.4 26.3-9.6z"/>
				<path class="s4" d="m354.1 144.9l-26.3 9.6-0.5-1.4 26.3-9.6z"/>
				<path class="s4" d="m353.2 142.3l-26.3 9.5-0.5-1.4 26.3-9.5z"/>
				<path class="s4" d="m352.2 139.6l-26.3 9.6-0.5-1.4 26.3-9.6z"/>
				<path class="s4" d="m351.2 136.9l-26.3 9.6-0.5-1.4 26.3-9.6z"/>
			</g>
		</g>
	</g>
</svg>