<svg version="1.2" xmlns="http://www.w3.org/2000/svg" viewBox="0 0 574 431" width="574" height="431">
	<title>shared-svg</title>
	<style>
		.s0 { fill: #ebebeb } 
		.s1 { fill: #dbdbdb } 
		.s2 { fill: none;stroke: #dbdbdb;stroke-miterlimit:10;stroke-width: .8 } 
		.s3 { fill: #c7c7c7 } 
		.s4 { fill: #a6a6a6 } 
		.s5 { fill: #ffc727 } 
		.s6 { fill: #263238 } 
		.s7 { fill: #455a64 } 
		.s8 { fill: #ffffff;stroke: #ebebeb;stroke-miterlimit:10 } 
		.s9 { fill: #ffffff } 
		.s10 { opacity: .6;fill: #ffffff } 
		.s11 { opacity: .4;fill: #ffffff } 
		.s12 { fill: none;stroke: #a6a6a6;stroke-miterlimit:10 } 
		.s13 { fill: none;stroke: #a6a6a6;stroke-miterlimit:10;stroke-dasharray: 3.9302,3.9302 } 
		.s14 { fill: none;stroke: #a6a6a6;stroke-miterlimit:10;stroke-dasharray: 3.8425,3.8425 } 
		.s15 { fill: none;stroke: #a6a6a6;stroke-miterlimit:10;stroke-dasharray: 3.8207,3.8207 } 
		.s16 { fill: none;stroke: #a6a6a6;stroke-miterlimit:10;stroke-dasharray: 3.8808,3.8808 } 
		.s17 { fill: none;stroke: #a6a6a6;stroke-miterlimit:10;stroke-dasharray: 4 } 
		.s18 { fill: none;stroke: #ffc727;stroke-miterlimit:10 } 
		.s19 { fill: #ad6359 } 
		.s20 { fill: #37474f } 
		.s21 { opacity: .1;fill: #000000 } 
		.s22 { fill: #ff97b8 } 
		.s23 { opacity: .2;fill: #263238 } 
	</style>
	<g id="Background_Complete">
		<g>
			<path fill-rule="evenodd" class="s0" d="m121.2 316.6l-6.8 0.1c-2.3 0.1-4.6 0.1-6.9 0.1h-0.5v-0.5-11.5-0.5h0.5l13.6 0.1c4.6 0 9.1 0.1 13.6 0.1h0.3v0.3c0 2-0.1 3.9-0.1 5.8l-0.2 5.7-0.1-5.8q-0.1-2.7-0.1-5.4c-4.5 0-8.9 0.2-13.4 0.2h-13.1v10.6c2 0 4.1 0 6.2 0l6.8 0.1 13.7 0.3zm13.5-0.3zm-0.3-11.2q0.2 0 0.3 0l-0.3-0.3q0 0.2 0 0.3zm-26.4 0.2v-0.5l-0.5 0.5zm-0.1 10.6q-0.2 0-0.5 0l0.5 0.4z"/>
			<path fill-rule="evenodd" class="s0" d="m106 331.1l-6.8 0.2c-2.3 0-4.6 0-6.9 0h-0.5v-0.4-11.6-0.5h0.5l13.6 0.1c4.6 0 9.1 0.1 13.6 0.2h0.3v0.2c0 2-0.1 3.9-0.1 5.9l-0.2 5.7-0.1-5.9c0-1.8-0.1-3.6-0.1-5.4-4.5 0.1-8.9 0.2-13.4 0.2h-13.1l-0.1 10.6c2.1 0 4.2 0 6.3 0.1l6.8 0.1 13.7 0.3zm13.5-0.3zm-0.3-11.3q0.2 0 0.3 0l-0.3-0.3q0 0.2 0 0.3zm-26.4 0.3v-0.6l-0.6 0.6zm0 10.5q-0.2 0-0.5 0l0.5 0.5z"/>
			<path fill-rule="evenodd" class="s0" d="m136.4 331.1l-6.8 0.2c-2.3 0-4.6 0-6.9 0h-0.5v-0.4-11.6-0.5h0.5l13.6 0.1c4.6 0 9.1 0.1 13.7 0.2h0.2v0.2c0 2-0.1 3.9-0.1 5.9l-0.1 5.7-0.2-5.9q-0.1-2.7-0.1-5.4c-4.5 0.1-8.9 0.2-13.4 0.2h-13.1v10.6c2 0 4.1 0 6.2 0.1l6.8 0.1 13.7 0.3zm13.5-0.3zm-0.3-11.3q0.2 0 0.3 0l-0.3-0.3q0 0.2 0 0.3zm-26.4 0.3v-0.6l-0.5 0.6zm-0.1 10.5q-0.2 0-0.5 0l0.5 0.5z"/>
			<path fill-rule="evenodd" class="s0" d="m467.2 331.1l-6.8 0.2c-2.3 0-4.6 0-6.9 0h-0.5v-0.4-11.6-0.5h0.5l13.6 0.1c4.6 0 9.1 0.1 13.6 0.2h0.3v0.2c0 2-0.1 3.9-0.1 5.9l-0.2 5.7-0.1-5.9q-0.1-2.7-0.1-5.4c-4.5 0.1-8.9 0.2-13.4 0.2h-13.1l-0.1 10.6c2.1 0 4.2 0 6.3 0.1l6.8 0.1 13.7 0.3zm13.5-0.3zm-0.3-11.3q0.2 0 0.3 0l-0.3-0.3q0 0.2 0 0.3zm-26.4 0.3v-0.6l-0.6 0.6zm0 10.5q-0.2 0-0.5 0l0.5 0.5z"/>
			<path fill-rule="evenodd" class="s0" d="m467.2 27.1l-6.8 0.2c-2.3 0-4.6 0-6.9 0h-0.5v-0.4-11.6-0.5h0.5l13.6 0.1c4.6 0 9.1 0.1 13.6 0.2h0.3v0.2c0 2-0.1 3.9-0.1 5.9l-0.2 5.7zm13.4-6.1q-0.1-2.8-0.1-5.5c-4.5 0.1-8.9 0.2-13.4 0.2l-13.1 0.1v10.5c2 0 4.1 0 6.2 0.1l6.8 0.1 13.8 0.3zm-0.2-5.4q0.2 0 0.3 0l-0.3-0.3q0 0.1 0 0.3zm-26.4 0.2v-0.5l-0.6 0.5zm0 10.5q-0.2 0-0.5 0l0.5 0.5z"/>
			<path fill-rule="evenodd" class="s0" d="m482.4 41.7l-6.8 0.1c-2.3 0-4.6 0-6.9 0h-0.5v-0.4-11.5-0.6l0.5 0.1h13.6c4.6 0 9.1 0.1 13.7 0.2h0.2v0.3c0 1.9-0.1 3.9-0.1 5.8l-0.1 5.7zm13.3-6.1q-0.1-2.8-0.1-5.4c-4.5 0-8.9 0.1-13.4 0.1l-13.1 0.1v10.5c2.1 0.1 4.1 0 6.2 0.1l6.8 0.1 13.8 0.3zm-0.2-5.4q0.2 0 0.3 0l-0.3-0.3q0 0.1 0 0.3zm-26.4 0.2v-0.5l-0.6 0.5zm0 10.6q-0.2 0-0.5 0l0.5 0.4z"/>
			<path fill-rule="evenodd" class="s0" d="m106 27.2l-6.8 0.1c-2.3 0-4.6 0-6.9 0h-0.5v-0.4-11.5-0.6h0.5l13.6 0.1c4.6 0 9.1 0.1 13.6 0.2h0.3v0.3c0 1.9-0.1 3.9-0.1 5.8l-0.2 5.7zm13.4-6.1c0-1.9-0.1-3.7-0.1-5.5-4.5 0.1-8.9 0.2-13.4 0.2l-13.1 0.1v10.5c2 0 4.1 0 6.2 0.1l6.8 0.1 13.8 0.3zm-0.2-5.4q0.2 0 0.3 0l-0.3-0.3q0 0.1 0 0.3zm-26.4 0.2v-0.5l-0.6 0.5zm0 10.6q-0.2 0-0.5-0.1l0.5 0.5z"/>
			<path fill-rule="evenodd" class="s0" d="m335 287.1l6.9-0.1c2.3 0 4.6 0 6.9 0h0.4v0.4l0.1 11.5v0.5h-0.5-13.7c-4.5 0-9.1-0.1-13.6-0.2h-0.3v-0.3c0-1.9 0.1-3.9 0.1-5.8l0.2-5.7 0.1 5.8q0.1 2.8 0.2 5.4c4.4 0 8.9-0.1 13.3-0.1l13.1-0.1 0.1-10.5c-2.1 0-4.2 0-6.3-0.1l-6.8-0.1-13.7-0.3zm-13.5 0.3zm0.3 11.2q-0.1 0-0.3 0l0.3 0.3q0-0.1 0-0.3zm26.5-0.2v0.5l0.5-0.5zm0-10.5q0.3 0 0.5 0l-0.5-0.5z"/>
			<path fill-rule="evenodd" class="s0" d="m350.2 272.6l6.9-0.1c2.3-0.1 4.6-0.1 6.9-0.1h0.4v0.5l0.1 11.5v0.5h-0.5-13.7c-4.5 0-9.1-0.2-13.6-0.2h-0.3v-0.3c0-1.9 0.1-3.9 0.2-5.8l0.1-5.7zm-13.4 6.1c0.1 1.8 0.1 3.6 0.2 5.4 4.4 0 8.9-0.2 13.3-0.2h13.1l0.1-10.6c-2.1 0-4.2 0-6.3 0l-6.8-0.1-13.7-0.3zm0.1 5.4q-0.1 0-0.3 0l0.3 0.3q0-0.2 0-0.3zm26.5-0.2v0.5l0.5-0.5zm0.1-10.6q0.2 0 0.4 0l-0.4-0.4z"/>
			<path fill-rule="evenodd" class="s0" d="m150.3 143.4l6.9-0.2c2.3 0 4.6 0 6.9 0h0.4v0.4l0.1 11.6v0.5h-0.5l-13.7-0.1c-4.5 0-9.1-0.1-13.6-0.2h-0.3v-0.2c0-2 0.1-3.9 0.2-5.9l0.1-5.7zm-13.4 6.1c0.1 1.9 0.1 3.7 0.2 5.5 4.4-0.1 8.9-0.2 13.3-0.2l13.1-0.1 0.1-10.5c-2.1 0-4.2 0-6.3-0.1l-6.8-0.1-13.7-0.3zm0.1 5.4q-0.1 0-0.3 0l0.3 0.3q0-0.1 0-0.3zm26.5-0.2v0.5l0.5-0.5zm0.1-10.5q0.2 0 0.4 0l-0.4-0.5z"/>
		</g>
		<g>
			<g>
				<path fill-rule="evenodd" class="s0" d="m468.9 230.7v151.4h-91.6v-151.4zm-8.3 56.1h-74.9v39.4h74.9zm0-48.8h-74.9v39.5h74.9z"/>
				<path class="s1" d="m468.9 230.7h36.6v151.4h-36.6z"/>
				<path class="s1" d="m385.6 238h17.8v39.4h-17.8z"/>
				<g>
					<path class="s2" d="m386.1 335h74.4v37.6h-74.4z"/>
					<g>
						<path class="s1" d="m412.8 345.6h14.8v7.5h-14.8z"/>
						<path class="s2" d="m417.2 346.2h14.8v6.3h-14.8z"/>
					</g>
				</g>
				<path class="s1" d="m385.6 286.8h17.8v39.4h-17.8z"/>
			</g>
		</g>
		<g>
			<g>
				<path class="s0" d="m96.5 71.8h125v7.5h-125z"/>
				<g>
					<path class="s0" d="m106 79.3h7.4v24.5h-7.4z"/>
					<path class="s1" d="m106 79.3h7.4v7.6h-7.4z"/>
				</g>
				<g>
					<path class="s0" d="m204.6 79.3h7.4v24.5h-7.4z"/>
					<path class="s1" d="m204.6 79.3h7.4v7.6h-7.4z"/>
				</g>
			</g>
			<g>
				<path class="s3" d="m140 24.5v47.3h-11.9v-47.3z"/>
				<path class="s1" d="m140 22v5.2h-11.9v-5.2z"/>
				<path class="s1" d="m140 33.9v1.9h-11.9v-1.9z"/>
				<path class="s1" d="m141.5 60.4v5.2h-13.4v-5.2z"/>
				<g>
					<path class="s1" d="m148.3 16.7v55.1h-8.3v-55.1z"/>
					<path class="s0" d="m146.6 21.9v21.2h-5v-21.2z"/>
				</g>
				<g>
					<path class="s3" d="m168.3 27.1l39.3 38.8-5.9 6-39.2-38.8z"/>
					<path class="s1" d="m182.1 43.1l15.1 14.9-3.5 3.6-15.1-15z"/>
				</g>
				<g>
					<path class="s4" d="m162.5 29.9v42h-14.2v-42z"/>
					<path class="s3" d="m162.5 63.5v3.9h-14.2v-3.9z"/>
					<path class="s3" d="m162.5 59.4v1.5h-14.2v-1.5z"/>
				</g>
				<g>
					<path class="s4" d="m128.1 32.5v39.4h-9.8v-39.4z"/>
					<path class="s3" d="m128.1 64v3.7h-9.8v-3.7z"/>
					<path class="s3" d="m128.1 40.6v3.7h-9.8v-3.7z"/>
					<path class="s3" d="m128.1 46.8v1.4h-9.8v-1.4z"/>
				</g>
			</g>
		</g>
	</g>
	<g id="Plant">
		<g>
			<g>
				<g>
					<path class="s5" d="m156.7 291.2c-12.5 16.8-25.5 36.4-28.6 57.5-0.1 0.3 0.5 0.4 0.5 0.1q2.2-8.7 5.5-16.9c8.2-2.3 16.2-4.1 20.5-12.2 4.4-8.4 3.9-19.3 3-28.4 0-0.4-0.7-0.5-0.9-0.1z"/>
					<g>
						<path class="s6" d="m134.3 331.7c5.5-12.5 12.7-25.1 21.8-35.4 0.1-0.1 0.2 0 0.1 0.1-5.9 7.3-10.5 15.3-14.9 23.5 4.1-4.2 8.6-8 12.5-12.4 0.1-0.1 0.2 0 0.2 0.1-3.9 4.7-8.1 9.7-13.2 13.2q-2 3.7-4.1 7.5 0.5-0.3 1-0.6c0.1 0 0.2 0.1 0.1 0.1q-0.6 0.3-1.2 0.6-0.9 1.8-1.9 3.6c-0.2 0.2-0.6 0-0.4-0.3z"/>
						<path class="s6" d="m138.4 327.3c3.3-1.9 6.6-3.9 9.6-6.3 0-0.1 0.2 0 0.1 0.1-3 2.5-6.1 4.7-9.6 6.5-0.1 0.1-0.2-0.2-0.1-0.3z"/>
					</g>
				</g>
				<g>
					<path class="s5" d="m126.6 345.5c0.1 0.3 0.5 0.3 0.5 0 0.1-6.9 0-13.9 0.1-20.9 1.8-3.6 5.6-5.6 8.3-8.5 1.9-2.1 3.5-4.4 4.9-6.9 3.3-5.9 5.1-12.5 5.8-19.2 0.7-7.4-2.1-32-5.2-31.1-1.7 0.4-6.9 12.6-8.3 16.6-2.3 6.6-3.9 13.5-5 20.4-2.5 16.4-2.3 33.2-1.1 49.6z"/>
					<g>
						<path class="s6" d="m126.6 315.5q0 0 0 0c0.4-8.8 2.4-17.7 4.2-26.2 2-9.2 4.4-17.9 9.1-26.1 0.1-0.1 0.3 0 0.3 0.1-3.3 6.4-5.6 13.1-7.3 20.1 0.3-0.5 0.7-1 1-1.5 0.1-0.2 0.4 0 0.3 0.2-0.5 0.7-0.9 1.5-1.5 2.1q0 0 0 0c-1.7 6.6-2.8 13.3-3.8 20q0.1-0.1 0.2-0.2c0-0.1 0.1 0 0.1 0q-0.2 0.4-0.4 0.7-0.8 5.1-1.5 10.2c6.1-5.2 11.3-11.3 14.2-18.8 0-0.1 0.1-0.1 0.1 0-2.9 7.8-7.4 14.7-14.4 19.5q-0.1 1.3-0.3 2.7c-0.1 0.2-0.4 0.1-0.4-0.1q0.1-1.2 0.1-2.4c-0.1 0-0.1-0.2 0-0.3z"/>
						<path class="s6" d="m129.4 302.8c4.7-6.9 9-13.7 12.4-21.3 0-0.1 0.2 0 0.2 0.1-2.9 7.6-6.9 15.3-12.3 21.4-0.1 0.1-0.3-0.1-0.3-0.2z"/>
						<path class="s6" d="m135.6 279.8c1.9-3.4 3.9-6.7 5.8-10.2 0-0.1 0.1 0 0.1 0.1-1.5 3.6-3.3 7.1-5.6 10.3-0.1 0.1-0.4 0-0.3-0.2z"/>
						<path class="s6" d="m134.9 281.3c0 0 0 0 0 0-0.1 0-0.1 0 0 0z"/>
					</g>
				</g>
				<g>
					<path class="s5" d="m121.9 325.4c-0.1 4.6-0.6 9.2-1.6 13.7q0.1 0.8 0.2 1.5c1.5-5 2.2-10.1 2.5-15.2 0.1-0.2 0.1-0.3 0-0.5q0 0 0 0c0.3-6.9-0.4-13.9-1.5-20.7-2.2-12.8-6.9-25.1-15.8-34.7-0.3-0.3-0.9-0.1-1 0.2-3.6 9.2-2.4 20.1 0.7 29.2 1.7 4.9 4.1 9.7 7.1 13.9 3 4.3 6.9 7.9 9.4 12.6z"/>
					<g>
						<path class="s6" d="m106.7 273.8c8.5 13.7 14.4 30 15.1 46.2 0 0.3-0.5 0.4-0.5 0.1q-0.3-2.2-0.7-4.4 0 0 0 0c-3.5-3.3-7.1-6.9-9.6-11.1 0 0 0.1-0.1 0.1 0 3.1 3.4 5.9 7 9.3 10.1q-0.9-5.4-2.1-10.6-0.4-0.4-0.7-0.8c-0.1-0.1 0.1-0.4 0.3-0.2q0.1 0.1 0.2 0.2-1.8-7.1-4.5-14c-2.1-2.6-4.5-4.8-6.1-7.9 0-0.1 0.1-0.1 0.1-0.1 1.3 1.8 2.5 3.6 3.9 5.2 0.6 0.7 1.2 1.3 1.8 1.9-1.9-4.9-4.2-9.7-6.9-14.4-0.1-0.2 0.2-0.4 0.3-0.2z"/>
						<path class="s6" d="m108.4 290.7c2.8 3.7 5.9 7.2 8.4 11 0.1 0.1-0.1 0.2-0.2 0.1-3.2-3-6-7.2-8.3-11-0.1-0.1 0.1-0.2 0.1-0.1z"/>
						<path class="s6" d="m117.2 302.6l0.1 0.1c0.1 0.1 0 0.2-0.1 0.1l-0.1-0.1c-0.1-0.1 0-0.2 0.1-0.1z"/>
					</g>
				</g>
				<g>
					<path class="s5" d="m93.5 300.2c0.7 7 4.4 15.5 8.9 20.9 2 2.4 4.4 4.2 7.2 5.6 3.2 1.6 6.5 3.4 9.7 4.6q2.3 5.9 3.4 12.2 0.2-0.6 0.3-1.1c-2.1-17.9-13.6-33.1-28.4-42.9-0.5-0.4-1.2 0.1-1.1 0.7z"/>
					<g>
						<path class="s6" d="m98.6 305.5c-0.1-0.1 0-0.3 0.2-0.2 7.8 5.8 14.8 14.2 18.8 23.2 0.1 0.2-0.2 0.4-0.4 0.2q-1-1.8-2.1-3.5 0 0 0 0c-3.4-0.7-6.6-3-9.1-5.3 0-0.1 0.1-0.2 0.1-0.1 1.3 1.2 2.8 2.2 4.3 3 1.4 0.7 2.9 1.1 4.3 1.7q-1.9-3-3.9-5.7c-3.6-1.3-7.1-3.5-10.2-5.7-0.1-0.1 0-0.3 0.1-0.2 3.1 1.9 6.2 3.5 9.5 5q-3.1-4-6.7-7.7c-1.1-0.6-2.3-1.2-3.4-1.9-0.1 0 0-0.2 0.1-0.2 0.8 0.3 1.7 0.8 2.6 1.3q-2-2-4.2-3.9z"/>
						<path class="s6" d="m98.9 311.6q0.3 0.2 0.6 0.4c0 0.1 0 0.1-0.1 0.1q-0.3-0.1-0.6-0.3c-0.1-0.1 0-0.2 0.1-0.2z"/>
					</g>
				</g>
			</g>
			<g>
				<g>
					<path class="s7" d="m146.1 382.2h-40.5l3.3-36.9 0.7-8.2h32.5l0.7 8.2z"/>
					<path class="s6" d="m142.8 345.3h-33.9l0.7-8.2h32.5z"/>
				</g>
				<path class="s7" d="m107.6 331.4h36.5v8.1h-36.5z"/>
			</g>
		</g>
	</g>
	<g id="Floor">
		<g>
			<path class="s6" d="m82.4 382.2l52.9-0.3 52.9-0.1 105.8-0.1 105.8 0.1 52.9 0.1 52.9 0.3-52.9 0.2-52.9 0.1-105.8 0.2-105.8-0.2-52.9-0.1z"/>
		</g>
	</g>
	<g id="Shadow">
		<g>
			<path class="s0" d="m294 433.8c-68.9 0-124.7-4.7-124.7-10.5 0-5.9 55.8-10.6 124.7-10.6 68.9 0 124.7 4.7 124.7 10.6 0 5.8-55.8 10.5-124.7 10.5z"/>
		</g>
	</g>
	<g id="Screen">
		<g>
			<g>
				<g>
					<path class="s8" d="m184.4 20.5h306.3v244.9h-306.3z"/>
				</g>
				<g>
					<path class="s7" d="m184.4 20.5h306.3v11.6h-306.3z"/>
				</g>
			</g>
			<g>
				<path class="s5" d="m194.1 26.3c0 1.5-1.2 2.7-2.6 2.7-1.5 0-2.7-1.2-2.7-2.7 0-1.4 1.2-2.6 2.7-2.6 1.4 0 2.6 1.2 2.6 2.6z"/>
				<path class="s0" d="m204.8 26.3c0 1.5-1.2 2.7-2.6 2.7-1.5 0-2.7-1.2-2.7-2.7 0-1.4 1.2-2.6 2.7-2.6 1.4 0 2.6 1.2 2.6 2.6z"/>
				<path class="s9" d="m215.5 26.3c0 1.5-1.2 2.7-2.6 2.7-1.5 0-2.7-1.2-2.7-2.7 0-1.4 1.2-2.6 2.7-2.6 1.4 0 2.6 1.2 2.6 2.6z"/>
			</g>
			<g>
				<g>
					<g>
						<g>
							<path class="s1" d="m369.5 184.3h72.8v50.9h-72.8z"/>
							<path class="s1" d="m419.4 179.1h22.9v5.2h-24.3z"/>
						</g>
					</g>
				</g>
				<g>
					<g>
						<g>
							<path class="s0" d="m369.6 235.2h72.9l5-46.6h-72.9z"/>
							<path class="s0" d="m425.1 183.7h22.9l-0.5 4.9h-24.3z"/>
						</g>
					</g>
				</g>
			</g>
		</g>
	</g>
	<g id="Duplicate">
		<g>
			<g>
				<path class="s5" d="m325.9 241.3l-58.4-0.1v-74.9h43.4l15 14.3z"/>
				<path class="s10" d="m325.9 241.3l-58.4-0.1v-74.9h43.4l15 14.3z"/>
				<path class="s5" d="m310.9 166.3l15 14.3h-15.1z"/>
				<path class="s11" d="m310.9 166.3l15 14.3h-15.1z"/>
				<g>
					<g>
						<path class="s5" d="m305.7 180.8h-32.5v-1.9h32.5z"/>
					</g>
					<g>
						<path class="s5" d="m305.7 185.7l-32.5-0.1v-1.9h32.5z"/>
					</g>
					<g>
						<path class="s5" d="m305.6 190.5h-32.4v-1.9h32.5z"/>
					</g>
					<g>
						<path class="s5" d="m320.7 195.4h-47.5v-2l47.5 0.1z"/>
					</g>
					<g>
						<path class="s5" d="m320.7 200.2h-47.5v-1.9h47.5z"/>
					</g>
					<g>
						<path class="s5" d="m320.7 205.1h-47.5v-2l47.5 0.1z"/>
					</g>
					<g>
						<path class="s5" d="m320.7 210l-47.5-0.1v-1.9h47.5z"/>
					</g>
					<g>
						<path class="s5" d="m320.7 214.8h-47.5v-1.9h47.5z"/>
					</g>
					<g>
						<path class="s5" d="m320.7 219.7l-47.5-0.1v-1.9h47.5z"/>
					</g>
					<g>
						<path class="s5" d="m320.7 224.5h-47.5v-1.9h47.5z"/>
					</g>
					<g>
						<path class="s5" d="m320.7 229.4h-47.5v-2l47.5 0.1z"/>
					</g>
					<g>
						<path class="s5" d="m320.7 234.2h-47.5v-1.9h47.5z"/>
					</g>
				</g>
			</g>
			<g>
				<g>
					<path class="s5" d="m407.6 137.3h-58.4l0.1-74.9h43.3l15.1 14.3z"/>
					<path class="s10" d="m407.6 137.3h-58.4l0.1-74.9h43.3l15.1 14.3z"/>
					<path class="s5" d="m392.6 62.4l15.1 14.3h-15.1z"/>
					<path class="s11" d="m392.6 62.4l15.1 14.3h-15.1z"/>
					<g>
						<g>
							<path class="s5" d="m387.4 76.9h-32.4v-2l32.4 0.1z"/>
						</g>
						<g>
							<path class="s5" d="m387.4 81.7h-32.4v-1.9h32.4z"/>
						</g>
						<g>
							<path class="s5" d="m387.4 86.6h-32.4v-1.9h32.4z"/>
						</g>
						<g>
							<path class="s5" d="m402.5 91.5l-47.5-0.1v-1.9h47.5z"/>
						</g>
						<g>
							<path class="s5" d="m402.5 96.3h-47.5v-1.9h47.5z"/>
						</g>
						<g>
							<path class="s5" d="m402.5 101.2l-47.5-0.1v-1.9h47.5z"/>
						</g>
						<g>
							<path class="s5" d="m402.5 106h-47.5v-1.9h47.5z"/>
						</g>
						<g>
							<path class="s5" d="m402.5 110.9h-47.5v-2l47.5 0.1z"/>
						</g>
						<g>
							<path class="s5" d="m402.5 115.7h-47.5v-1.9h47.5z"/>
						</g>
						<g>
							<path class="s5" d="m402.5 120.6h-47.5v-1.9h47.5z"/>
						</g>
						<g>
							<path class="s5" d="m402.5 125.5l-47.6-0.1v-1.9h47.6z"/>
						</g>
						<g>
							<path class="s5" d="m402.5 130.3h-47.6v-1.9h47.6z"/>
						</g>
					</g>
				</g>
				<g>
					<g>
						<g>
							<g>
								<g>
									<path class="s12" d="m345.4 143.1h-2v-2"/>
									<path class="s13" d="m343.4 137.2l0.1-76.7"/>
									<path class="s12" d="m343.5 58.6v-2h2"/>
									<path class="s14" d="m349.3 56.6h45.6l15.7 14.9"/>
									<path class="s12" d="m412 72.8l1.5 1.4v2"/>
									<path class="s15" d="m413.5 80l-0.1 59.2"/>
									<path class="s12" d="m413.4 141.1v2h-2"/>
									<path class="s16" d="m407.5 143.1h-60.1"/>
								</g>
							</g>
						</g>
					</g>
				</g>
			</g>
			<path class="s17" d="m310.9 166.3l32.5-23.2"/>
			<g>
				<path class="s5" d="m417.9 79.1c-1.3 5.7-7 9.2-12.7 7.8-5.6-1.3-9.2-7-7.8-12.6 1.3-5.7 7-9.2 12.7-7.9 5.7 1.3 9.2 7 7.8 12.7z"/>
				<g>
					<path class="s9" d="m406.6 70.1h2.1v13.1h-2.1z"/>
					<path class="s9" d="m414.2 75.6v2.2h-13.1v-2.2z"/>
				</g>
			</g>
		</g>
	</g>
	<g id="Pointer">
		<g>
			<path class="s6" d="m418.9 153.2l4.5 10.7-4.4 1.8-4.5-10.7-7.3 5.6v-30.1l21.1 21.3z"/>
			<g>
				<path class="s6" d="m407.2 127.2c-0.2-0.5-0.3-1-0.3-1.5 0-0.5 0.1-1 0.3-1.5 0.2 0.5 0.2 1 0.3 1.5-0.1 0.5-0.1 1-0.3 1.5z"/>
				<path class="s6" d="m404.6 128.3c-0.5-0.2-0.9-0.5-1.3-0.9-0.3-0.4-0.7-0.8-0.9-1.3 0.5 0.2 0.9 0.6 1.3 0.9 0.3 0.4 0.7 0.8 0.9 1.3z"/>
				<path class="s6" d="m403.5 130.9c-0.5 0.2-1 0.3-1.5 0.3-0.5 0-1-0.1-1.5-0.3 0.5-0.2 1-0.3 1.5-0.3 0.5 0 1 0.1 1.5 0.3z"/>
				<path class="s6" d="m404.6 133.5c-0.2 0.5-0.6 0.9-0.9 1.3-0.4 0.3-0.8 0.6-1.3 0.8 0.2-0.5 0.6-0.9 0.9-1.2 0.4-0.4 0.8-0.7 1.3-0.9z"/>
				<path class="s6" d="m410.9 130.9c0.5-0.2 1-0.3 1.5-0.3 0.5 0 1 0.1 1.5 0.3-0.5 0.2-1 0.3-1.5 0.3-0.5 0-1-0.1-1.5-0.3z"/>
				<path class="s6" d="m409.8 128.3c0.2-0.5 0.5-0.9 0.9-1.3 0.3-0.3 0.7-0.7 1.2-0.9-0.2 0.5-0.5 0.9-0.8 1.3-0.4 0.4-0.8 0.7-1.3 0.9z"/>
			</g>
		</g>
	</g>
	<g id="Icons">
		<g>
			<path class="s5" d="m137.8 62.8h47.3v47.3h-47.3z"/>
			<path class="s18" d="m146.8 71.8h47.3v47.3h-47.3z"/>
			<g>
				<path class="s9" d="m159 72h4.8v28.9h-4.8z"/>
				<path class="s9" d="m175.9 84v4.8h-28.9v-4.8z"/>
			</g>
		</g>
	</g>
	<g id="Character">
		<g id="Capa_4">
		</g>
		<g>
			<g>
				<g>
					<g>
						<g>
							<path class="s19" d="m202.5 346.9c0 0-1.3 48.2-1.3 48.2 0.1 8.9 0.3 16.8 0.7 20.8q0 0 0 0.1c0.2 1.5 0.4 2.5 0.7 2.7q0 0.1 0.1 0.1c2.6 1.8 73.9 3.6 76.4 2.8 2.5-0.7 0.5-7.9-2.2-10.2-2.7-2.3-29.7-15.2-29.7-15.2l0.8-48.2z"/>
							<path class="s9" d="m201.2 385.6c0 0 0 9.5 0 9.5 0.1 8.9 0.3 16.8 0.7 20.8q0 0 0 0.1c0.3 1.5 0.5 2.5 0.7 2.7q0 0.1 0.1 0.1c2.6 1.8 73.9 3.6 76.4 2.8 2.5-0.7 0.5-7.9-2.2-10.2-2.7-2.3-29.7-15.2-29.7-15.2l0.1-9.7z"/>
							<g>
								<g>
									<path class="s6" d="m251.6 396.2c-4.8-0.8-10.5 0.1-14.1 3.5-0.1 0.2 0.1 0.4 0.2 0.3 4.7-1.6 9-2.6 13.9-3.2 0.3 0 0.3-0.5 0-0.6z"/>
									<path class="s6" d="m255 398.2c-4.7-0.8-10.5 0.1-14 3.5-0.2 0.2 0 0.3 0.2 0.3 4.6-1.6 8.9-2.6 13.8-3.2 0.4 0 0.4-0.5 0-0.6z"/>
									<path class="s6" d="m258.5 400.2c-4.8-0.8-10.5 0.1-14.1 3.5-0.1 0.1 0.1 0.3 0.2 0.3 4.7-1.6 9-2.6 13.9-3.2 0.3-0.1 0.3-0.6 0-0.6z"/>
								</g>
								<path class="s20" d="m279.1 421.6c-2.5 0.8-73.8-1-76.4-2.8-1.1-0.7-1.4-11.1-1.5-23.7q0-0.2 0-0.4l46 0.7v0.8c0 0 27 12.9 29.7 15.2 2.7 2.3 4.7 9.5 2.2 10.2z"/>
								<path class="s5" d="m201.2 394.7v0.4c0.1 12.6 0.4 23 1.5 23.7 1.2 0.8 16.6 1.6 33.3 2.2 20 0.7 41.7 1.1 43.1 0.7 2.5-0.8 0.5-8-2.2-10.3-2.7-2.3-29.7-15.2-29.7-15.2v-0.8l-15.3-0.2z"/>
								<path class="s6" d="m278.4 418.9c-12-0.6-60.5-2-72.4-1.6-0.1 0-0.1 0 0 0 11.8 0.9 60.3 1.8 72.4 1.8 0.2 0 0.2-0.2 0-0.2z"/>
								<path class="s21" d="m231.9 395.2c1.1 7.7 2.8 19 4.1 25.8 20 0.7 41.7 1.1 43.1 0.7 2.5-0.8 0.5-8-2.2-10.3-2.7-2.3-29.7-15.2-29.7-15.2v-0.8z"/>
							</g>
						</g>
						<g>
							<path class="s20" d="m197.1 395.4l51.6 0.5c0 0 2.9-84 3.1-112 0.3-32-1.5-127.9-1.5-127.9h-38.6c0 0-10.3 21.1-4.4 44.9l1.6 85.6z"/>
							<g>
								<path class="s6" d="m200.9 386.4c1.4-0.3 2.8-0.3 4.1-0.4q2.3-0.1 4.6-0.2 4.4-0.2 8.8-0.2c5.9-0.1 11.8 0 17.8 0.2q5 0.1 10.1 0.4c0.1 0 0.1 0.2 0 0.2-5.9 0.2-11.8 0.3-17.7 0.4-5.8 0.1-11.7 0.3-17.6 0.2-1.6-0.1-3.3-0.1-5-0.2-1.7-0.1-3.4 0-5.1-0.2-0.1-0.1-0.1-0.2 0-0.2z"/>
								<path class="s6" d="m245 340c0.6-13.9 1-27.8 1.4-41.7q1.1-41.6 0.6-83.3c-0.2-15.6-0.6-31.2-1.1-46.8 0-0.2 0.3-0.2 0.3 0 1.5 27.9 2 55.9 2.1 83.8 0 27.8-0.6 55.6-2 83.4-0.7 15.6-1.7 31.1-3.2 46.7 0 0.1-0.2 0.1-0.2 0 0.7-14 1.4-28.1 2.1-42.1z"/>
							</g>
						</g>
					</g>
				</g>
				<g>
					<g>
						<g>
							<path class="s19" d="m257.6 354.5c0 0 0.4 46.6 0.4 46.7 0.1 8.9 0.2 16.7 0.7 20.8q0 0 0 0c0.2 1.5 0.4 2.5 0.7 2.8q0 0 0 0c2.7 1.8 74 3.7 76.5 2.9 2.5-0.8 0.5-8-2.2-10.3-2.8-2.2-29.7-15.2-29.7-15.2l-0.9-46.6z"/>
							<path class="s9" d="m257.9 391.6c0 0 0.1 9.5 0.1 9.6 0.1 8.9 0.2 16.7 0.7 20.8q0 0 0 0c0.3 1.5 0.5 2.5 0.7 2.8q0 0 0 0c2.7 1.8 74 3.7 76.5 2.9 2.5-0.8 0.5-8-2.2-10.3-2.8-2.2-29.7-15.2-29.7-15.2v-9.7z"/>
							<g>
								<g>
									<path class="s6" d="m308.4 402.3c-4.8-0.8-10.6 0-14.1 3.5-0.1 0.1 0.1 0.3 0.2 0.3 4.6-1.6 9-2.6 13.8-3.2 0.4-0.1 0.4-0.6 0.1-0.6z"/>
									<path class="s6" d="m311.8 404.3c-4.7-0.8-10.5 0-14 3.5-0.2 0.1 0 0.3 0.2 0.2 4.6-1.5 8.9-2.6 13.8-3.1 0.3-0.1 0.3-0.6 0-0.6z"/>
									<path class="s6" d="m315.3 406.2c-4.8-0.7-10.6 0.1-14.1 3.6-0.1 0.1 0.1 0.3 0.2 0.2 4.6-1.5 9-2.6 13.9-3.2 0.3 0 0.3-0.5 0-0.6z"/>
								</g>
								<path class="s5" d="m335.9 427.7c-2.5 0.8-73.8-1.1-76.5-2.9-1-0.6-1.3-11-1.4-23.6q0-0.2 0-0.4l46 0.7v0.7c0 0 26.9 13 29.7 15.2 2.7 2.3 4.7 9.5 2.2 10.3z"/>
								<path class="s6" d="m335.1 424.9c-12-0.6-60.4-1.9-72.4-1.6-0.1 0-0.1 0.1 0 0.1 11.9 0.8 60.4 1.8 72.4 1.7 0.3 0 0.3-0.2 0-0.2z"/>
							</g>
						</g>
						<g>
							<path class="s20" d="m234.1 205.3c0 0.1 21.1 66.7 21.5 79 0.3 10.4-1 117.7-1 117.7l53.6 0.3c0 0-4.6-109.4-5.4-120.3-1.6-20.3-19.4-76.2-32.2-126h-57.7c0 0 0.5 26.1 12.4 44.9 0 0 5.3 2.5 8.8 4.4z"/>
							<g>
								<path class="s6" d="m257.4 392.1c6.2-0.2 12.7-0.4 18.8-0.2 6.2 0.1 12.3 0.2 18.5 0.6 3.4 0.2 6.9 0.3 10.4 0.6 0.1 0.1 0.1 0.2 0 0.2-6.2 0.4-12.4 0.3-18.6 0.3-6.2-0.1-12.3-0.2-18.4-0.4q-5.2-0.3-10.5-0.6c-0.3 0-0.5-0.5-0.2-0.5z"/>
								<path class="s6" d="m269.2 187.4c1.9 6.4 3.5 12.8 5.2 19.3q2.6 9.7 5.1 19.4c3.3 12.6 6.6 25.1 9.1 37.9 2.5 12.8 4 25.7 4.3 38.8 0.2 13.2 0 26.5-0.1 39.8-0.1 13.4-0.2 26.7-0.5 40.1q0 2.4-0.1 4.9c0 0.2-0.2 0.2-0.2 0-0.4-13.3-0.2-26.6-0.2-39.8 0.1-13.3 0.3-26.6 0.1-39.9-0.1-13.2-1.1-26.3-3.4-39.3-2.2-12.8-5.3-25.4-8.6-38q-2.8-10.7-5.6-21.4c-1.9-7.2-3.9-14.4-5.5-21.7-0.1-0.3 0.3-0.3 0.4-0.1z"/>
								<path class="s6" d="m247.3 206.6c-2.7 0-5.3-0.2-7.9-0.7-2.7-0.5-5.2-1.4-7.7-2.1-2.5-0.7-5.1-0.9-7.6-1.3-2.5-0.4-5.1-1-7.4-2.2-0.1 0-0.2 0.1-0.1 0.2 2.3 1.2 4.6 2.3 7.1 3.1 2.5 0.8 5.2 0.9 7.8 1.5 2.6 0.7 5.2 1.5 7.9 1.8 2.6 0.3 5.3 0.3 7.9-0.1 0.2 0 0.1-0.2 0-0.2z"/>
								<path class="s6" d="m250.7 259.7c-0.5-2-1-4-1.5-5.9-1.1-4-2.2-8-3.4-12-2.4-7.8-4.7-15.7-7.2-23.5-1.4-4.4-2.7-8.9-4.4-13.2 0-0.1-0.2-0.1-0.2 0 0.9 4.1 2.1 8 3.2 12 1 4 2.2 8 3.3 11.9 2.3 7.9 4.5 15.8 7 23.6q1.1 3.3 2.2 6.6c0.8 2.2 1.4 4.5 2.3 6.6 0.1 0.1 0.2 0.1 0.2 0-0.3-2.1-1-4.1-1.5-6.1z"/>
							</g>
						</g>
					</g>
				</g>
			</g>
			<g>
				<g>
					<g>
						<g>
							<path class="s19" d="m259.2 93.2c-3.8 0.7-10.9-5.9-13.3-10.7-0.2-0.3 0.5-3.7 1-7.8 0.4-2.6 0.7-5.4 0.8-7.9l16.1 4.6c0 0-1.9 5.3-2 9.8q0 0.6 0 1.1 0 0.1 0.1 0.2c0.2 2 1 10-2.7 10.7z"/>
						</g>
						<path class="s6" d="m261.8 82.3q0 0.1 0.1 0.2-0.8 0-1.7 0c-9.5-0.8-11.6-11.6-12-15.6l15.6 4.5c0 0-1.9 5.3-2 9.8q0 0.6 0 1.1z"/>
					</g>
					<g>
						<g>
							<path class="s19" d="m244.9 46.9c-2.1 5.7 0 22.4 3.9 26.4 5.6 5.6 15.3 6.7 20.2-0.2 4.8-6.6 1.7-28.4-2.7-32-6.4-5.3-18.3-2.5-21.4 5.8z"/>
						</g>
						<g>
							<g>
								<path class="s6" d="m261.1 57.9c0-0.1 0 0 0 0.1 0.1 1.1 0.1 2.4-0.9 2.9 0 0 0 0.1 0 0.1 1.3-0.3 1.3-2.1 0.9-3.1z"/>
								<path class="s6" d="m260 56.8c-1.8 0.1-1.6 3.7 0.1 3.7 1.7-0.1 1.4-3.7-0.1-3.7z"/>
							</g>
							<g>
								<path class="s6" d="m267.5 57.4c0 0 0.1 0.1 0.1 0.1 0.1 1.2 0.3 2.5 1.3 2.8 0.1 0 0.1 0 0 0-1.2-0.1-1.5-1.8-1.4-2.9z"/>
								<path class="s6" d="m268.5 56.2c1.8-0.3 2.2 3.4 0.5 3.6-1.7 0.2-2.1-3.4-0.5-3.6z"/>
							</g>
							<path class="s6" d="m258.4 55.2c0.5-0.1 1-0.4 1.4-0.6 0.6-0.2 1-0.3 1.3-0.8 0.2-0.3 0.1-0.8-0.2-1-0.5-0.4-1.3-0.3-1.9 0-0.7 0.2-1.2 0.6-1.5 1.3-0.4 0.6 0.3 1.3 1 1.1z"/>
							<path class="s6" d="m269.7 54.2c-0.5 0-0.9-0.1-1.4-0.2-0.6-0.2-1.1-0.2-1.5-0.6-0.2-0.2-0.2-0.7 0-1 0.5-0.5 1.2-0.6 1.9-0.5 0.7 0.2 1.3 0.4 1.8 1 0.5 0.5-0.1 1.4-0.8 1.3z"/>
							<path class="s6" d="m260.6 68.3c0.3 0.2 0.6 0.6 1 0.6 0.4 0 0.9-0.2 1.2-0.4 0.1 0 0.1 0 0.1 0.1-0.3 0.4-0.9 0.7-1.4 0.7-0.5-0.1-0.8-0.5-1-1 0 0 0.1-0.1 0.1 0z"/>
							<g>
								<g>
									<path class="s6" d="m261.6 64.8c0.7 0.9 1.7 1.4 2.7 1.5q0.7 0.1 1.4 0 0.1 0 0.3 0 0.1-0.1 0.2-0.1c0.1 0 0.2-0.1 0.2-0.3q0 0 0-0.1 0 0 0 0v-0.1c0-0.9-0.2-2.2-0.2-2.2 0.3 0.1 2 0.8 1.9 0.3-0.5-3.8-1-7.9-2.3-11.6 0-0.1-0.2-0.1-0.2 0.1 0.3 3.6 1.3 7.2 1.7 10.8-0.5-0.2-1.4-0.5-1.9-0.4-0.1 0 0.4 2.5 0.4 2.9q0 0 0 0.1c-1.5 0.2-2.6-0.1-4.1-1-0.1-0.1-0.2 0-0.1 0.1z"/>
								</g>
							</g>
							<g>
								<path class="s6" d="m265.2 65.9c0 0-0.8 1.1-1.8 1.5-0.4 0.2-0.8 0.3-1.2 0.2-1-0.2-1-1-0.9-1.7 0.1-0.6 0.3-1.1 0.3-1.1 0 0 1.4 1.1 3.6 1.1z"/>
								<path class="s22" d="m263.4 67.4c-0.4 0.2-0.8 0.3-1.2 0.2-1-0.2-1-1-0.9-1.7 1 0 2 0.6 2.1 1.5z"/>
							</g>
						</g>
						<g>
							<path class="s23" d="m248.5 41.9c0.1 2.2 0.5 9.2-0.3 10.8-0.9 1.4-2.8 5.1-3.9 5.7-0.4-4.6-0.3-9.1 0.6-11.5 0.7-2 2-3.7 3.6-5z"/>
							<g>
								<path class="s6" d="m262.7 46.5c-1.1 1.6-2.9 2.5-4.9 2.4-1.8-0.2-3.8-1.3-4.6-3 0 0-0.1 0-0.1 0 0.9 1.9 2.6 3.3 4.7 3.4 2 0.1 4-1 5-2.7 0.1-0.1 0-0.2-0.1-0.1z"/>
								<path class="s6" d="m255.7 33.4c-3.2 0.4-6 2.4-6.9 4.7-0.6 1.4-0.6 2.8-0.3 4.1 0.1 0.1 0.2 0.1 0.2 0-0.4-2.2 0.4-4.7 2.6-6.5 2.1-1.6 5-2.4 7.7-1.6 1.4 0.4 2.5 1.1 3.2 2.1 0 0.1 0.3 0 0.2-0.1-1-1.9-3.8-3-6.7-2.7z"/>
								<path class="s6" d="m275 38.6c-0.7-1.5-1.9-2.8-3.4-3.5-2.1-1-4.3-0.7-6.5-0.2 0 0 0 0.1 0 0.1 1.9-0.4 3.8-0.7 5.6 0.1 1.5 0.6 2.8 1.6 3.6 3 1.5 3 0.7 6.8-2.1 8.7-1.5 1.1-3.5 1.5-5.3 1.1-0.1 0-0.1 0.1-0.1 0.1 3.4 0.8 7.1-1 8.3-4.3 0.5-1.6 0.5-3.5-0.1-5.1z"/>
								<path class="s6" d="m244 50.3c0 0-3.5-5.5-1.3-9 1.3-2 6.1-2.2 6.1-2.2 0 0 1.3-2.9 5.2-4.2 3.9-1.2 8.8 0.7 8.8 0.7 0 0 3.7-2.5 7.4-0.8 5.2 2.4 5.3 10 0.5 12.9-3.4 2-8.4-0.7-8.4-0.7-0.5 0.1-4.9 3.4-8.8-0.5 0 0-2.7 2.8-5.4 1.2 0 0-1.1 2.8-4.1 2.6z"/>
							</g>
						</g>
						<g>
							<path fill-rule="evenodd" class="s5" d="m259.4 64.1c-2.1-0.2-3.8-1.8-4.1-3.9-0.4-2.6 1.3-5 3.9-5.4 2.5-0.3 4.9 1.4 5.3 4 0.4 2.5-1.4 4.9-3.9 5.3q-0.6 0.1-1.2 0zm0.9-8.7q-0.5 0-1 0.1c-2.2 0.3-3.8 2.4-3.4 4.6 0.3 2.2 2.4 3.7 4.6 3.4 2.2-0.4 3.7-2.4 3.4-4.6-0.3-1.9-1.8-3.3-3.6-3.5z"/>
							<path fill-rule="evenodd" class="s5" d="m270.1 63.9c-1.8-0.2-3.2-2.2-3.2-4.6-0.1-1.2 0.3-2.4 0.9-3.3 0.6-0.9 1.5-1.4 2.5-1.4 0.9-0.1 1.8 0.4 2.5 1.3 0.6 0.9 1 2 1 3.3 0.1 2.5-1.5 4.7-3.4 4.7q-0.1 0-0.3 0zm0.4-8.7q-0.1 0-0.2 0c-0.8 0-1.5 0.4-2 1.2-0.5 0.7-0.8 1.8-0.8 2.9 0 2.2 1.3 4 2.9 4 1.6-0.1 2.8-1.9 2.8-4.1 0-1.1-0.4-2.1-0.9-2.9-0.5-0.7-1.1-1-1.8-1.1z"/>
							<path class="s5" d="m264.3 59.3l-0.4-0.5c0.7-0.6 2.3-1.4 3.5-0.2l-0.4 0.4c-1.1-1-2.6 0.3-2.7 0.3z"/>
							<path class="s5" d="m243.6 60.8l-0.6-0.2c0.1-0.3 1.3-2.6 2.7-2.8 1.3-0.3 9.7 0.4 10 0.4v0.6c-2.4-0.1-8.9-0.6-9.9-0.4-0.9 0.1-1.9 1.8-2.2 2.4z"/>
						</g>
						<g>
							<path class="s19" d="m247.7 60.6c0 0-3.6-5.5-6.1-4.2-2.4 1.2 0.1 9.1 2.9 10.3 2.9 1.2 4-1.4 4-1.4z"/>
							<path class="s6" d="m242.4 58.6c0 0 0 0.1 0 0.1 2 0.9 3 2.8 3.7 4.7-0.6-0.7-1.4-1.2-2.4-0.5-0.1 0.1 0 0.1 0 0.1 0.8-0.1 1.4 0 2 0.7 0.3 0.5 0.6 1.1 0.8 1.7 0.1 0.1 0.5 0 0.4-0.2q0 0 0 0c0.1-2.6-1.7-6.2-4.5-6.6z"/>
						</g>
					</g>
				</g>
				<g>
					<g>
						<path class="s5" d="m203.1 167.2c0.1 0.2 74.2 7.5 75 6.8 1-0.9-2.8-75.2-15.9-90.4-3.2-3.8-14.7-8.4-18.5-6.1-9.8 6-16 19.6-20 27.5-2.9 5.9-6.7 16-10.2 26.4-5.9 17.1-11 35-10.4 35.8z"/>
					</g>
					<path class="s21" d="m247.7 106.1c-0.3 1-0.6 2-0.6 3.2 0.6-0.9 1-1.9 1.4-2.9 0.3-1 0.6-2.1 0.6-3.2-0.6 0.9-1 1.9-1.4 2.9zm-30 18.9c-0.3 1-0.6 2.1-0.6 3.2 0.6-0.9 1.1-1.9 1.4-2.9 0.3-1 0.6-2.1 0.6-3.2-0.6 0.9-1 1.9-1.4 2.9zm42.9 44c-0.3 1-0.6 2.1-0.6 3.2 0.7-0.9 1.1-1.9 1.4-2.9 0.4-1 0.6-2.1 0.7-3.2-0.7 0.9-1.1 1.9-1.5 2.9zm-37 0.2q0 0.1 0 0.1 0.4 0.1 0.8 0.1c0.4-1 0.6-2 0.7-3.1-0.7 0.9-1.1 1.9-1.5 2.9zm-19.2-6.2c-0.4 1-0.6 2-0.7 3.2 0.7-1 1.1-1.9 1.5-2.9 0.3-1.1 0.6-2.1 0.6-3.2-0.7 0.9-1.1 1.9-1.4 2.9zm38-18.4c-0.3 1-0.6 2-0.6 3.1 0.7-0.9 1.1-1.9 1.4-2.9 0.4-1 0.6-2 0.6-3.1-0.6 0.9-1 1.9-1.4 2.9zm-10.6-51.9c-0.4 1-0.6 2.1-0.7 3.2 0.7-0.9 1.1-1.9 1.4-2.9 0.4-1 0.6-2 0.7-3.2-0.7 0.9-1.1 1.9-1.4 2.9zm39.1 13.6q0 0 0 0c-1-0.3-2.1-0.6-3.2-0.6 0.9 0.6 1.9 1.1 2.9 1.4q0.3 0.1 0.5 0.2-0.1-0.5-0.2-1zm-48.9 41.3c-1.1-0.4-2.1-0.6-3.2-0.7 0.9 0.7 1.9 1.1 2.9 1.5 1 0.3 2 0.6 3.1 0.6-0.9-0.7-1.8-1.1-2.8-1.4zm56 22.9c-1-0.3-2-0.6-3.1-0.6 0.9 0.6 1.9 1 2.9 1.4q0.2 0 0.4 0.1 0-0.4 0-0.8-0.1-0.1-0.2-0.1zm-27.4-11.2c-1-0.3-2-0.6-3.2-0.6 0.9 0.7 1.9 1.1 2.9 1.4 1 0.4 2.1 0.6 3.2 0.7-0.9-0.7-1.9-1.1-2.9-1.5zm20.3-22.1c-1-0.4-2-0.6-3.1-0.7 0.9 0.7 1.8 1.1 2.8 1.4 1.1 0.4 2.1 0.6 3.2 0.7-0.9-0.7-1.9-1.1-2.9-1.4zm-29.8-17.1c-1-0.3-2.1-0.6-3.2-0.6 0.9 0.7 1.9 1.1 2.9 1.4 1 0.4 2.1 0.6 3.2 0.7-0.9-0.7-1.9-1.1-2.9-1.5zm-25.6 40.6c-0.5-1-1-1.9-1.8-2.7 0.2 1.1 0.6 2.1 1.1 3.1 0.5 0.9 1 1.8 1.8 2.6-0.2-1.1-0.6-2.1-1.1-3zm32-76.9c-0.5-0.9-1-1.8-1.8-2.6 0.2 1.1 0.6 2 1.1 3 0.5 1 1 1.9 1.8 2.7-0.2-1.1-0.6-2.1-1.1-3.1zm15.3 35c-0.5-1-1-1.9-1.8-2.7 0.2 1.1 0.6 2.1 1.1 3 0.5 1 1 1.9 1.8 2.7-0.2-1.1-0.6-2.1-1.1-3zm-21.2 50.7c-0.5-0.9-1-1.9-1.8-2.7 0.2 1.1 0.6 2.1 1.1 3.1q0.3 0.6 0.6 1.2 0.4 0 0.8 0-0.3-0.8-0.7-1.6zm18.2-22c-0.5-0.9-1-1.8-1.8-2.6 0.2 1.1 0.6 2 1 3 0.5 1 1.1 1.9 1.8 2.7-0.2-1.1-0.6-2.1-1-3.1zm-28.6-13.5c-0.5-1-1-1.9-1.7-2.7 0.1 1.1 0.5 2.1 1 3.1 0.5 0.9 1 1.8 1.8 2.6-0.2-1.1-0.6-2-1.1-3zm-20.5 5.9q-0.2 0.5-0.4 1.1 0.2-0.1 0.3-0.2c1-0.5 1.9-1 2.7-1.8-1 0.2-1.8 0.5-2.6 0.9zm22.3 16.5c-0.9 0.5-1.9 1-2.7 1.8 1.1-0.2 2.1-0.6 3.1-1.1 0.9-0.4 1.9-1 2.7-1.7-1.1 0.1-2.1 0.5-3.1 1zm-5.3-45.6c-1 0.5-1.9 1-2.7 1.8 1.1-0.2 2.1-0.6 3.1-1.1 0.9-0.5 1.8-1 2.6-1.8-1.1 0.2-2.1 0.6-3 1.1zm42.3 47.9c-1 0.5-1.9 1-2.7 1.8 1.1-0.2 2.1-0.6 3-1.1 1-0.5 1.9-1 2.7-1.8-1.1 0.2-2.1 0.6-3 1.1zm-15.4-27.2c-1 0.4-1.9 1-2.7 1.7 1.1-0.1 2.1-0.5 3-1 1-0.5 1.9-1 2.7-1.8-1.1 0.2-2.1 0.6-3 1.1zm7.8-39.5c-1 0.5-1.9 1-2.7 1.8 1.1-0.2 2.1-0.6 3-1.1 1-0.5 1.9-1 2.7-1.8-1.1 0.2-2.1 0.6-3 1.1z"/>
				</g>
				<g>
					<g>
						<path class="s19" d="m256.8 98.2c10.8 16.2 32.5 45.6 46.4 46.5 14.7 1.1 34.1-15 42.4-19.9 3.5-2.1-16.4-24.6-20.6-23.3-4.1 1.3-16.8 12.1-20.1 12.4-3.2 0.4-23.7-17.7-37.9-27.2-16.6-11.2-19-1.7-10.2 11.5z"/>
						<g>
							<path class="s19" d="m364.4 81.3c1.8 3.3-6.9 7.2-6.9 7.2 0 0 2.7 0.1 4.4 2 2 2.1-0.5 6.2-0.5 6.2 0 0 2.6 0.6 4.3 2.8 1.6 2.2-0.3 6.7-0.3 6.7 0 0 2.1 2 2.2 4.8 0.1 4.9-6.2 9.1-10.1 11.7-4 2.7-18.9 6.3-21.5 7.3l-16-25c0 0 14.4-17 19.4-19.5 4.3-2 22.1-9.4 25-4.2z"/>
							<g>
								<path class="s6" d="m357.4 88.4c-5.1 1.1-9.9 3.4-14.5 5.7-0.1 0.1 0 0.3 0.1 0.2 4.5-2.3 9.8-3.5 14.5-5.7 0.1 0 0.1-0.2-0.1-0.2z"/>
								<path class="s6" d="m361.1 96.4c-1.2 0.3-2.2 0.9-3.2 1.5q-1.7 0.9-3.3 1.9-3.2 2-6.4 4.1c0 0 0 0.2 0.1 0.1q3.2-1.9 6.6-3.7 1.6-0.9 3.3-1.8c1-0.6 2.1-1.1 3-1.8 0.2-0.1 0.1-0.4-0.1-0.3z"/>
								<path class="s6" d="m365.3 106.2c-1 0.2-1.9 1-2.8 1.5q-1.5 1-2.9 1.9c-2 1.2-3.9 2.4-5.9 3.5-0.1 0.1 0 0.2 0.1 0.2 2-1.2 4-2.3 6.1-3.4q1.5-0.9 2.9-1.8c0.9-0.5 2-1 2.6-1.8 0 0 0-0.1-0.1-0.1z"/>
							</g>
						</g>
					</g>
					<g>
						<path class="s5" d="m318.7 104.2l20 29.8c0 0-26 16.4-40.3 11.3-14.3-5.1-36.6-35.5-43.9-49.4-7.4-13.9-1.3-19.3 12-10.3 13.2 9 36.7 26.6 37.6 27 0.9 0.3 14.6-8.4 14.6-8.4z"/>
						<path class="s21" d="m262.4 92c-1 0.5-1.9 1-2.7 1.8 1.1-0.2 2.1-0.6 3-1.1 1-0.5 1.9-1 2.7-1.8-1.1 0.2-2.1 0.6-3 1.1zm43.5 41c-1 0.5-1.9 1-2.7 1.8 1.1-0.2 2.1-0.6 3-1 1-0.5 1.9-1.1 2.7-1.8-1.1 0.2-2.1 0.6-3 1zm14.8-25.8q-0.6 0.2-1.2 0.5c-1 0.5-1.9 1-2.7 1.8 1.1-0.2 2.1-0.6 3.1-1.1q0.6-0.3 1.2-0.7zm-32.2 4.6c-0.5-1-1-1.9-1.8-2.7 0.2 1.1 0.6 2.1 1 3 0.5 1 1.1 1.9 1.8 2.7-0.2-1.1-0.6-2.1-1-3zm8.5 32c-0.5-1-1-1.9-1.7-2.7 0.1 1.1 0.5 2.1 1 3q0.1 0.2 0.2 0.5 0.6 0.2 1.1 0.4-0.3-0.6-0.6-1.2zm21.1-21.1c-0.5-0.9-1-1.9-1.8-2.7 0.2 1.1 0.6 2.1 1 3.1 0.5 0.9 1.1 1.9 1.8 2.7-0.2-1.1-0.6-2.1-1-3.1zm-28.8 6.5c-1-0.4-2-0.6-3.2-0.7 1 0.7 1.9 1.1 2.9 1.4 1.1 0.4 2.1 0.6 3.2 0.7-0.9-0.7-1.9-1.1-2.9-1.4zm46.6 0.7q-0.7-0.3-1.5-0.6c-1-0.3-2-0.6-3.1-0.6 0.9 0.6 1.9 1 2.9 1.4q1 0.4 2.2 0.5zm-65-23.4c-1-0.4-2.1-0.7-3.2-0.7 0.9 0.7 1.9 1.1 2.9 1.4 1 0.4 2.1 0.6 3.2 0.7-1-0.7-1.9-1.1-2.9-1.4zm6 16.6c-0.3 1-0.6 2.1-0.6 3.2 0.6-0.9 1-1.9 1.4-2.9 0.3-1 0.6-2.1 0.6-3.2-0.6 0.9-1 1.9-1.4 2.9zm27.4-4c-0.3 1-0.6 2.1-0.6 3.2 0.6-0.9 1-1.9 1.4-2.9 0.3-1 0.6-2.1 0.6-3.2-0.6 0.9-1 1.9-1.4 2.9zm13.6 20c-0.3 1-0.6 2-0.7 3.1 0.7-0.9 1.1-1.9 1.5-2.9 0.3-1 0.6-2 0.6-3.1-0.6 0.9-1 1.9-1.4 2.9z"/>
						<g>
							<path class="s6" d="m321.9 122.2q-2-3.3-4.1-6.4-1-1.6-2.1-3.1c-0.7-1.1-1.4-2.2-2.3-3.2 0-0.1-0.1-0.1-0.1 0 0.6 1.2 1.3 2.3 1.9 3.5 0.6 1.1 1.3 2.1 1.9 3.2q2 3.2 4 6.5c2.7 4.3 5.6 8.5 8.5 12.7 0 0.1 0.2 0 0.1-0.1-2.5-4.4-5.1-8.8-7.8-13.1z"/>
						</g>
						<path class="s6" d="m274.1 124.2c-1.8-2.5-8.8-12.4-10.1-14.3-2.6-3.7-5.1-7.5-7.7-11.3 0 0 0 0 0 0.1q1.9 3.6 4 7.1-0.2-0.2-0.4-0.4-1.2-1.3-2.4-2.6c0 0-0.1 0.1-0.1 0.1 0.8 1 1.5 1.9 2.3 2.8q0.7 0.8 1.5 1.6 1 1.5 2 3c1.3 1.9 8.2 11.9 10.8 14 0.1 0.1 0.2 0 0.1-0.1z"/>
					</g>
				</g>
				<g>
					<path class="s5" d="m258 80.4c-5.6-4-21.8-7.8-29-4.3-9.1 4.4-21.4 35.8-18.3 38.2 5.6 4.3 29.3-11.6 35-18.7 5.6-7 12.3-15.2 12.3-15.2z"/>
					<path class="s21" d="m234 74.9q-0.7 0.4-1.3 1c1.1-0.2 2.1-0.6 3-1.1q0.1 0 0.2 0-1 0-1.9 0.1zm-10.7 8.4q-0.3-0.5-0.6-1-0.2 0.3-0.4 0.7 0.1 0.4 0.3 0.7c0.4 0.9 1 1.9 1.8 2.7-0.2-1.1-0.6-2.1-1.1-3.1zm24.2 0.5c-0.5-0.9-1-1.8-1.8-2.6 0.2 1.1 0.6 2 1.1 3 0.5 1 1 1.9 1.8 2.7-0.2-1.1-0.6-2.1-1.1-3.1zm-30.4 16.8c-1-0.3-2-0.6-3.2-0.6 0.9 0.6 1.9 1.1 2.9 1.4 1 0.3 2.1 0.6 3.2 0.7-0.9-0.7-1.9-1.1-2.9-1.5zm14.7-7.9c-0.4 1-0.6 2.1-0.7 3.2 0.7-0.9 1.1-1.9 1.4-2.9 0.4-1 0.6-2 0.7-3.2-0.7 0.9-1.1 1.9-1.4 2.9z"/>
					<path class="s6" d="m252.3 89.5c-1.2 1-2.5 1.9-3.7 2.9 1.7-2 3.5-4 5.2-6.1 0-0.1-0.1-0.2-0.2-0.1-2.2 1.9-4.2 4.3-6.2 6.5-2.1 2.2-4.2 4.5-6.4 6.6-2.2 2.2-4.4 4.2-6.9 6-2.6 1.9-5.4 3.5-8.3 5q-2.4 1.3-4.9 2.4c-1.7 0.8-4.2 1.7-5.5 2.1-0.3 0-0.1 0.2 0 0.2 1.5-0.3 3.2-0.9 4.7-1.5q2.3-0.9 4.6-1.9c3-1.2 5.9-2.6 8.7-4.3 5.3-3.4 9.5-8 13.5-12.9q0.1-0.1 0.3-0.3 1.1-0.8 2.1-1.8 1.5-1.4 3.1-2.6c0.1-0.1 0-0.2-0.1-0.2z"/>
				</g>
			</g>
		</g>
	</g>
</svg>