<svg version="1.2" xmlns="http://www.w3.org/2000/svg" viewBox="0 0 500 375" width="500" height="375">
	<title>upload-svg</title>
	<style>
		.s0 { fill: #ebebeb } 
		.s1 { fill: #e6e6e6 } 
		.s2 { fill: #f5f5f5 } 
		.s3 { fill: #ffffff } 
		.s4 { fill: #f0f0f0 } 
		.s5 { fill: #e0e0e0 } 
		.s6 { fill: #00b0ff } 
		.s7 { fill: #263238 } 
		.s8 { opacity: .8;fill: #fafafa } 
		.s9 { opacity: .4;fill: #ffffff } 
		.s10 { fill: #7f3e3b } 
		.s11 { fill: #630f0f } 
		.s12 { opacity: .3;fill: #000000 } 
		.s13 { opacity: .2;fill: #000000 } 
	</style>
	<g id="freepik--background-complete--inject-16">
		<path class="s0" d="m0 330.4h500v0.3h-500z"/>
		<path class="s0" d="m78.5 338.8h33.2v0.2h-33.2z"/>
		<path class="s0" d="m133.3 346h30.2v0.3h-30.2z"/>
		<path class="s0" d="m56.9 348.1h38.2v0.2h-38.3z"/>
		<path class="s0" d="m434 347.5h15.9v0.3h-15.9z"/>
		<path class="s0" d="m391.5 347.5h39.3v0.3h-39.3z"/>
		<path class="s0" d="m250 338.7h30.3v0.2h-30.3z"/>
		<path class="s0" d="m284.7 338.7h72.1v0.2h-72.1z"/>
		<path fill-rule="evenodd" class="s0" d="m237 285.8h-193.1q-1.1 0-2.2-0.4-1-0.5-1.8-1.3-0.8-0.8-1.3-1.8-0.4-1.1-0.4-2.2v-271.4q0-1.2 0.5-2.2 0.4-1 1.2-1.8 0.8-0.8 1.8-1.3 1.1-0.4 2.2-0.4h193.1q1.1 0 2.2 0.4 1 0.5 1.8 1.3 0.8 0.8 1.3 1.8 0.4 1.1 0.4 2.2v271.4q0 1.1-0.4 2.2-0.5 1-1.3 1.8-0.8 0.8-1.8 1.3-1.1 0.4-2.2 0.4zm-193.1-282.6q-1.1 0-2.1 0.4-1 0.4-1.7 1.2-0.8 0.8-1.2 1.8-0.4 1-0.4 2.1v271.4q0 1.1 0.4 2.1 0.4 1 1.2 1.7 0.7 0.8 1.7 1.2 1 0.4 2.1 0.5l193.1-0.1q1.1 0 2.1-0.4 1-0.4 1.8-1.2 0.7-0.7 1.1-1.7 0.5-1 0.5-2.1v-271.4q0-1.1-0.5-2.1-0.4-1-1.1-1.8-0.8-0.8-1.8-1.2-1-0.4-2.1-0.4z"/>
		<path fill-rule="evenodd" class="s0" d="m453.3 285.8h-193.1q-1.1 0-2.2-0.4-1-0.5-1.8-1.3-0.8-0.8-1.3-1.8-0.4-1.1-0.4-2.2v-271.4q0-1.2 0.5-2.2 0.4-1 1.2-1.8 0.8-0.8 1.8-1.3 1.1-0.4 2.2-0.4h193.1q1.1 0 2.2 0.4 1 0.5 1.8 1.3 0.8 0.8 1.3 1.8 0.4 1 0.4 2.2v271.4q0 1.1-0.4 2.2-0.5 1-1.3 1.8-0.8 0.8-1.8 1.3-1.1 0.4-2.2 0.4zm-193.1-282.6q-1.1 0-2.1 0.4-1 0.4-1.7 1.2-0.8 0.8-1.2 1.8-0.4 1-0.5 2.1v271.4q0.1 1.1 0.5 2.1 0.4 1 1.2 1.7 0.7 0.8 1.7 1.2 1 0.4 2.1 0.4h193.1q1.1 0 2.1-0.4 1-0.4 1.8-1.2 0.7-0.7 1.2-1.7 0.4-1 0.4-2.1v-271.4q0-1.1-0.4-2.1-0.5-1-1.2-1.8-0.8-0.8-1.8-1.2-1-0.4-2.1-0.4z"/>
		<path class="s1" d="m264.6 214.2h28.8v116.2h-28.8z"/>
		<path class="s2" d="m281.4 330.4h12v-20h-24.5l12.5 20z"/>
		<path class="s1" d="m56.9 214.2h28.7v116.2h-28.7z"/>
		<path class="s2" d="m75.2 214.2h218.2v109.3h-218.2z"/>
		<path fill-rule="evenodd" class="s0" d="m284.6 247.8h-200.6v-23.9h200.6zm-199.6-1h198.6v-21.9h-198.6z"/>
		<path class="s2" d="m87.1 330.4h-11.9v-20h24.5l-12.6 20z"/>
		<path fill-rule="evenodd" class="s0" d="m284.6 313.9h-200.6v-57h200.6zm-199.6-1h198.6v-55h-198.6z"/>
		<path class="s1" d="m180.5 26.5h227.4v157.5h-227.4z"/>
		<path class="s2" d="m184.7 26.5h227.3v157.5h-227.3z"/>
		<path class="s3" d="m404.5 34.5v141.5h-212.3v-141.5z"/>
		<path class="s1" d="m404.6 34.5v141.5h-3.2v-141.5z"/>
		<path class="s2" d="m187.8 47.2h221.1v5.3h-221.1z"/>
		<g style="opacity: .5">
			<path class="s4" d="m399.4 21.3h8.9v174.8h-8.9z"/>
			<path class="s4" d="m387.9 21.3h9v174.8h-9z"/>
			<path class="s4" d="m376.5 21.3h9v174.8h-9z"/>
			<path class="s4" d="m365.1 21.3h9v174.8h-9z"/>
			<path class="s4" d="m353.7 21.3h9v174.8h-9z"/>
			<path class="s4" d="m342.3 21.3h9v174.8h-9z"/>
			<path class="s4" d="m330.9 21.3h9v174.8h-9z"/>
			<path class="s4" d="m319.5 21.3h9v174.8h-9z"/>
			<path class="s4" d="m308.1 21.3h9v174.8h-9z"/>
			<path class="s4" d="m296.7 21.3h9v174.8h-9z"/>
			<path class="s4" d="m285.3 21.3h9v174.8h-9z"/>
			<path class="s4" d="m273.9 21.3h9v174.8h-9z"/>
			<path class="s4" d="m262.5 21.3h8.9v174.8h-8.9z"/>
			<path class="s4" d="m251.1 21.3h8.9v174.8h-8.9z"/>
			<path class="s4" d="m239.7 21.3h8.9v174.8h-8.9z"/>
		</g>
		<path class="s4" d="m62.4 45.3h65.9v119.9h-66z"/>
		<path class="s2" d="m66.6 45.3h75.8v119.9h-75.8z"/>
		<path class="s3" d="m69.7 162.3v-114.1h69.6v114.1z"/>
		<path class="s2" d="m88.3 139.6v-68.7c0-1.5 1.2-2.8 2.7-2.8h27c1.5 0 2.8 1.3 2.8 2.8v68.7c0 1.5-1.3 2.8-2.8 2.8h-27c-1.5 0-2.7-1.3-2.7-2.8z"/>
		<path class="s0" d="m383.9 145.3l13.5 33.2c-0.4 96.1 3.9 101.6 4 118.2h-34c-1.3-80.5 10.7-62.4 16.5-151.4z"/>
		<path class="s0" d="m402.9 243.4c-27.4-75.4-90.4-52-87.6-24.5 2.8 27.4 103.4 67.9 87.6 24.5z"/>
		<path class="s0" d="m392.6 286.9c-15-48.6-54.7-40.7-54.7-18.3 0 22.3 63.2 46.3 54.6 18.3z"/>
		<path class="s0" d="m391.5 199.2c-23.5-65-81.9-56-77.2-28.6 4.7 27.4 90.7 65.9 77.2 28.6z"/>
		<path class="s0" d="m391.6 170.1c2.2-44.3-41.6-62.5-38.6-36 3.1 26.4 37.4 61.4 38.6 36z"/>
		<path class="s0" d="m388.4 215.4c9.2-54.6 65.4-75.3 59.1-44.4-6.3 30.8-64.4 75.7-59.1 44.4z"/>
		<path class="s0" d="m383.6 184.5c-10.9-57.2 39.6-82.6 41-55 1.5 27.6-34.7 87.9-41 55z"/>
		<path class="s0" d="m379.3 249.1c22.3-55.1 70-41.4 65.2-16.3-4.8 25-78.1 48-65.2 16.3z"/>
		<path class="s0" d="m390.3 287.6c-0.5-35.5 31.7-44.7 32.1-24.1 0.4 20.6-31.8 44.6-32.1 24.1z"/>
		<path class="s5" d="m380.4 330.6c-4.2 0.1-8.4-0.6-12.3-2-4-1.4-7.7-3.4-11-6.1-3.2-2.6-6.1-5.7-8.3-9.3-2.2-3.5-3.8-7.5-4.7-11.6q-0.4-1.6-0.8-3.3-0.4-1.6-0.8-3.2-0.5-1.7-1.1-3.3-0.5-1.6-1.1-3.2l-0.3-0.6h80.8l-0.2 0.6q-0.7 1.6-1.2 3.2-0.6 1.6-1 3.3-0.5 1.6-0.9 3.2-0.4 1.7-0.7 3.4c-1 4-2.6 8-4.8 11.5-2.2 3.6-5 6.7-8.3 9.3-3.3 2.7-7 4.7-11 6.1-3.9 1.4-8.1 2.1-12.3 2z"/>
	</g>
	<g id="freepik--Shadow--inject-16">
		<path id="freepik--path--inject-16" class="s2" d="m250 375.6c-107.2 0-193.9-5.1-193.9-11.4 0-6.2 86.7-11.3 193.9-11.3 107.2 0 193.9 5.1 193.9 11.3 0 6.3-86.7 11.4-193.9 11.4z"/>
	</g>
	<g id="freepik--Cloud--inject-16">
		<path class="s6" d="m129.4 161.9l-0.7-0.7q1-0.8 2-1.6 1-0.7 2-1.4 1.1-0.8 2.1-1.4 1.1-0.7 2.1-1.3l0.5 0.8q-1 0.6-2 1.3-1.1 0.7-2.1 1.4-1 0.7-2 1.4-1 0.8-1.9 1.5z"/>
		<path class="s6" d="m108.8 190.5l-0.9-0.3q1.3-3.4 2.9-6.7 1.7-3.3 3.6-6.3 2-3.1 4.3-6 2.3-2.8 4.9-5.4l0.7 0.7q-2.6 2.6-4.8 5.4-2.3 2.8-4.2 5.8-2 3-3.6 6.2-1.6 3.3-2.9 6.6z"/>
		<path class="s6" d="m302.6 234.6c-0.1-8.7-2.3-17.2-6.4-24.9-4.1-7.6-10.1-14.1-17.3-18.9-7.2-4.9-15.5-7.9-24.1-8.7-8.7-0.9-17.4 0.3-25.4 3.5-5.9-12-15.3-21.8-27.1-28.2-11.7-6.4-25.1-9-38.3-7.5-13.3 1.6-25.7 7.3-35.7 16.2-9.9 9-16.7 20.8-19.6 33.8-14.4 0.9-27.9 7.4-37.6 18-9.6 10.7-14.8 24.7-14.3 39.1 0.4 14.4 6.5 28 16.9 38 10.3 10 24.2 15.6 38.6 15.6h176.3c9.2 0 18.1-3.2 25.2-9.1 7-5.9 11.8-14 13.5-23.1 1.6-9 0.1-18.4-4.4-26.4-4.5-8-11.7-14.2-20.3-17.4z"/>
		<path class="s7" d="m262.9 216.7h-141.1q-0.9 0-1.6-0.3-0.8-0.4-1.4-1-0.7-0.6-1-1.4-0.3-0.8-0.3-1.6 0-0.9 0.3-1.7 0.3-0.8 1-1.4 0.6-0.6 1.4-0.9 0.7-0.4 1.6-0.4h141.1q0.9 0 1.7 0.4 0.8 0.3 1.4 0.9 0.6 0.6 0.9 1.4 0.3 0.8 0.3 1.7 0 0.8-0.3 1.6-0.3 0.8-0.9 1.4-0.6 0.6-1.4 1-0.8 0.3-1.7 0.3z"/>
		<path fill-rule="evenodd" class="s3" d="m241.6 275.3h-98.5c-3.9 0-7.6-1.5-10.3-4.3-2.7-2.7-4.3-6.4-4.3-10.3 0-3.8 1.6-7.5 4.3-10.3 2.7-2.7 6.4-4.2 10.3-4.2h98.5c3.9 0 7.6 1.5 10.3 4.2 2.8 2.8 4.3 6.5 4.3 10.3 0 3.9-1.5 7.6-4.3 10.3-2.7 2.8-6.4 4.3-10.3 4.3zm-98.5-28.1c-3.6 0-7.1 1.4-9.6 3.9-2.5 2.6-4 6-4 9.6 0 3.6 1.5 7.1 4 9.6 2.5 2.6 6 4 9.6 4h98.5c3.6 0 7.1-1.4 9.6-4 2.6-2.5 4-6 4-9.6 0-3.6-1.4-7-4-9.6-2.5-2.5-6-3.9-9.6-3.9z"/>
		<path class="s3" d="m166.1 271.8h-23c-1.4 0-2.9-0.3-4.2-0.8-1.4-0.6-2.6-1.4-3.6-2.4-1.1-1.1-1.9-2.3-2.4-3.6-0.6-1.4-0.9-2.8-0.9-4.3 0-1.4 0.3-2.9 0.8-4.2 0.6-1.3 1.4-2.6 2.4-3.6 1.1-1 2.3-1.8 3.6-2.4 1.4-0.5 2.8-0.8 4.3-0.8h23c1.4 0 2.8 0.3 4.2 0.8 1.3 0.6 2.5 1.4 3.6 2.4 1 1 1.8 2.3 2.4 3.6 0.5 1.3 0.8 2.8 0.8 4.2 0 1.5-0.3 2.9-0.8 4.2-0.6 1.4-1.4 2.6-2.4 3.6-1 1-2.2 1.9-3.6 2.4-1.3 0.6-2.7 0.9-4.2 0.9z"/>
		<path class="s6" d="m266.9 132.6l-18.7 79.8h-111.6l31.2-133.1 77.3 18.1 21.8 35.2z"/>
		<path class="s8" d="m266.9 132.6l-18.7 79.8h-111.6l31.2-133.1 77.3 18.1 21.8 35.2z"/>
		<path class="s6" d="m252.4 147.4l-84.8-19.9q-0.4-0.1-0.8-0.3-0.4-0.3-0.6-0.7-0.2-0.3-0.3-0.8-0.1-0.4 0-0.9 0.1-0.4 0.4-0.8 0.2-0.3 0.6-0.6 0.4-0.2 0.8-0.3 0.5-0.1 0.9 0l84.8 19.9q0.5 0.1 0.8 0.4 0.4 0.2 0.6 0.6 0.3 0.4 0.3 0.8 0.1 0.5 0 0.9-0.1 0.5-0.4 0.8-0.2 0.4-0.6 0.7-0.4 0.2-0.8 0.3-0.5 0-0.9-0.1z"/>
		<path class="s6" d="m249.1 161.3l-84.7-20q-0.5-0.1-0.8-0.3-0.4-0.3-0.7-0.7-0.2-0.3-0.3-0.8 0-0.4 0.1-0.9 0.1-0.4 0.3-0.8 0.3-0.3 0.7-0.6 0.4-0.2 0.8-0.3 0.5-0.1 0.9 0l84.8 19.9q0.4 0.1 0.8 0.4 0.3 0.3 0.6 0.6 0.2 0.4 0.3 0.9 0.1 0.4 0 0.8v0.1q-0.1 0.4-0.4 0.8-0.3 0.3-0.6 0.6-0.4 0.2-0.9 0.3-0.4 0.1-0.9-0.1z"/>
		<path class="s6" d="m245.9 175l-84.8-19.9q-0.4-0.1-0.8-0.4-0.3-0.2-0.6-0.6-0.2-0.4-0.3-0.8-0.1-0.5 0-0.9 0.1-0.5 0.4-0.8 0.3-0.4 0.6-0.6 0.4-0.3 0.9-0.3 0.4-0.1 0.9 0l84.7 19.9q0.5 0.1 0.8 0.3 0.4 0.3 0.7 0.7 0.2 0.4 0.3 0.8 0 0.5-0.1 0.9-0.1 0.4-0.3 0.8-0.3 0.4-0.7 0.6-0.4 0.3-0.8 0.3-0.5 0.1-0.9 0z"/>
		<path class="s6" d="m242.7 188.8l-84.8-19.8q-0.5-0.1-0.8-0.4-0.4-0.2-0.6-0.6-0.3-0.4-0.3-0.8-0.1-0.5 0-0.9 0.1-0.5 0.4-0.8 0.2-0.4 0.6-0.6 0.4-0.3 0.8-0.3 0.5-0.1 0.9 0l84.8 19.9q0.4 0.1 0.8 0.3 0.4 0.3 0.6 0.7 0.2 0.4 0.3 0.8 0.1 0.5 0 0.9-0.1 0.4-0.4 0.8-0.2 0.3-0.6 0.6-0.4 0.2-0.9 0.3-0.4 0-0.8-0.1z"/>
		<path class="s6" d="m205.7 194.7l-51-12q-0.5-0.1-0.8-0.3-0.4-0.3-0.6-0.7-0.3-0.4-0.3-0.8-0.1-0.5 0-0.9 0.1-0.4 0.4-0.8 0.2-0.4 0.6-0.6 0.4-0.2 0.8-0.3 0.5-0.1 0.9 0l51.1 12q0.4 0.1 0.8 0.4 0.4 0.2 0.6 0.6 0.2 0.4 0.3 0.9 0.1 0.4 0 0.8-0.1 0.5-0.4 0.9-0.2 0.3-0.6 0.6-0.4 0.2-0.9 0.3-0.4 0-0.9-0.1z"/>
		<path class="s6" d="m266.9 132.6l-28.5-6.7 6.7-28.5 21.8 35.2z"/>
	</g>
	<g id="freepik--Character--inject-16">
		<path fill-rule="evenodd" class="s7" d="m355.8 208.3l-23.7 155.9h-4.7l3.2-20.6h-60.4l-3.1 20.6h-4.7l23.7-155.9zm-21.3 109.1h-60.3l-3.4 22.1h60.4zm4-26.3h-60.4l-3.4 22.1h60.4zm4-26.2h-60.4l-3.4 22.1h60.4zm4-26.2h-60.4l-3.3 22.1h60.4zm0.6-4.1l3.4-22.2h-60.4l-3.4 22.2z"/>
		<path fill-rule="evenodd" class="s7" d="m389.3 364.2h-4.7l-3.1-20.6h-60.4l3.1 20.6h-4.7l-23.7-155.9h69.8zm-84.8-129.8h60.4l-3.4-22.1h-60.4zm4 26.3h60.4l-3.4-22.2h-60.3zm4 26.3h60.3l-3.3-22.1h-60.4zm4 26.2h60.4l-3.3-22.1h-60.4zm64.4 26.2l-3.4-22.1h-60.4l3.4 22.1z"/>
		<path fill-rule="evenodd" class="s9" d="m389.3 364.2h-4.7l-3.1-20.6h-60.4l3.1 20.6h-4.7l-23.7-155.9h69.8zm-84.8-129.8h60.4l-3.4-22.1h-60.4zm4 26.3h60.4l-3.4-22.2h-60.3zm4 26.3h60.3l-3.3-22.1h-60.4zm4 26.2h60.4l-3.3-22.1h-60.4zm64.4 26.2l-3.4-22.1h-60.4l3.4 22.1z"/>
		<path class="s10" d="m335.7 56.6c2 1.5 3.8 3.1 5.6 4.7q2.7 2.4 5.3 4.9 1.3 1.3 2.5 2.6 1.3 1.3 2.5 2.7 1.2 1.4 2.4 2.8 1.2 1.4 2.3 2.8l1.1 1.5 0.6 0.8q0.1 0.1 0.2 0.3 0.1 0.2 0.3 0.3 0.1 0.2 0.2 0.4 0.1 0.2 0.1 0.4 0.4 0.6 0.6 1.2 0.2 0.6 0.4 1.3 0.2 0.6 0.3 1.3 0.1 0.7 0.1 1.3 0.1 1.1 0.1 2.1-0.1 1.1-0.2 2.1-0.1 1-0.3 2.1-0.2 1-0.4 2-0.5 1.8-1.1 3.6-0.5 1.7-1.2 3.5-0.7 1.7-1.5 3.4-0.8 1.7-1.8 3.3l-5.1-2.1q0.4-1.6 0.7-3.2 0.4-1.7 0.6-3.3 0.3-1.6 0.5-3.3 0.2-1.6 0.4-3.3 0.1-0.7 0.1-1.4 0-0.7 0-1.5 0-0.7-0.1-1.4-0.1-0.7-0.2-1.4 0-0.2-0.1-0.4 0-0.2-0.1-0.4-0.1-0.2-0.2-0.4-0.1-0.1-0.2-0.3c0-0.1 0-0.1-0.1-0.1l-0.5-0.6-1.1-1.2q-4.5-4.9-9.5-9.5c-3.3-3-6.8-6.1-10.2-8.9z"/>
		<path class="s10" d="m350.8 103.8l-5.8 4 7 4.3c0 0 3.6-3.5 2.1-6.7z"/>
		<path class="s10" d="m342.1 114.4l5.3 3 4.6-5.4-7-4.2-2.9 6.6z"/>
		<path class="s7" d="m296.6 35.7c0.1 0.6-0.1 1.2-0.5 1.4-0.4 0.1-0.9-0.4-1.1-1-0.2-0.7 0.1-1.3 0.5-1.4 0.4-0.1 0.9 0.3 1 1z"/>
		<path class="s11" d="m296.6 36.9q-0.1 0.8-0.3 1.6-0.1 0.9-0.4 1.6-0.2 0.8-0.4 1.6-0.3 0.8-0.6 1.6 0.4 0.1 0.8 0.2 0.4 0 0.8 0 0.5 0 0.9-0.1 0.4-0.2 0.7-0.4z"/>
		<path class="s7" d="m297.9 31.5q0 0 0 0-0.1 0-0.1 0 0 0-0.1 0 0 0 0 0-0.4-0.1-0.7-0.2-0.4-0.1-0.8 0-0.3 0-0.7 0.1-0.3 0.1-0.6 0.3-0.2 0.1-0.3 0-0.2 0-0.3-0.1 0-0.1 0-0.3 0-0.1 0.1-0.2 0.4-0.3 0.8-0.4 0.5-0.2 0.9-0.2 0.5 0 1 0 0.4 0.1 0.9 0.3 0.1 0 0.2 0.1 0 0.1 0 0.3 0 0.1-0.1 0.2-0.1 0.1-0.2 0.1z"/>
		<path class="s10" d="m317.1 37.5c0.9 6.1 2.2 15.5 7.6 17.8 0 0 0.5 6.4-10.1 10.2-11.7 4.2-7.7-3.8-7.7-3.8 5.9-3.8 4-8.5 1.3-12.5z"/>
		<path class="s7" d="m325.6 54c0-1.9-1.9-5.2-3.9-5-2.1 0.3-10.4 3.3-13.4 6.1-3.1 2.8-0.9 7.7-0.9 7.7z"/>
		<path fill-rule="evenodd" class="s6" d="m389.5 285.2c-0.5 0.5-1.1 1-1.6 0.9-0.2 0-0.4-0.1-0.6-0.5q0-0.1 0-0.2 0-0.1 0-0.2 0-0.1 0.1-0.2 0 0 0-0.1c0.6-1 3-1.5 3.1-1.5q0 0 0.1 0 0 0 0 0 0 0 0 0.1 0.1 0 0.1 0 0 0 0 0 0 0.1 0 0.1 0 0 0 0 0 0.1 0 0.1-0.1 0.2-0.3 0.4-0.1 0.2-0.3 0.4-0.1 0.2-0.3 0.3-0.1 0.2-0.3 0.4zm-1.6-0.3q-0.1 0-0.1 0 0 0 0 0.1 0 0 0 0-0.1 0-0.1 0.1 0 0 0 0.1 0 0 0 0-0.1 0.1 0 0.2 0 0 0 0c0.1 0.4 0.2 0.4 0.3 0.4 0.5 0 1.5-1 2.2-1.9q-0.4 0-0.7 0.1-0.3 0.1-0.5 0.2-0.3 0.2-0.6 0.3-0.3 0.2-0.5 0.4z"/>
		<path fill-rule="evenodd" class="s6" d="m390.7 283.7q0 0-0.1 0 0 0 0 0 0 0 0 0.1 0 0 0 0c-0.8 0.2-3 0.1-3.5-0.5q-0.1-0.1-0.1-0.2 0-0.1 0-0.2 0-0.1 0.1-0.2 0-0.1 0.1-0.1 0-0.1 0.1-0.2 0.1-0.1 0.2-0.1 0-0.1 0.1-0.1 0.1 0 0.2 0c1.1-0.1 2.8 1.2 2.9 1.3q0 0 0 0 0 0 0 0 0 0.1 0 0.1 0 0 0 0 0 0 0 0 0 0.1 0 0.1 0 0 0 0 0 0 0 0zm-3.2-1c0 0 0 0-0.1 0.1-0.1 0.1 0 0.2 0 0.3 0.3 0.4 1.8 0.5 2.7 0.4q-0.2-0.2-0.5-0.4-0.2-0.1-0.5-0.3-0.3-0.1-0.6-0.2-0.3-0.1-0.6-0.1-0.1 0-0.1 0-0.1 0-0.1 0.1-0.1 0-0.1 0-0.1 0.1-0.1 0.1z"/>
		<path fill-rule="evenodd" class="s6" d="m329 306.1c-0.9 0-1.9-0.1-2.2-0.6q0 0 0-0.1-0.1-0.1-0.1-0.2 0-0.1 0.1-0.2 0-0.1 0-0.2 0.1-0.1 0.1-0.2 0.1 0 0.2-0.1 0 0 0.1-0.1 0.1 0 0.2 0c1.2-0.4 3.8 1.1 3.9 1.2q0 0 0 0 0 0 0.1 0.1 0 0 0 0 0 0 0 0 0 0.1 0 0.1-0.1 0-0.1 0 0 0.1 0 0.1 0 0-0.1 0-0.2 0-0.5 0.1-0.3 0-0.6 0-0.3 0.1-0.5 0.1-0.3 0-0.6 0zm-1.2-1.4q0 0 0 0-0.1 0-0.1 0-0.1 0-0.1 0-0.1 0-0.1 0-0.1 0-0.1 0-0.1 0-0.1 0.1 0 0-0.1 0 0 0.1 0 0.1c-0.2 0.2-0.1 0.3 0 0.4 0.3 0.5 2.2 0.5 3.5 0.3q-0.3-0.2-0.7-0.3-0.3-0.2-0.7-0.3-0.3-0.1-0.7-0.2-0.4-0.1-0.7-0.1z"/>
		<path fill-rule="evenodd" class="s6" d="m331.2 305.9q0 0 0 0 0 0 0 0 0 0 0 0 0 0 0 0c-0.9-0.4-2.7-2-2.5-2.8 0-0.2 0.1-0.5 0.6-0.5q0.1 0 0.3 0 0.1 0 0.2 0 0.2 0.1 0.3 0.1 0.1 0.1 0.2 0.2 0.3 0.3 0.5 0.6 0.2 0.4 0.3 0.7 0.1 0.4 0.2 0.8 0.1 0.3 0.1 0.7 0 0.1 0 0.1 0 0 0 0 0 0 0 0.1 0 0 0 0 0 0-0.1 0 0 0 0 0 0 0 0 0-0.1 0-0.1 0zm-1.8-3h-0.1c-0.3 0-0.3 0.1-0.3 0.2-0.1 0.5 1.1 1.7 2 2.3q0-0.3-0.1-0.6-0.1-0.3-0.2-0.6-0.2-0.3-0.3-0.6-0.2-0.2-0.4-0.5-0.1 0-0.1-0.1-0.1 0-0.2 0 0-0.1-0.1-0.1-0.1 0-0.2 0z"/>
		<path class="s10" d="m339.3 305.7h-7.3l-0.8-17h7.4l0.7 17z"/>
		<path class="s10" d="m398.2 280.8l-6.8 2.5-8.7-15.3 6.8-2.4 8.7 15.2z"/>
		<path class="s7" d="m390.3 282.6l5.8-5.9q0-0.1 0.1-0.2 0.1 0 0.2 0 0.1 0 0.2 0 0.1 0 0.2 0.1l5.7 3.5q0.2 0.1 0.4 0.3 0.1 0.2 0.1 0.5 0.1 0.2 0 0.4-0.1 0.3-0.3 0.4c-2 2-3.1 3-5.6 5.6-1.6 1.6-6.2 7-8.3 9.2-2.2 2.3-4.7 0.4-4-0.7 3.1-4.9 4.9-9.6 5-12q0-0.2 0.1-0.3 0-0.2 0.1-0.4 0-0.1 0.1-0.2 0.1-0.2 0.2-0.3z"/>
		<path class="s7" d="m332 304.9h8q0.1 0 0.2 0 0.1 0.1 0.2 0.1 0.1 0.1 0.1 0.2 0.1 0.1 0.1 0.2l1.5 6.5q0 0.2 0 0.5-0.1 0.2-0.2 0.4-0.2 0.2-0.4 0.3-0.2 0.1-0.5 0.1c-2.9 0-7.1-0.2-10.7-0.2-4.2 0-6.1 0.2-11.1 0.2-3 0-3.8-3-2.6-3.3 5.8-1.3 8.6-1.4 13.6-4.4q0.2-0.2 0.4-0.3 0.2-0.1 0.5-0.2 0.2 0 0.4-0.1 0.3 0 0.5 0z"/>
		<path class="s10" d="m312.1 71.2c-1.2 2.8-2.4 5.5-3.6 8.2-1.3 2.7-2.6 5.4-3.9 8q-1.1 2-2.2 4-1.1 2-2.3 4-1.2 1.9-2.4 3.8-1.3 1.9-2.6 3.8-1.4 1.9-3 3.7c-0.5 0.7-1.1 1.3-1.8 1.9q-0.2 0.3-0.5 0.5-0.3 0.3-0.7 0.5-0.3 0.3-0.6 0.5-0.3 0.2-0.6 0.4-0.6 0.4-1.2 0.7-0.5 0.3-1.1 0.6-0.6 0.3-1.2 0.5-0.6 0.3-1.2 0.5-2.2 0.9-4.4 1.6-2.2 0.6-4.4 1.1-2.2 0.5-4.4 1-2.3 0.4-4.5 0.7-2.2 0.3-4.5 0.5l-1.1-5.4c5.3-2 10.8-4 15.8-6.2q1.9-0.9 3.6-1.8 0.4-0.2 0.8-0.4 0.4-0.2 0.7-0.5 0.4-0.2 0.8-0.5 0.3-0.2 0.7-0.5 0.1-0.1 0.2-0.2 0.1-0.1 0.3-0.2 0.1-0.1 0.2-0.2 0.1-0.1 0.2-0.2c0.3-0.4 0.7-0.9 1.1-1.4q1.2-1.5 2.3-3.2c1.5-2.2 2.9-4.6 4.2-7.1 1.3-2.4 2.6-5 3.9-7.5 2.4-5.1 4.9-10.3 7.1-15.4z"/>
		<path class="s6" d="m328.8 52.2c10.6-0.8 20 14.8 20 14.8l-7.6 12.3q-2-0.8-4-1.8-1.9-0.9-3.8-2.1-1.9-1.1-3.7-2.4-1.8-1.2-3.5-2.6c-7.1-6.3-4.6-17.6 2.6-18.2z"/>
		<path class="s12" d="m328.2 65.4l11.1 14.9-0.5 0.6c0 0-3.9-3-8.3-7.3z"/>
		<path class="s6" d="m299.6 63.8c-0.6 5.2 8 28 10 55l39.1-3.9c-0.3-5.1-3.1-27-8.3-51.6-1.5-6.8-6.7-12-13.5-10.7h-0.2q-2.1 0.4-4.1 0.9-2 0.5-4.1 1-2 0.5-4 1.1-2 0.6-4 1.2-1.1 0.4-2.2 0.8-1.1 0.5-2.2 1-1.1 0.5-2.2 1-1.1 0.5-2.2 1.1-0.4 0.2-0.8 0.5-0.4 0.4-0.6 0.8-0.3 0.4-0.5 0.9-0.2 0.4-0.2 0.9z"/>
		<path class="s12" d="m303.6 82.8c0.6 2.7 1.3 5.7 1.9 8.9 6-1.4 4.8-14.6 5-14.8z"/>
		<path class="s6" d="m312.3 66.4c3 10.3-8.1 24-8.1 24l-11.2-7.2c0 0 0-9.4 3.5-16.8 4.6-9.3 13.7-7.4 15.8 0z"/>
		<path class="s10" d="m260 111.3l-4.5-0.6 0.1 9.4c0 0 6 0.6 9.4-3.6l-0.7-1.8q-0.2-0.6-0.7-1.2-0.4-0.6-1-1.1-0.5-0.4-1.2-0.7-0.7-0.3-1.4-0.4z"/>
		<path class="s10" d="m247.8 112.8l2.9 7.7 4.9-0.4-0.1-9.4-7.7 2.1z"/>
		<path class="s13" d="m331.2 288.7l0.4 9.6h7.4l-0.4-9.6h-7.4z"/>
		<path class="s13" d="m389.5 265.6l-6.8 2.4 4.8 8.5 6.5-3.1-4.5-7.8z"/>
		<path class="s10" d="m317.8 28.8c1.5 8 2.8 12.7-0.1 17.8-4.5 7.7-15.2 6.5-19.2-0.9-3.5-6.7-5.4-18.8 1.5-23.9 1.5-1.2 3.3-1.9 5.2-2.2 1.9-0.2 3.9 0 5.6 0.7 1.8 0.7 3.4 1.9 4.6 3.3 1.2 1.5 2 3.3 2.4 5.2z"/>
		<path class="s7" d="m304.2 34.2c-4.9 2.4-5-5.4-4.6-7.1-1.9 1.8-4.4 3.6-8.9 1.6-5.6-2.4-4-8.7 0-8.6 0 0-3-5.7 3.5-6.3q1-0.1 2 0 1.1 0.1 2.1 0.2 1 0.2 1.9 0.4 1 0.3 2 0.6c0.6 0.2 2.4-6.4 8.3-3.3 3.2 1.6 5.7 6.5 5.7 6.5 0 0 12.7 1.9 5.8 8.5 1.6 3.4 0.7 14.6-3.3 19.3-1.8 2.1-16.9 1.5-14.5-11.8z"/>
		<path class="s7" d="m313.9 21.4c0 0 2.4-3.2 2.5-10.5 5.4 5.8-2.5 10.5-2.5 10.5z"/>
		<path class="s10" d="m306.6 33.7q0 0.8-0.1 1.5 0 0.8-0.2 1.5-0.2 0.8-0.6 1.5-0.3 0.6-0.7 1.3c-1.5 2.2-3.5 1.2-4.2-1.1-0.6-2.1-0.5-5.8 1.5-7.2 2-1.4 4 0.1 4.3 2.5z"/>
		<path class="s7" d="m323.5 117.4c0 0 13.8 55 20.4 75.6 7.2 22.4 38.7 81.2 38.7 81.2l12.3-5.3c0 0-23.8-53.6-28.9-76-5.5-24.4-17.3-78-17.3-78z"/>
		<path class="s6" d="m378.9 270.2c0 0 4 5.8 4 5.8l13.9-6.2-2.8-5.7z"/>
		<path class="s12" d="m330.7 136.8c9.8 0.9 12.3 36.8 12.9 55.3-4-12.7-10.5-37.3-15-54.8q0.2-0.2 0.4-0.3 0.3-0.1 0.6-0.1 0.3-0.1 0.5-0.1 0.3 0 0.6 0z"/>
		<path class="s7" d="m309.6 118.8c0 0 1.6 56.5 4.6 78.7 3.1 23.1 14.6 97 14.6 97h12.4c0 0-2.8-74.6-4.5-97.4-1.9-24.9-1.4-80.9-1.4-80.9z"/>
		<path class="s6" d="m326.3 288.7c0 0 1 7.6 1 7.6l15.1-0.6 0.2-7z"/>
	</g>
</svg>