<svg version="1.2" xmlns="http://www.w3.org/2000/svg" viewBox="0 0 2500 1875" width="2500" height="1875">
	<title>12953573_Data_security_05-ai</title>
	<style>
		.s0 { fill: #aae0ff } 
		.s1 { fill: none;stroke: #2e77e6;stroke-miterlimit:10;stroke-width: 8.7;stroke-dasharray: 13.095899999999999,13.095899999999999 } 
		.s2 { fill: #ffffff } 
		.s3 { fill: #5896fa } 
		.s4 { fill: #80b2ff } 
		.s5 { fill: #005cea } 
		.s6 { fill: #1251b3 } 
		.s7 { fill: #d9ffff } 
		.s8 { fill: #296acc } 
		.s9 { fill: #2e77e6 } 
		.s10 { fill: #ffffff;stroke: #5896fa;stroke-miterlimit:10;stroke-width: 6.3 } 
		.s11 { fill: #d1f5ff } 
		.s12 { fill: #3383ff } 
		.s13 { fill: none;stroke: #ffffff;stroke-miterlimit:10;stroke-width: 4.2 } 
	</style>
	<g id="window">
		<path id="&lt;Path&gt;" class="s0" d="m2006 1817.9h-1385.2v-1379.9h1385.2z"/>
	</g>
	<g id="system">
		<g id="&lt;Group&gt;">
			<g id="&lt;Group&gt;">
				<path id="&lt;Path&gt;" class="s1" d="m1452.7 748.2c0 292.6-237.2 529.8-529.8 529.8-292.6 0-529.8-237.2-529.8-529.8 0-292.6 237.2-529.8 529.8-529.8 292.6 0 529.8 237.2 529.8 529.8z"/>
				<path id="&lt;Path&gt;" class="s2" d="m1057.1 713.4c0.5-4.1 0.9-8.3 0.9-12.6 0-51.5-41.8-93.3-93.3-93.3-38.7 0-71.9 23.5-86.1 57-11.5-10.3-26.7-16.5-43.3-16.5-36.1 0-65.3 29.2-65.3 65.2h-12.1c-34.7 0-63 28.4-63 63 0 34.7 28.3 63 63 63h294.5c34.7 0 63-28.3 63-63 0-33.1-25.8-60.4-58.3-62.8z"/>
				<g id="&lt;Group&gt;">
					<path id="&lt;Path&gt;" class="s3" d="m1115 1398.8h-394.4c-13.2 0-24-10.8-24-24.1v-330.8c0-13.3 10.8-24.1 24-24.1h394.4c13.3 0 24.1 10.8 24.1 24.1v330.8c0 13.3-10.8 24.1-24.1 24.1z"/>
					<g id="&lt;Group&gt;">
						<g id="&lt;Group&gt;">
							<path id="&lt;Path&gt;" class="s2" d="m1051.8 1248.6h-266.8c-8.7 0-15.8-7.1-15.8-15.8 0-8.8 7.1-15.9 15.8-15.9h266.8c8.7 0 15.8 7.1 15.8 15.9 0 8.7-7.1 15.8-15.8 15.8z"/>
							<path id="&lt;Path&gt;" class="s2" d="m1051.8 1299.7h-266.8c-8.7 0-15.8-7.1-15.8-15.8 0-8.8 7.1-15.9 15.8-15.9h266.8c8.7 0 15.8 7.1 15.8 15.9 0 8.7-7.1 15.8-15.8 15.8z"/>
							<g id="&lt;Group&gt;">
								<path id="&lt;Path&gt;" class="s4" d="m834.9 1285.3c0 3.1-2.6 5.6-5.6 5.6-3.1 0-5.6-2.5-5.6-5.6 0-3.1 2.5-5.6 5.6-5.6 3 0 5.6 2.5 5.6 5.6z"/>
								<path id="&lt;Path&gt;" class="s4" d="m854 1285.3c0 3.1-2.5 5.6-5.6 5.6-3.1 0-5.6-2.5-5.6-5.6 0-3.1 2.5-5.6 5.6-5.6 3.1 0 5.6 2.5 5.6 5.6z"/>
								<path id="&lt;Path&gt;" class="s4" d="m873.2 1285.3c0 3.1-2.5 5.6-5.6 5.6-3.1 0-5.6-2.5-5.6-5.6 0-3.1 2.5-5.6 5.6-5.6 3.1 0 5.6 2.5 5.6 5.6z"/>
								<path id="&lt;Path&gt;" class="s4" d="m892.3 1285.3c0 3.1-2.5 5.6-5.6 5.6-3.1 0-5.6-2.5-5.6-5.6 0-3.1 2.5-5.6 5.6-5.6 3.1 0 5.6 2.5 5.6 5.6z"/>
								<path id="&lt;Path&gt;" class="s4" d="m911.5 1285.3c0 3.1-2.5 5.6-5.6 5.6-3.1 0-5.6-2.5-5.6-5.6 0-3.1 2.5-5.6 5.6-5.6 3.1 0 5.6 2.5 5.6 5.6z"/>
								<path id="&lt;Path&gt;" class="s4" d="m930.6 1285.3c0 3.1-2.5 5.6-5.6 5.6-3 0-5.5-2.5-5.5-5.6 0-3.1 2.5-5.6 5.5-5.6 3.1 0 5.6 2.5 5.6 5.6z"/>
								<path id="&lt;Path&gt;" class="s4" d="m949.8 1285.3c0 3.1-2.5 5.6-5.6 5.6-3.1 0-5.6-2.5-5.6-5.6 0-3.1 2.5-5.6 5.6-5.6 3.1 0 5.6 2.5 5.6 5.6z"/>
								<path id="&lt;Path&gt;" class="s4" d="m968.9 1285.3c0 3.1-2.5 5.6-5.5 5.6-3.1 0-5.6-2.5-5.6-5.6 0-3.1 2.5-5.6 5.6-5.6 3 0 5.5 2.5 5.5 5.6z"/>
								<path id="&lt;Path&gt;" class="s4" d="m988.1 1285.3c0 3.1-2.5 5.6-5.6 5.6-3.1 0-5.6-2.5-5.6-5.6 0-3.1 2.5-5.6 5.6-5.6 3.1 0 5.6 2.5 5.6 5.6z"/>
							</g>
							<g id="&lt;Group&gt;">
								<path id="&lt;Path&gt;" class="s2" d="m979.8 1111.2c0 33.8-27.4 61.3-61.3 61.3-33.9 0-61.3-27.5-61.3-61.3 0-33.9 27.4-61.4 61.3-61.4 33.9 0 61.3 27.5 61.3 61.4z"/>
								<g id="&lt;Group&gt;">
									<g id="&lt;Group&gt;">
										<path id="&lt;Path&gt;" class="s5" d="m918.6 1108.7c6 0 11.5-2.9 15-7.4 2.6-3.2 4.2-7.3 4.2-11.9 0-10.6-8.6-19.4-19.2-19.4-10.8 0-19.4 8.8-19.4 19.4 0 4.6 1.6 8.7 4.2 11.9 3.5 4.5 9 7.4 15.2 7.4z"/>
									</g>
									<path id="&lt;Path&gt;" class="s5" d="m952.6 1143.2c0 12.2-68.2 12.2-68.2 0v-14.3c2.7-19.4 62.6-20.2 68.2 0z"/>
								</g>
							</g>
							<path id="&lt;Compound Path&gt;" fill-rule="evenodd" class="s3" d="m799.3 1280.9v11.3c0 1.9-14.5 1.9-14.5 0v-11.3h1v-0.8c0-3.5 2.8-6.3 6.2-6.3 3.5 0 6.3 2.8 6.3 6.3v0.8zm-11.3 0h8.1v-0.8c0-2.3-1.4-4.1-4.1-4.1-2.6 0-4 1.9-4 4.1zm6 4c0-1.1-0.9-2-2-2-1.1 0-2 0.9-2 2 0 0.7 0.4 1.3 1 1.7v3.2c0 0.6 0.4 1 1 1 0.6 0 1.1-0.4 1.1-1v-3.2c0.5-0.4 0.9-1 0.9-1.7z"/>
							<g id="&lt;Group&gt;">
								<g id="&lt;Group&gt;">
									<g id="&lt;Group&gt;">
										<path id="&lt;Path&gt;" class="s3" d="m792 1231.6c1.3 0 2.5-0.6 3.2-1.6 0.6-0.6 0.9-1.5 0.9-2.5 0-2.2-1.8-4.1-4.1-4.1-2.2 0-4 1.9-4 4.1 0 1 0.3 1.9 0.8 2.5 0.8 1 1.9 1.6 3.2 1.6z"/>
									</g>
									<path id="&lt;Path&gt;" class="s3" d="m799.2 1238.9c0 2.6-14.4 2.6-14.4 0v-3c0.6-4.1 13.2-4.3 14.4 0z"/>
								</g>
								<path id="&lt;Path&gt;" class="s4" d="m885.5 1237.4h-58.5c-2.5 0-4.6-2.1-4.6-4.6 0-2.6 2.1-4.7 4.6-4.7h58.5c2.5 0 4.6 2.1 4.6 4.7 0 2.5-2.1 4.6-4.6 4.6z"/>
								<path id="&lt;Path&gt;" class="s4" d="m962.6 1237.4h-58.5c-2.5 0-4.6-2.1-4.6-4.6 0-2.6 2.1-4.7 4.6-4.7h58.5c2.5 0 4.6 2.1 4.6 4.7 0 2.5-2.1 4.6-4.6 4.6z"/>
							</g>
						</g>
						<path id="&lt;Path&gt;" class="s6" d="m938 1349.3h-53c-7.5 0-13.6-6.1-13.6-13.6 0-7.5 6.1-13.6 13.6-13.6h53c7.5 0 13.6 6.1 13.6 13.6 0 7.5-6.1 13.6-13.6 13.6z"/>
					</g>
				</g>
				<g id="&lt;Group&gt;">
					<g id="&lt;Group&gt;">
						<g id="&lt;Group&gt;">
							<g id="&lt;Group&gt;">
								<path id="&lt;Path&gt;" class="s7" d="m244.6 795.7c0.1-0.4 0.1-0.6 0.1-0.7 0 0.1-0.1 0.7-0.1 0.7z"/>
								<path id="&lt;Path&gt;" class="s7" d="m244.6 795.7c0.1-0.4 0.1-0.6 0.1-0.7 0 0.1-0.1 0.7-0.1 0.7z"/>
								<path id="&lt;Path&gt;" class="s7" d="m505.4 796.9c0 0 0-0.6 0-0.7 0 0 0 0.2 0 0.7z"/>
								<path id="&lt;Path&gt;" class="s7" d="m505.4 796.9c0 0 0-0.6 0-0.7 0 0 0 0.2 0 0.7z"/>
								<path id="&lt;Path&gt;" class="s2" d="m375.6 725.3c-30.4 32.5-78.9 59.2-130.8 70.5 0 3.5-0.1 22.7-0.5 111.2-0.5 118 111.8 175.7 129.3 184.6 16.9-7.8 130.6-65.4 131.1-183.4 0.4-88.5 0.5-107.7 0.5-111.2-51.7-11.8-99.6-38.9-129.6-71.7z"/>
							</g>
						</g>
						<g id="&lt;Group&gt;">
							<g id="&lt;Group&gt;">
								<path id="&lt;Path&gt;" class="s8" d="m375.2 746.6c-29.7 27.3-70.9 48.7-116.3 60.4l-0.4 100c-0.2 45.8 18 87.2 54 123.1 23.7 23.6 48.6 38.2 61.3 44.8 0.5-0.3 1.1-0.6 1.7-0.9v-327.2q-0.1-0.1-0.3-0.2z"/>
							</g>
							<g id="&lt;Group&gt;">
								<path id="&lt;Path&gt;" class="s9" d="m375.5 746.8v327.2c13.1-6.9 37-21 59.9-43.4 36.4-35.5 54.9-76.8 55.1-122.5l0.5-100c-45.1-12.1-86-33.8-115.5-61.3z"/>
							</g>
						</g>
					</g>
					<g id="&lt;Group&gt;">
						<path id="&lt;Compound Path&gt;" fill-rule="evenodd" class="s2" d="m428.2 891v77.5c0 8.6-105.4 8.6-105.4 0v-77.5zm-39.6 29.2c0-7.2-5.8-13-13-13-7.2 0-13 5.8-13 13 0 5.3 3.1 9.8 7.6 11.9v22c0 2.9 2.4 5.3 5.4 5.3 2.9 0 5.3-2.4 5.3-5.3v-22c4.6-2 7.7-6.6 7.7-11.9z"/>
						<path id="&lt;Path&gt;" class="s2" d="m418.9 885.5h-10.6v-5.3c0-18-14.7-32.7-32.8-32.7-18.1 0-32.8 14.7-32.8 32.7v5.3h-10.6v-5.3c0-23.9 19.4-43.4 43.4-43.4 24 0 43.4 19.5 43.4 43.4z"/>
					</g>
				</g>
				<g id="&lt;Group&gt;">
					<g id="&lt;Group&gt;">
						<path id="&lt;Path&gt;" class="s8" d="m1155.2 325.1h-190.3v-237.5h190.3z"/>
					</g>
					<g id="&lt;Group&gt;">
						<path id="&lt;Path&gt;" class="s10" d="m1179.9 349.6h-190.3v-237.5h190.3z"/>
					</g>
					<g id="&lt;Group&gt;">
						<path id="&lt;Path&gt;" class="s10" d="m1211.2 373.7h-190.2v-237.5h190.2z"/>
					</g>
					<g id="&lt;Group&gt;">
						<path id="&lt;Path&gt;" class="s3" d="m1234 398.2h-190.2v-237.5h190.2z"/>
						<path id="&lt;Path&gt;" class="s5" d="m1204.4 215.1h-98.4v-15.4h98.4z"/>
						<path id="&lt;Path&gt;" class="s5" d="m1204.4 251.4h-127.5v-15.4h127.5z"/>
						<path id="&lt;Path&gt;" class="s5" d="m1204.4 287.7h-127.5v-15.4h127.5z"/>
						<path id="&lt;Path&gt;" class="s5" d="m1204.4 324h-127.5v-15.4h127.5z"/>
						<path id="&lt;Path&gt;" class="s5" d="m1204.4 360.3h-127.5v-15.4h127.5z"/>
					</g>
				</g>
				<g id="&lt;Group&gt;">
					<path id="&lt;Path&gt;" class="s2" d="m614.7 346.1c0 37.1-30.1 67.2-67.2 67.2-37.1 0-67.2-30.1-67.2-67.2 0-37.1 30.1-67.2 67.2-67.2 37.1 0 67.2 30.1 67.2 67.2z"/>
					<g id="&lt;Group&gt;">
						<path id="&lt;Compound Path&gt;" fill-rule="evenodd" class="s5" d="m666.6 417.9c-9.7 15.9-22 29.3-36.1 39.7l-9.1-12.2c-13.3 9.9-28.3 16.9-44.1 20.9l3.6 14.7c-17.3 4.3-35.6 5.3-53.6 2.6l0.5-3.4 1.7-11.6c-15.8-2.3-31.4-7.8-45.9-16.5l-7.8 13c-16-9.6-29.3-22-39.8-36.1l12.2-9.1c-9.9-13.2-16.9-28.3-20.8-44.1l-14.7 3.7c-4.4-17.4-5.3-35.7-2.6-53.7l4.4 0.6 10.6 1.6c2.3-15.8 7.7-31.3 16.4-45.8l-13-7.9c9.7-16 22-29.4 36.2-39.8l9.1 12.2c13.2-9.9 28.2-16.9 44-20.8l-3.7-14.7c17.4-4.3 35.7-5.3 53.7-2.6l-2.2 15c15.8 2.3 31.4 7.7 45.9 16.5l7.8-13c16 9.6 29.4 22 39.8 36.1l-12.2 9.1c9.9 13.2 16.9 28.3 20.8 44l14.7-3.6c4.4 17.4 5.3 35.6 2.6 53.7h-0.1l-9.9-1.5-5-0.7c-2.3 15.7-7.7 31.3-16.5 45.8zm-61.5-37.1c19.2-31.8 9-73-22.8-92.2-31.8-19.2-73.1-8.9-92.2 22.8-19.2 31.8-9 73.1 22.8 92.3 31.8 19.1 73 8.9 92.2-22.9z"/>
					</g>
					<g id="&lt;Group&gt;">
						<path id="&lt;Compound Path&gt;" fill-rule="evenodd" class="s6" d="m408.7 396.7c5.4 8.2 9 17 10.8 26.1l-7.9 1.6c1.7 8.5 1.6 17.3 0 25.7l7.8 1.5c-1.9 9.3-5.6 18.2-10.9 26.1l-1.5-0.9-5.1-3.5c-4.7 7-10.8 13.2-18.3 18.1l4.5 6.7c-8.2 5.4-17.1 8.9-26.2 10.7l-1.6-7.8c-8.5 1.7-17.2 1.6-25.6-0.1l-1.6 7.8c-9.3-1.8-18.2-5.5-26.1-10.9l1.3-1.9 3.1-4.7c-7-4.7-13.2-10.8-18.1-18.2l-6.6 4.4c-5.5-8.2-9-17.1-10.8-26.2l7.8-1.5c-1.7-8.6-1.6-17.3 0.1-25.7l-7.8-1.5c1.9-9.3 5.5-18.2 10.9-26.2l6.6 4.5c4.7-7 10.8-13.2 18.2-18.1l-4.4-6.7c8.2-5.4 17.1-9 26.2-10.7l1.5 7.8c8.6-1.7 17.3-1.6 25.7 0.1l1.6-7.8c9.2 1.8 18.1 5.5 26.1 10.9l-3 4.4-1.4 2.2c6.9 4.7 13.1 10.8 18 18.2zm-31.5 20.9c-10.8-16.3-32.7-20.8-49-10-16.3 10.8-20.8 32.7-10 49 10.8 16.3 32.7 20.8 49 10 16.3-10.8 20.8-32.7 10-49z"/>
					</g>
				</g>
				<g id="&lt;Group&gt;">
					<path id="&lt;Path&gt;" class="s5" d="m1501.2 537.7h-163.4c-3.5 0-6.3-2.8-6.3-6.3v-92.7c0-3.4 2.8-6.2 6.3-6.2h163.4c3.4 0 6.2 2.8 6.2 6.2v92.7c0 3.5-2.8 6.3-6.2 6.3z"/>
					<path id="&lt;Path&gt;" class="s3" d="m1507.4 470.5h-175.9v-18.1h175.9z"/>
					<path id="&lt;Path&gt;" class="s11" d="m1371.8 517.5h-25.8c-1.7 0-3 1.3-3 3 0 1.6 1.3 2.9 3 2.9h25.8c1.7 0 3-1.3 3-2.9 0-1.7-1.3-3-3-3z"/>
					<path id="&lt;Path&gt;" class="s11" d="m1411.6 517.5h-25.9c-1.6 0-3 1.3-3 3 0 1.6 1.4 2.9 3 2.9h25.9c1.6 0 3-1.3 3-2.9 0-1.7-1.4-3-3-3z"/>
					<path id="&lt;Path&gt;" class="s11" d="m1451.3 517.5h-25.8c-1.7 0-3 1.3-3 3 0 1.6 1.3 2.9 3 2.9h25.8c1.7 0 3-1.3 3-2.9 0-1.7-1.3-3-3-3z"/>
					<path id="&lt;Path&gt;" class="s11" d="m1491.1 517.5h-25.9c-1.6 0-2.9 1.3-2.9 3 0 1.6 1.3 2.9 2.9 2.9h25.9c1.6 0 3-1.3 3-2.9 0-1.7-1.4-3-3-3z"/>
					<path id="&lt;Path&gt;" class="s11" d="m1344.8 437.8c-1.8 0-3.3 1.5-3.3 3.3v1.2c0 1.8 1.5 3.3 3.3 3.3 1.8 0 3.3-1.5 3.3-3.3v-1.2c0-1.8-1.5-3.3-3.3-3.3z"/>
					<path id="&lt;Path&gt;" class="s11" d="m1351.9 441.7c0 2.1 1.7 3.9 3.8 3.9h13.7c2.1 0 3.9-1.8 3.9-3.9 0-2.1-1.8-3.9-3.9-3.9h-13.7c-2.1 0-3.8 1.8-3.8 3.9z"/>
					<path id="&lt;Path&gt;" class="s3" d="m1350.1 480.3h17.6c2.9 0 5.2 2.3 5.2 5.1v15.2c0 2.9-2.3 5.2-5.2 5.2h-17.6c-2.9 0-5.2-2.3-5.2-5.2v-15.2c0-2.8 2.3-5.1 5.2-5.1z"/>
				</g>
				<g id="&lt;Group&gt;">
					<g id="&lt;Group&gt;">
						<path id="&lt;Path&gt;" class="s6" d="m1436.4 805.5v-12c0-5.5-4.4-9.9-9.8-9.9h-105.2c-5.4 0-9.8 4.4-9.8 9.9v212.3h271.9v-200.3z"/>
						<path id="&lt;Path&gt;" class="s2" d="m1594.8 812.8h-266.7l-16.5 193h270.6z"/>
						<path id="&lt;Path&gt;" class="s12" d="m1583.5 1005.8h-271.9l28.8-190.6c0.9-5.6 5.6-9.7 11.3-9.7h248.9c7 0 12.3 6.2 11.3 13.1z"/>
					</g>
					<g id="&lt;Group&gt;">
						<g id="&lt;Group&gt;">
							<path id="&lt;Path&gt;" class="s5" d="m1674.3 812.8c0 34.4-27.9 62.3-62.3 62.3-34.4 0-62.3-27.9-62.3-62.3 0-34.4 27.9-62.3 62.3-62.3 34.4 0 62.3 27.9 62.3 62.3z"/>
							<path id="&lt;Compound Path&gt;" fill-rule="evenodd" class="s2" d="m1612 877.4c-35.6 0-64.6-29-64.6-64.6 0-35.6 29-64.6 64.6-64.6 35.6 0 64.6 29 64.6 64.6 0 35.6-29 64.6-64.6 64.6zm0-124.6c-33.1 0-60 26.9-60 60 0 33.1 26.9 60 60 60 33.1 0 60-26.9 60-60 0-33.1-26.9-60-60-60z"/>
						</g>
						<g id="&lt;Group&gt;">
							<path id="&lt;Compound Path&gt;" fill-rule="evenodd" class="s2" d="m1642 801.5v44.2c0 4.9-60 4.9-60 0v-44.2zm-22.6 16.7c0-4.1-3.3-7.4-7.4-7.4-4.1 0-7.4 3.3-7.4 7.4 0 3 1.8 5.6 4.4 6.7v12.6c0 1.6 1.3 3 3 3 1.7 0 3-1.4 3-3v-12.5c2.6-1.2 4.4-3.8 4.4-6.8z"/>
							<path id="&lt;Path&gt;" class="s2" d="m1636.7 798.4h-6v-3c0-10.3-8.4-18.7-18.7-18.7-10.3 0-18.7 8.4-18.7 18.7v3h-6.1v-3c0-13.6 11.1-24.7 24.8-24.7 13.6 0 24.7 11.1 24.7 24.7z"/>
						</g>
					</g>
				</g>
			</g>
			<path id="&lt;Path&gt;" class="s0" d="m1419.5 291.3c0 13.2-10.7 23.9-23.9 23.9-13.2 0-23.8-10.7-23.8-23.9 0-13.1 10.6-23.8 23.8-23.8 13.2 0 23.9 10.7 23.9 23.8z"/>
			<path id="&lt;Path&gt;" class="s0" d="m793 380.3c0 13.2-10.7 23.9-23.8 23.9-13.2 0-23.9-10.7-23.9-23.9 0-13.1 10.7-23.8 23.9-23.8 13.1 0 23.8 10.7 23.8 23.8z"/>
			<path id="&lt;Path&gt;" class="s2" d="m1575.4 698c0 6.9-5.6 12.4-12.5 12.4-6.9 0-12.5-5.5-12.5-12.4 0-6.9 5.6-12.5 12.5-12.5 6.9 0 12.5 5.6 12.5 12.5z"/>
			<path id="&lt;Path&gt;" class="s0" d="m269.3 721.4c0 6.9-5.6 12.4-12.5 12.4-6.9 0-12.5-5.5-12.5-12.4 0-6.9 5.6-12.5 12.5-12.5 6.9 0 12.5 5.6 12.5 12.5z"/>
			<path id="&lt;Path&gt;" class="s0" d="m475.9 1176.2c0 13.1-10.7 23.8-23.9 23.8-13.2 0-23.8-10.7-23.8-23.8 0-13.2 10.6-23.9 23.8-23.9 13.2 0 23.9 10.7 23.9 23.9z"/>
			<g id="&lt;Group&gt;">
				<path id="&lt;Path&gt;" class="s0" d="m834.8 143.5c-2.2 0-4.1-1.8-4.1-4.1v-44.3c0-2.2 1.9-4.1 4.1-4.1 2.3 0 4.2 1.9 4.2 4.1v44.3c0 2.3-1.9 4.1-4.2 4.1z"/>
				<path id="&lt;Path&gt;" class="s0" d="m808.6 117.3c0-2.3 1.8-4.2 4.1-4.2h44.3c2.2 0 4.1 1.9 4.1 4.2 0 2.2-1.9 4.1-4.1 4.1h-44.3c-2.3 0-4.1-1.9-4.1-4.1z"/>
			</g>
			<g id="&lt;Group&gt;">
				<path id="&lt;Path&gt;" class="s2" d="m1305.3 711.7c-2.3 0-4.1-1.8-4.1-4.1v-44.2c0-2.3 1.8-4.2 4.1-4.2 2.3 0 4.1 1.9 4.1 4.2v44.2c0 2.3-1.8 4.1-4.1 4.1z"/>
				<path id="&lt;Path&gt;" class="s2" d="m1279 685.5c0-2.3 1.9-4.1 4.2-4.1h44.2c2.3 0 4.1 1.8 4.1 4.1 0 2.3-1.8 4.1-4.1 4.1h-44.2c-2.3 0-4.2-1.8-4.2-4.1z"/>
			</g>
			<g id="&lt;Group&gt;">
				<path id="&lt;Path&gt;" class="s2" d="m1260.3 1294.6c-2.3 0-4.1-1.8-4.1-4.1v-44.3c0-2.3 1.8-4.1 4.1-4.1 2.3 0 4.1 1.8 4.1 4.1v44.3c0 2.3-1.8 4.1-4.1 4.1z"/>
				<path id="&lt;Path&gt;" class="s2" d="m1234 1268.3c0-2.2 1.9-4.1 4.2-4.1h44.2c2.3 0 4.2 1.9 4.2 4.1 0 2.3-1.9 4.2-4.2 4.2h-44.2c-2.3 0-4.2-1.9-4.2-4.2z"/>
			</g>
			<path id="&lt;Path&gt;" class="s13" d="m905.2 964.3c0 7.3-5.9 13.2-13.2 13.2-7.3 0-13.3-5.9-13.3-13.2 0-7.3 6-13.2 13.3-13.2 7.3 0 13.2 5.9 13.2 13.2z"/>
		</g>
	</g>
</svg>